<svg width="152" height="126" viewBox="0 0 152 126" fill="none" xmlns="http://www.w3.org/2000/svg">
<path d="M102.3 14.9319L79.8003 1.43188L72.3003 6.68188L13.0503 50.9319L1.80029 62.9319L1.05029 71.9319L1.80029 79.4319L15.3003 89.9319L46.0503 109.432L71.5503 124.432L118.05 92.1819L149.55 68.1819L151.05 55.4319L149.55 47.1819L102.3 14.9319Z" fill="white"/>
<path d="M79.6934 1.43188C69.3163 6.61211 10.8469 50.8124 1.68642 62.263C1.08447 62.9245 3.9435 65.5176 8.81365 69.1592C13.8526 65.4835 83.5969 10.6419 88.3575 6.61209C85.7691 5.05284 83.2476 3.1372 79.6934 1.43188Z" fill="#383838"/>
<path d="M1.68642 62.263C10.8469 50.8124 69.3163 6.61211 79.6934 1.43188C83.2476 3.1372 85.7691 5.05284 88.3575 6.61209M1.68642 62.263C1.08447 62.9245 3.9435 65.5176 8.81365 69.1592M1.68642 62.263C1.68642 62.263 1.30193 64.57 1.13079 67.9883M149.828 47.2341C146.965 56.0009 86.1343 104.534 71.8211 109.543M149.828 47.2341C127.98 31.4356 111.457 20.5171 88.3575 6.61209M149.828 47.2341C150.502 49.4995 150.861 51.66 150.992 53.8593M71.8211 109.543C52.5785 99.9063 26.0492 82.0468 8.81365 69.1592M71.8211 109.543C71.8211 112.528 71.8211 113.426 71.8211 115.759M71.5503 124.432C89.2629 113.697 146.393 72.5685 149.828 67.9883C150.133 65.9375 150.407 64.0464 150.617 62.263M71.5503 124.432C52.4032 113.503 6.51716 85.1641 1.68642 79.4388C1.39377 77.6829 1.2208 75.9269 1.13079 74.2444M71.5503 124.432C71.5503 123.001 71.8211 121.803 71.8211 120.589M8.81365 69.1592C13.8526 65.4834 83.5969 10.6419 88.3575 6.61209M71.8211 115.759C96.8697 98.5862 147.772 62.1651 150.992 53.8593M71.8211 115.759C71.8211 117.331 71.8211 118.883 71.8211 120.589M71.8211 115.759C61.158 109.849 10.7145 78.0875 1.13079 67.9883M150.992 53.8593C151.15 56.5194 150.975 59.236 150.617 62.263M150.617 62.263C130.674 78.425 88.3575 109.497 71.8211 120.589M71.8211 120.589C61.2651 114.327 4.15343 79.3296 1.13079 74.2444M1.13079 67.9883C1.03925 69.8167 1.00875 71.9631 1.13079 74.2444" stroke="black"/>
<path d="M95.7957 40.4354C112.793 54.749 95.2587 76.2185 77.0096 60.8315C59.28 45.8825 79.3357 29.3428 95.7957 40.4354Z" fill="#FF5959" stroke="black"/>
</svg>
