<svg width="152" height="102" viewBox="0 0 152 102" fill="none" xmlns="http://www.w3.org/2000/svg">
<path d="M109.78 29.8846V36.1219L100.185 39.7204L97.4258 33.9629L109.78 29.8846Z" fill="#8F8E8E"/>
<path d="M77.1547 40.2002L90.7088 36.0021L96.1195 46.0843L93.699 47.0525L84.0736 44.4119L77.1547 46.6774L73.8065 41.5953L74.5547 36.4901L77.1547 40.2002Z" fill="#8F8E8E"/>
<path d="M39.2517 56.8728V50.5156H39.1317L34.7537 50.9055L31.9349 44.0385L17.5413 48.3566L10.5845 51.3553L12.2636 52.6747L22.4592 55.3135L31.2153 52.6747L31.9349 53.2359L32.8554 54.2481L33.9741 56.8728H39.2517Z" fill="#8F8E8E"/>
<path d="M57.9631 37.0815V28.8052L52.0856 30.6045L42.49 16.6907L35.0532 19.2095L18.7405 26.8861L9.14474 34.6826L5.58765 40.5388L6.46144 46.8426L9.14474 46L14.4225 39.6004L24.3781 33.843L42.2871 25.8403L52.2421 39.0096L57.9631 37.0815Z" fill="#8F8E8E"/>
<path d="M83.5119 7.57494C89.2293 7.17512 107.217 6.11987 107.697 6.02393L102.392 8.23962L92.2678 10.6935L80.703 14.2314L80.4534 15.5733L65.6397 18.7299L53.6465 22.2828L48.7273 14.8916L60.722 11.773L83.5119 7.57494Z" fill="#8F8E8E"/>
<path d="M135.089 7.45472C140.846 7.81455 141.206 12.1326 142.526 15.7311L140.247 18.9696L133.349 14.6516L122.645 12.3277L115.778 14.6516L82.7922 25.5667L80.2759 21.5267L80.54 15.2333L82.7922 18.2499L99.3447 12.7324L121.535 5.89551C124.134 6.2953 130.483 7.16685 135.089 7.45472Z" fill="#8F8E8E"/>
<path d="M121.709 12.5774C127.014 12.8583 138.467 15.7293 140.486 19.2098L136.688 25.0914L125.578 33.8918L113.845 40.0083L102.142 44.2525L100.02 39.6651L109.42 36.482V30.1248L107.141 24.6073L74.6357 35.1626L74.243 41.7559L76.6748 46.7974L91.0635 41.9432L93.3417 47.1235L91.7881 47.8769L64.6624 54.1139L45.6886 56.4232L39.1033 56.3556L33.6108 56.2991L27.4637 56.236L23.4068 55.2061L31.6454 53.0529L33.6108 56.2991L39.1033 56.3556L38.8916 49.4362L35.1094 38.8849L9.08276 46.0313L13.3429 40.5602L23.8125 33.9854L42.3701 25.6868L52.3257 39.3607L57.8432 37.2017V28.6855L53.6451 22.0884L57.8432 20.8889L68.6383 18.0102L80.5131 15.4172V22.0884L83.1519 25.6868C95.7063 21.5287 119.694 13.441 121.709 12.5774Z" fill="#666666"/>
<path d="M109.18 29.7049L97.1858 33.9631L102.403 43.8586L96.2262 46.1976L91.1885 35.0425L76.5836 40.0707L74.5159 35.0425L106.901 24.847L109.18 29.7049Z" fill="#C60000"/>
<path d="M80.5781 14.3562L109.96 5.5957L121.175 6.01549L82.8562 18.4755L80.5781 14.3562Z" fill="#C60000"/>
<path d="M57.9636 28.5053L48.5478 14.4716L42.4905 16.2709L52.7459 30.6644L57.9636 28.5053Z" fill="#C60000"/>
<path d="M91.0687 35.6422L95.8666 46.1975V52.4948L91.0687 41.8195M91.0687 35.6422L76.6751 40.2002M91.0687 35.6422V41.8195M76.6751 40.2002L74.3962 35.2225M76.6751 40.2002V46.7373M74.3962 35.2225L107.142 24.847L109.66 30.0048M74.3962 35.2225L74.3963 41.8195L76.6751 46.7373M109.66 30.0048L97.066 34.023L99.9447 39.6605M109.66 30.0048V36.1221L99.9447 39.6605M101.984 44.0385L99.9447 39.6605M76.6751 46.7373L91.0687 41.8195" stroke="black"/>
<path d="M42.4905 16.5707L52.2062 30.7244M42.4905 16.5707L42.4905 26.0465L52.2062 39.1207M42.4905 16.5707L47.8881 14.5317L58.2035 28.8053M52.2062 30.7244L52.2062 39.1207M52.2062 30.7244L58.2035 28.8053M52.2062 39.1207L58.2035 36.8417V28.8053" stroke="black"/>
<path d="M39.3715 50.0359L34.9334 38.7609L6.74609 46.7973L9.92464 51.2953L31.0952 44.1585L34.2138 51.2953L39.3715 50.0359Z" fill="#C60000"/>
<path d="M9.47929 51.0058L31.7058 44.4652M31.7058 44.4652L34.0073 51.3087M31.7058 44.4652V52.8227M34.0073 51.3087L38.9734 50.2187M34.0073 51.3087V57.3045M38.9734 50.2187L35.2791 38.8329L6.51172 47.0087M38.9734 50.2187V56.8806L34.0073 57.3045M34.0073 57.3045L31.7058 52.8227M31.7058 52.8227L20.8046 55.7298" stroke="black"/>
<path d="M64.8606 56.3928C52.6261 59.0316 33.1347 59.1514 25.0982 58.4317L25.0387 58.4264C20.731 58.0408 13.3066 57.3762 5.30703 49.5558C-0.996967 35.0464 8.12575 33.1831 15.6824 25.8664C46.6285 9.37372 72.7169 7.15486 85.7912 5.4154C98.0471 3.78483 117.683 2.71588 131.945 4.5259L132.122 4.57285C140.589 6.81174 142.785 7.3925 144.365 15.7292C143.523 24.0927 135.971 30.385 128.492 34.4425C96.7663 51.6549 77.0951 53.754 64.8606 56.3928Z" stroke="#676767" stroke-width="5"/>
<path d="M105.294 47.9348C65.0995 62.1652 13.727 68.81 1.74927 47.81C5.38504 77.8354 25.7551 96.0456 50.9315 99.8009C90.9738 104.909 132.694 85.7577 146.363 54.3011C153.42 38.0591 151.73 27.5879 147.299 14.1064C147.197 26.5157 129.136 38.76 105.294 47.9348Z" fill="#404040"/>
<path d="M1.18212 39.7408C2.96186 10.6712 135.676 -13.7793 146.049 10.6711M1.18212 39.7408C3.8468 147.786 182.435 96.4442 146.049 10.6711M1.18212 39.7408C0.965306 43.2821 1.66835 46.326 3.14915 48.9127C8.09591 57.5537 19.6636 61.0356 36.6719 60.9672C37.7518 60.9628 40.9038 61.0002 42.0096 60.9672C43.9049 60.9105 45.8363 60.8123 47.7969 60.6744C85.6704 58.0111 134.456 40.5493 144.945 22.1877C147.14 18.3458 147.658 14.4645 146.049 10.6711M140.727 18.9627C141.89 16.2398 142.786 15.6373 140.727 10.6711C133.944 -1.44143 20.1988 8.61202 6.02707 39.7408C5.00042 43.7948 5.91465 47.0321 8.34703 49.5381C26.4876 68.2275 129.07 46.2371 140.727 18.9627ZM140.727 18.9627C137.041 15.138 130.275 13.3094 121.709 12.5461M8.83315 46.3433C12.0491 39.7988 25.5223 31.9619 42.5698 25.8148M53.7542 22.1123C62.3438 19.5034 71.4714 17.2367 80.4936 15.5088" stroke="black"/>
<path d="M80.5129 14.2917L109.72 6.01548L121.415 6.01538M80.5129 14.2917L82.792 18.4898M80.5129 14.2917L80.513 21.7284L82.792 25.4467M82.792 18.4898L121.415 6.01538M82.792 18.4898V25.4467M121.415 6.01538V12.7323L82.792 25.4467" stroke="black"/>
<path d="M119.736 18.7297C123.094 18.6098 124.414 25.3267 119.736 25.0868C115.058 24.8469 115.298 18.7297 119.736 18.7297Z" fill="#E3E3E3" stroke="black"/>
<path d="M70.8575 24.4275C72.724 24.8768 69.8977 27.7259 68.8183 27.0662C67.6491 26.3516 67.619 23.6479 70.8575 24.4275Z" fill="#1EFF34"/>
<path d="M116.307 32.0651C118.173 32.5145 116.822 34.6997 115.567 34.8625C113.948 35.0726 113.069 31.2855 116.307 32.0651Z" fill="#1EFF34"/>
<path d="M68.7586 46.3781C70.6251 46.8274 70.4677 49.4086 68.0885 49.4092C66.7182 49.4095 65.5201 45.5985 68.7586 46.3781Z" fill="#1EFF34"/>
<path d="M45.2798 34.9137C47.1462 35.363 45.535 37.7124 44.2699 37.7125C42.5308 37.7126 42.0413 34.1341 45.2798 34.9137Z" fill="#1EFF34"/>
<path d="M45.252 49.9964C47.1185 50.4457 45.6144 52.8246 44.3493 52.8246C42.3402 52.8246 42.0135 49.2168 45.252 49.9964Z" fill="#1EFF34"/>
</svg>
