<svg width="147" height="152" viewBox="0 0 147 152" fill="none" xmlns="http://www.w3.org/2000/svg">
<path d="M83.2062 74.3378L70.7858 115.801L57.7951 115.709L35.2589 113.372L11.9331 109.389L0.800632 105.797L0.702637 100.032L1.6875 89.1876L3.65708 79.4031L6 67.0001L9.09483 55.2365L13.125 39.3126L18.0578 24.019L21.5 12.5001L25.4375 2.62515L34.625 1.5625H53.1875L79.0208 4.14501L89.75 6.3125L96.2555 9.06132L95.9387 15.2281L91.7187 39.8228L83.2062 74.3378Z" fill="#E4E4E4"/>
<path d="M100.161 15.5367L97.0076 10.0818L93.3714 29.811L87.6968 55.2465L77.7008 95.3088L70.9073 115.731L50.9335 115.309L27.2118 112.04L1.1001 106.594L3.76263 111.201L66.5679 119.695L73.0093 119.368L79.2723 100.546L87.4569 69.9399L100.161 15.5367Z" fill="white"/>
<path d="M1.08992 106.147C12.9129 110.97 66.5854 117.859 70.8624 115.678M1.08992 106.147C-2.69045 88.5136 22.3337 3.95062 25.6772 2.46199C39.9756 -0.809829 92.0028 3.76122 96.2859 9.15446M1.08992 106.147L3.72581 110.707C7.03732 112.654 68.5842 120.687 72.9984 119.374M70.8624 115.678C74.8832 111.29 98.3118 16.9453 96.2859 9.15446M70.8624 115.678C71.7392 116.313 72.7194 117.378 72.9984 119.374M96.2859 9.15446C97.2329 10.7929 99.7849 14.1995 100.169 15.872C100.553 17.5445 77.39 113.484 72.9984 119.374" stroke="black"/>
<path d="M26.9565 14.9268C28.0451 16.5758 29.5219 18.0265 30.9953 19.3319C31.0846 19.411 31.8265 20.1292 31.6742 20.2628C31.4132 20.4917 30.8527 20.4932 30.5392 20.6852C30.3706 20.7885 30.1585 20.8476 30.002 20.9632C29.5896 21.2677 29.0847 21.5279 28.6452 21.8028C28.3146 22.0095 28.0017 22.2371 27.688 22.4701C27.4224 22.6674 27.1327 22.8117 26.8727 22.9865C26.6747 23.1196 26.4581 23.3172 26.2404 23.4015" stroke="black" stroke-linecap="round" stroke-linejoin="round"/>
<path d="M40.0216 15.7471C39.3179 15.9057 38.6408 16.0023 37.9948 16.3365C37.4652 16.6105 37.0167 17.1729 36.6247 17.6083C35.8418 18.4782 35.2205 19.6297 35.1115 20.7878C35.0689 21.2401 35.0263 21.6924 34.9837 22.1447C34.9497 22.5057 35.0348 23.2935 35.3452 23.5385C35.5451 23.6963 35.7114 24.0657 35.8927 24.2655C36.1051 24.4995 36.2771 24.6167 36.546 24.7422C37.0225 24.9648 37.5116 25.0385 38.033 25.0876C38.4608 25.1279 38.8309 24.959 39.2365 24.9546C39.4819 24.9519 40.1047 24.7907 40.2602 24.5993C40.4044 24.4216 40.7643 24.3321 40.9525 24.1762C41.1312 24.0283 41.1714 23.7773 41.3327 23.6279C41.736 23.2545 41.8962 22.6424 42.1289 22.1515C42.3809 21.62 42.498 21.0735 42.5325 20.4829C42.5679 19.8752 42.203 19.2583 42.1332 18.6656C42.0522 17.9775 41.6548 17.4332 41.3993 16.8169C41.2173 16.3778 40.8219 15.9868 40.3319 15.9406" stroke="black" stroke-linecap="round" stroke-linejoin="round"/>
<path d="M46.2088 16.3294C45.7315 18.3799 45.7225 20.6196 45.525 22.7172C45.4486 23.5283 45.4388 24.3589 45.8298 25.1005C46.2065 25.8151 47.0864 26.3224 47.9228 26.0369C48.6903 25.7749 49.5383 25.2075 49.8029 24.3887C50.1365 23.3565 50.118 22.2837 50.3512 21.2325C50.6715 19.7881 50.71 18.2465 50.8494 16.7665" stroke="black" stroke-linecap="round" stroke-linejoin="round"/>
<path d="M53.2925 16.9971C55.1738 17.1743 57.0056 17.5932 58.8871 17.7704C59.3077 17.8101 59.7283 17.8497 60.149 17.8893C60.3637 17.9095 60.9854 17.7199 61.0852 17.9775" stroke="black" stroke-linecap="round" stroke-linejoin="round"/>
<path d="M57.3904 17.9578C57.1184 20.8456 56.9303 23.7145 56.6589 26.5953" stroke="black" stroke-linecap="round" stroke-linejoin="round"/>
<path d="M63.6472 17.8081C63.5147 18.9709 63.3234 20.1275 63.2361 21.3012C63.1755 22.1144 63.2449 22.951 63.1688 23.759C63.0569 24.9471 63.0261 26.1464 62.9128 27.3489" stroke="black" stroke-linecap="round" stroke-linejoin="round"/>
<path d="M63.7942 17.9861C65.0027 17.9339 66.1743 18.046 67.3737 18.1589C68.3559 18.2515 68.4434 19.2041 68.3663 20.0229C68.3198 20.5163 68.3287 20.8431 68.0234 21.2409C67.5054 21.9159 67.0707 21.7904 66.2767 21.9571C65.518 22.1165 64.8257 22.1901 64.0621 22.1181" stroke="black" stroke-linecap="round" stroke-linejoin="round"/>
<path d="M70.9005 18.4089C70.6973 20.5664 70.4941 22.7239 70.2909 24.8814C70.2344 25.4809 69.8548 26.7611 70.2309 27.2622C70.5027 27.6243 70.5552 28.1534 70.8038 28.5437C71.0139 28.8736 71.5821 28.9866 71.9589 29.0221C72.718 29.0936 73.5773 29.184 74.0768 28.4824C74.3696 28.0711 74.7726 27.7207 74.837 27.1941C74.9234 26.4877 75.2145 25.8025 75.2823 25.0823C75.4036 23.7947 75.5249 22.5072 75.6461 21.2196C75.6852 20.8046 75.6579 20.3838 75.6797 19.9908C75.6961 19.6963 75.8315 19.2895 75.6886 19.0242" stroke="black" stroke-linecap="round" stroke-linejoin="round"/>
<path d="M78.2786 19.4324C80.7481 19.665 83.2177 19.8976 85.6873 20.1302" stroke="black" stroke-linecap="round" stroke-linejoin="round"/>
<path d="M82.1637 20.0448C81.8678 23.1858 81.4895 26.3303 81.1927 29.4812" stroke="black" stroke-linecap="round" stroke-linejoin="round"/>
<path d="M94.2779 117.614L72.5 136.438L63.6149 143.051L58.1049 146.29L46.8012 138.279L28.75 122.25L10.5551 104.755L6 99.375L3.01294 94.8185L6.44671 89.7172L13.6875 81.1875L21.6234 73.4817L41.1312 55.6686L68.0261 33.8417L83.9375 22.1875L88.7289 19.5776L93.0625 21.3125L97.3371 24.0608L112.875 35.1314L133.468 53.6782L141.875 62.5625L145.538 68.4984L141.496 73.6976L122.625 92.5L94.2779 117.614Z" fill="#799FD8"/>
<path d="M144.999 76.5452L145.531 69.3438L130.348 84.8829L109.859 103.661L76.6611 132.592L67.2188 140.188L58.2535 146.303L50.0312 141.062L41.045 133.741L22.297 116.401L3.25 96.1562L2.375 100.938L26.75 124.562L52 146.844L57.8716 150.766L66.3125 145.219L74.8384 138.131L100.679 116.363L124.438 96.0938L144.999 76.5452Z" fill="white"/>
<path d="M3.05287 95.3009C10.4468 106.737 53.176 145.525 58.2473 146.229M3.05287 95.3009C10.5113 77.5738 80.6793 22.9454 87.8489 19.6427C95.8077 18.163 145.055 61.2679 145.508 68.5988M3.05287 95.3009L2.57397 100.898C4.28086 104.622 53.1976 149.218 57.8592 150.765M58.2473 146.229C64.4423 144.846 142.523 76.6483 145.508 68.5988M58.2473 146.229C58.6266 147.32 58.8333 148.85 57.8592 150.765M145.508 68.5988C145.336 70.6096 145.488 75.1464 144.802 76.8433C144.117 78.5402 65.2951 148.295 57.8592 150.765" stroke="black"/>
<path d="M82.9102 30.0286C82.7204 32.1272 82.986 34.3189 83.3456 36.3872C83.3674 36.5126 83.5079 37.6048 83.2921 37.6148C82.9223 37.6319 82.4541 37.2603 82.0651 37.2118C81.8558 37.1857 81.6397 37.0938 81.4324 37.086C80.886 37.0654 80.2921 36.9464 79.743 36.8831C79.3298 36.8355 78.9176 36.8169 78.5011 36.8025C78.1485 36.7902 77.811 36.7178 77.4781 36.6905C77.2244 36.6697 76.9124 36.6902 76.6749 36.6157" stroke="black" stroke-linecap="round" stroke-linejoin="round"/>
<path d="M93.2538 39.4044C92.5618 39.0684 91.9331 38.6984 91.1724 38.5472C90.5486 38.4232 89.8006 38.5935 89.1842 38.6957C87.953 38.8998 86.669 39.4463 85.8076 40.3389C85.4712 40.6876 85.1348 41.0362 84.7983 41.3848C84.5298 41.6631 84.0766 42.3764 84.1723 42.7871C84.2339 43.0516 84.1269 43.4702 84.1451 43.7573C84.1664 44.0937 84.2318 44.3058 84.3723 44.5893C84.6214 45.0918 84.98 45.4787 85.3819 45.8665C85.7117 46.1848 86.1325 46.2902 86.4736 46.5563C86.6799 46.7174 87.3062 46.9974 87.5632 46.9412C87.8015 46.8891 88.1611 47.0539 88.4217 47.0493C88.669 47.0449 88.8695 46.8624 89.1034 46.8452C89.688 46.8023 90.2287 46.3987 90.7493 46.1443C91.3129 45.869 91.7741 45.4915 92.1958 45.0221C92.6296 44.5391 92.7359 43.7822 93.0721 43.2418C93.4624 42.6144 93.4933 41.8963 93.6904 41.2126C93.8308 40.7256 93.7614 40.1366 93.3837 39.7721" stroke="black" stroke-linecap="round" stroke-linejoin="round"/>
<path d="M98.0234 44.0067C96.2614 45.3982 94.7638 47.259 93.2035 48.8759C92.6002 49.5011 92.0395 50.1869 91.872 51.0652C91.7105 51.9114 92.1064 52.9196 92.9935 53.2381C93.8075 53.5304 94.8918 53.6216 95.6571 53.1152C96.6219 52.4769 97.3202 51.5704 98.2139 50.8493C99.4419 49.8586 100.5 48.5993 101.6 47.4584" stroke="black" stroke-linecap="round" stroke-linejoin="round"/>
<path d="M103.483 49.2754C104.933 50.6747 106.181 52.2426 107.631 53.6421C107.956 53.955 108.28 54.2679 108.604 54.5808C108.77 54.7405 109.414 54.9961 109.326 55.2772" stroke="black" stroke-linecap="round" stroke-linejoin="round"/>
<path d="M106.26 52.8027C104.112 55.0287 102.046 57.2948 99.9032 59.5154" stroke="black" stroke-linecap="round" stroke-linejoin="round"/>
<path d="M111.574 56.8404C110.69 57.7214 109.761 58.5582 108.908 59.4784C108.316 60.1158 107.817 60.8593 107.216 61.4821C106.333 62.398 105.509 63.377 104.615 64.304" stroke="black" stroke-linecap="round" stroke-linejoin="round"/>
<path d="M111.579 57.0867C112.621 57.8472 113.522 58.7201 114.447 59.6123C115.204 60.3428 114.643 61.195 114.034 61.8263C113.667 62.2065 113.457 62.4849 112.938 62.6133C112.057 62.8312 111.778 62.4374 111.006 62.0481C110.267 61.6761 109.641 61.2769 109.053 60.7089" stroke="black" stroke-linecap="round" stroke-linejoin="round"/>
<path d="M117.22 62.1675C115.615 63.8305 114.01 65.4935 112.406 67.1566C111.96 67.6187 110.791 68.4331 110.772 69.1011C110.757 69.5836 110.449 70.0596 110.396 70.5503C110.352 70.965 110.75 71.4373 111.041 71.7175C111.626 72.2822 112.282 72.9292 113.165 72.6767C113.683 72.5288 114.252 72.5048 114.656 72.1088C115.198 71.5774 115.896 71.2 116.432 70.6449C117.39 69.6524 118.348 68.6599 119.305 67.6675C119.614 67.3475 119.871 66.9786 120.151 66.6656C120.36 66.431 120.744 66.1821 120.801 65.8659" stroke="black" stroke-linecap="round" stroke-linejoin="round"/>
<path d="M122.688 67.9292C124.592 69.7661 126.495 71.603 128.399 73.4399" stroke="black" stroke-linecap="round" stroke-linejoin="round"/>
<path d="M125.519 71.0239C123.183 73.4451 120.775 75.8143 118.432 78.243" stroke="black" stroke-linecap="round" stroke-linejoin="round"/>
</svg>
