<svg width="146" height="151" viewBox="0 0 146 151" fill="none" xmlns="http://www.w3.org/2000/svg">
<path d="M66.2296 150.5L62.7964 148.19L61.7976 146.63L61.2358 142.635L62.2346 139.014L64.2321 135.331L71.3482 127.154L78.9013 118.477L83.0835 112.423L86.704 105.556L87.5155 101.124V94.9444L85.7677 91.8233L81.3357 87.0168L76.4668 83.8332L71.4106 81.2115L65.8551 78.5898L69.9125 76.1553L72.4094 73.3464L74.1572 69.2889V65.5436L77.5904 66.3551L81.7727 68.415L86.0798 69.601L92.3844 69.9756L96.1297 68.7896L101.186 66.3551L106.305 63.9831L111.61 62.7346L115.605 63.6709L119.6 65.1067L124.532 68.415L129.9 73.3464L132.334 77.7783L133.957 82.3975V87.0168L132.334 92.7596L129.276 97.8158L124.532 102.56L118.539 106.055L112.859 107.678L108.489 107.366L106.117 107.991L101.061 110.238L95.2558 114.857L90.8239 120.038L87.2034 125.344L84.332 131.461L79.9 138.078L75.4056 143.883L69.6628 149.002L66.2296 150.5Z" fill="white"/>
<path d="M35.7366 89.0143L32.553 94.1329L30.3059 94.882L27.8402 94.3826L25.9051 92.0106L25.0624 88.7646V84.6448L30.2434 68.9457L32.6155 60.4875L33.2709 53.9956L32.0537 48.7521L30.8052 45.1629L29.6504 44.3202L26.5293 42.3851L22.784 40.887L17.9775 39.9819L14.3258 39.701L8.58301 39.3264L9.20723 38.3589L11.4544 34.5511L12.1098 32.0855L11.6417 28.5898L10.5181 26.4987L12.1098 26.093L17.759 26.4987L23.1898 25.2503L26.8726 23.5961L30.3683 20.5998L34.769 15.294L39.794 12.2977L46.8165 11.7983L54.2447 13.9207L58.7391 16.4176L62.2659 20.2565L64.3258 25.2191L64.6379 30.1504L63.2647 35.8932L60.206 41.5112L55.025 46.505L50.4994 48.1591L48.377 49.9382L44.975 53.7771L42.9151 57.7097L40.1997 65.294L39.6692 70.7247V74.5948L37.6404 83.3651L35.7366 89.0143Z" fill="white"/>
<path d="M72.9712 72.7846C70.9581 74.4568 67.0622 78.0114 66.3999 78.2841L65.543 77.7004L65.6693 75.7028L66.3076 72.4413L67.6661 69.1766L70.8644 66.6673L74.5332 65.3291L72.9712 72.7846Z" fill="#585858"/>
<path d="M65.4338 77.4663C65.3228 76.2453 66.9652 70.527 68.1492 68.8989C67.6312 70.638 66.7231 75.708 71.3483 74.0799C71.9569 75.1567 71.6082 74.4742 70.7571 75.4732C68.679 77.9128 65.5448 78.6874 65.4338 77.4663Z" fill="#343434"/>
<path d="M62.1726 147.294C70.0762 148.087 95.4834 108.842 95.4834 99.9778L109.21 107.116L106.288 107.701L101.186 109.988L96.0675 113.858L89.2415 122.117L85.1504 129.715L80.5724 137.994L74.4071 144.82L67.9095 150.17C63.3315 150.17 63.6336 148.268 62.1726 147.294Z" fill="#E7E7E7"/>
<path d="M128.691 71.9525L121.483 66.5952C129.568 74.3877 130.25 123.675 72.5853 73.4136L70.832 75.1669C70.0527 75.9462 66.6436 77.6995 66.5462 78.6736C66.4488 79.6476 67.6176 79.3554 68.7865 80.1346C69.9553 80.9139 74.1572 82.6474 78.121 84.4264C81.6479 86.3303 85.7351 92.0182 87.4884 93.7715C89.2417 95.5248 102.879 106.142 107.847 107.214C111.821 108.071 112.1 107.895 111.743 107.701L117.697 106.305L122.944 103.804L130.25 96.4989L132.685 91.8234L134.243 86.5635L133.895 82.4601L132.685 78.6736L128.691 71.9525Z" fill="#E7E7E7"/>
<path d="M74.1006 65.5009C78.0499 65.5009 79.4438 69.6825 90.5949 69.9148C101.746 70.1472 106.227 56.2666 122.422 66.8949C148.441 83.9701 124.918 109.982 108.832 107.434C98.7258 108.131 87.9232 122.07 85.6001 128.574C82.754 136.544 69.6872 150.874 66.6665 150.296C61.2074 149.251 60.7424 145.069 61.9042 140.074C63.2551 134.266 75.2621 123.696 81.1861 115.449C87.1102 107.202 87.9233 102.904 87.5748 94.6566C81.8829 84.2024 72.5905 81.9954 65.7373 78.6269M74.1006 65.5009C70.8095 65.9269 64.5292 69.1484 65.7373 78.6269M74.1006 65.5009C74.9718 73.6899 68.6992 77.3491 65.7373 78.6269" stroke="black"/>
<path d="M12.2346 32.4601C11.2021 34.396 9.20519 38.4198 8.77754 38.8414L7.88087 38.4683L7.39245 37.0694L6.87408 31.3712L8.5205 28.4807L10.9848 26.2086L12.2346 32.4601Z" fill="#585858"/>
<path d="M7.86516 38.4839C7.39204 37.5713 6.38285 32.7411 7.46425 30.9685C7.61336 32.4824 8.19422 36.7969 11.2682 34.0675C11.8291 34.5514 11.6121 34.2339 11.2682 35.2791C10.4284 37.8311 8.33829 39.3965 7.86516 38.4839Z" fill="#343434"/>
<path d="M27.3664 93.7436C33.7521 91.8542 41.0352 53.3419 38.2261 46.4619L51.1423 47.6526L49.0594 49.0323L43.0041 56.8854L40.3975 65.6237L39.6299 72.8173L38.7005 80.6944L32.7307 94.1579C29.1773 95.6087 28.8091 94.0367 27.3664 93.7436Z" fill="#E7E7E7"/>
<path d="M55.1198 14.1862L47.8273 12.3123C56.5719 15.7984 72.721 53.8377 12.0352 33.1009L11.23 35.0174C10.8721 35.8692 8.78173 38.3105 9.01481 39.0974C9.2479 39.8843 10.0625 39.2871 11.2167 39.5215C12.3709 39.7559 16.3829 40.1238 19.9596 39.8101C23.4453 40.2271 28.1086 43.4525 30.0251 44.2577C32.2241 45.1816 39.8878 48.4712 50.1154 48.1606C53.4717 47.5664 53.6328 47.3419 53.2938 47.3039L57.3971 44.445L60.7534 40.7298L64.1085 32.7443L64.7629 28.3401L64.0596 23.7671L62.4221 20.5374L60.3495 18.1372L55.1198 14.1862Z" fill="#E7E7E7"/>
<path d="M50.9491 48.019C43.3263 51.7628 39.359 66.005 39.6173 71.79C39.9338 78.8774 34.3333 94.1414 31.8055 94.6497C27.2371 95.5685 25.5508 92.4701 24.8697 88.2251C24.0776 83.289 30.0472 71.2796 32.0316 63.0011C34.016 54.7225 33.2851 51.129 30.401 44.8383C22.6701 38.5279 14.7582 39.7598 8.37142 39.3171M50.9491 48.019C64.2421 44.8991 74.2568 17.2544 48.6502 12.2471C32.7116 9.13028 33.6329 21.3238 24.9042 24.6774C16.1754 28.0311 13.7683 25.2272 10.703 26.4788M50.9491 48.019C42.6253 48.655 37.7666 47.0442 36.3777 46.1593M10.703 26.4788C8.28352 27.8524 4.42995 32.3431 8.37142 39.3171M10.703 26.4788C13.9744 32.5586 10.2655 37.3867 8.37142 39.3171" stroke="black"/>
<path d="M145.347 139.358C138.919 136.144 135.217 142.28 138.042 147.54" stroke="black"/>
<path d="M145.932 126.5C139.601 127.084 125.574 130.786 125.282 148.611" stroke="black"/>
<path d="M145.348 115.299C138.237 115.396 112.522 117.149 110.963 149.391" stroke="black"/>
<path d="M97.8982 31.8638C96.8596 35.5088 102.569 36.4976 105.116 36.4551C105.732 34.4902 105.651 34.4347 106.604 31.2333C100.174 26.8657 98.9914 28.0275 97.8982 31.8638Z" fill="#090909"/>
<path d="M116.015 16.8049C113.226 11.632 113.768 13.5722 112.1 11.9448C111.139 16.1415 108.285 25.5876 106.604 31.2333M106.604 31.2333C105.651 34.4347 105.732 34.4902 105.116 36.4551C102.569 36.4976 96.8596 35.5088 97.8982 31.8638C98.9914 28.0275 100.174 26.8657 106.604 31.2333Z" stroke="black"/>
<path d="M89.5294 17.0379C90.1605 19.3934 93.6393 18.0525 95.0313 17.1875C94.7217 15.8994 94.3463 14.3712 93.8146 12.2888C88.8217 12.0024 88.8652 14.5588 89.5294 17.0379Z" fill="#090909"/>
<path d="M94.5548 2.73817C91.2435 2.14337 92.2459 1.69617 90.7873 1.34891C91.6438 3.98304 92.8771 8.61666 93.8146 12.2888M93.8146 12.2888C94.3463 14.3712 94.7217 15.8994 95.0313 17.1875C93.6393 18.0525 90.1605 19.3934 89.5294 17.0379C88.8652 14.5588 88.8217 12.0024 93.8146 12.2888Z" stroke="black"/>
</svg>
