<svg width="108" height="151" viewBox="0 0 108 151" fill="none" xmlns="http://www.w3.org/2000/svg">
<path d="M85.7743 79.8451C85.7743 72.2836 89.8248 62.0228 91.2425 57.5672L84.5591 56.3521C82.9389 61.2802 79.8451 68.0574 79.4959 75.3896C78.821 89.5632 80.7111 100.705 84.5591 109.617C87.6375 116.745 95.0356 114.324 92.4577 109.617C87.7995 101.11 85.7743 89.3639 85.7743 79.8451Z" fill="#4ED4FF" stroke="black"/>
<path d="M28.7856 63.3949C28.5831 59.5469 26.9629 55.4964 24.735 51.2433C22.8448 50.2982 18.6188 48.6915 16.8366 49.8256C14.6088 51.2433 16.8366 52.8635 19.0644 56.509C21.2921 60.1545 21.8997 72.9137 22.3047 80.2046C22.7098 87.4956 19.2669 99.4446 16.8366 107.748C14.4063 116.052 16.8365 119.292 20.8871 114.432C22.8662 112.057 24.9376 107.951 25.7477 103.495C26.5578 99.0396 28.9881 67.2429 28.7856 63.3949Z" fill="#968DF8" stroke="black"/>
<path d="M56.8096 90.0202C54.3793 80.5015 58.4297 68.3499 56.8096 60.0463C53.5693 55.1857 49.7211 60.0463 48.911 68.9574C48.1009 77.8686 47.2907 83.3368 51.3412 93.2606C55.3917 103.184 54.1767 102.982 56.8096 109.058C59.4424 115.133 58.5897 121.028 61.6702 121.614C70.1763 123.235 64.5056 113.311 64.303 110.88C64.1005 108.45 59.2398 99.539 56.8096 90.0202Z" fill="#65A3FF" stroke="black"/>
<path d="M34.6947 89.4472C37.7421 84.8761 59.0738 82.7429 64.8639 85.1808C70.6539 87.6187 69.7397 109.255 70.6539 110.474C71.2833 111.313 70.9016 114.175 72.1939 116.175C72.7786 117.079 73.7061 117.808 75.225 118.093C80.1008 119.007 88.6335 118.397 90.1572 120.531C91.0815 121.825 81.3521 126.595 72.1939 130.148C71.6007 139.766 86.8051 134.853 84.9767 139.424C83.1483 143.996 46.401 148.262 38.3515 144.91C30.302 141.558 36.5231 139.729 41.0942 137.596C45.6654 135.463 45.3606 134.244 46.401 130.94C43.0396 129.286 40.0253 127.194 38.3515 125.102C34.6947 120.531 31.0378 91.8429 34.6947 89.4472Z" fill="#525252"/>
<path d="M38.3515 125.102C34.6947 120.531 31.0378 91.8429 34.6947 89.4472C37.7421 84.8761 59.0738 82.7429 64.8639 85.1808C70.6539 87.6187 69.7397 109.255 70.6539 110.474C71.2833 111.313 70.9016 114.175 72.1939 116.175M38.3515 125.102C40.0253 127.194 43.0396 129.286 46.401 130.94M38.3515 125.102C41.0942 120.531 62.4586 114.257 72.1939 116.175M46.401 130.94C50.384 132.9 54.8543 134.244 58.1596 134.244C60.5571 134.244 66.2554 132.452 72.1939 130.148M46.401 130.94C45.3606 134.244 45.6654 135.463 41.0942 137.596C36.5231 139.729 30.302 141.558 38.3515 144.91C46.401 148.262 83.1483 143.996 84.9767 139.424C86.8051 134.853 71.6007 139.766 72.1939 130.148M72.1939 130.148C81.3521 126.595 91.0815 121.825 90.1572 120.531C88.6335 118.397 80.1008 119.007 75.225 118.093C73.7061 117.808 72.7786 117.079 72.1939 116.175" stroke="black"/>
<path d="M106.128 56.3211C105.316 65.2602 102.873 83.5941 102.395 86.4906C101.176 93.8805 103.69 103.556 106.128 110.87C108.566 118.183 104.909 120.317 103.386 118.793C101.862 117.269 97.3123 100.62 96.9099 96.3946C95.9956 86.7953 97.0622 70.9108 98.7383 65.1588C96.5313 66.835 95.9393 66.6992 92.7254 67.8525C90.6365 68.6022 88.3671 69.2445 85.9592 69.7837C84.8231 74.1337 85.2696 111.235 87.9962 118.793C91.4045 128.24 94.4785 132.641 97.2907 137.23C100.186 141.953 101.557 149.572 97.2907 148.353C93.0244 147.134 83.8822 127.63 82.0538 118.793C80.2253 109.956 78.1483 74.1108 82.0538 70.549C75.751 71.6199 68.7319 72.0698 61.6348 71.9615C62.5495 78.1251 67.1825 96.9127 66.2074 103.251C64.9884 111.174 55.2029 123.669 53.1036 130.983C51.0043 138.296 56.7694 150.979 51.9185 150.486C44.4185 149.724 43.6266 131.452 45.1804 128.545C49.9038 119.707 53.4083 117.726 57.6747 104.318C61.941 90.9093 54.7797 78.415 51.9185 71.4694C45.2473 70.8954 43.9133 71.257 38.1714 69.7837C40.4958 77.1439 39.5427 86.4906 38.1714 92.7377C37.126 97.5002 30.8576 126.564 21.106 141.039C19.7762 143.013 12.3811 146.387 13.4875 141.039C15.3159 132.201 21.6425 125.82 24.001 120.317C30.8576 104.318 30.2482 98.9849 30.8576 90.4522C31.4671 81.9195 31.6565 77.6704 30.8576 66.9873C28.5361 66.1554 21.9616 64.612 20.0985 63.6158C18.6279 62.8295 17.9656 62.5372 16.8396 61.6543C18.3765 66.6606 18.3485 83.1209 17.7538 86.4906C16.8396 91.6712 9.3735 120.012 5.10715 123.059C0.840799 126.107 0.0540695 122.885 1.29786 118.793C6.02143 103.251 9.67831 95.4804 11.6591 88.7761C13.4456 82.7294 11.789 64.9726 11.6661 53.8894C11.6222 53.4788 11.6185 53.0696 11.6591 52.6642C18.7385 30.5833 40.1758 16.4271 61.6348 17.931C78.9719 19.146 96.3231 30.583 106.128 56.3211Z" fill="#4C4A8D"/>
<path d="M11.6591 52.6642C11.6591 63.6158 13.513 82.5012 11.6591 88.7761C9.67831 95.4804 6.02143 103.251 1.29786 118.793C0.0540695 122.885 0.840799 126.107 5.10715 123.059C9.3735 120.012 16.8396 91.6712 17.7538 86.4906C18.3485 83.1209 18.3765 66.6606 16.8396 61.6543M11.6591 52.6642C11.3445 55.8097 13.6933 59.1874 16.8396 61.6543M11.6591 52.6642C18.7385 30.5833 40.1758 16.4271 61.6348 17.931M106.128 56.3211C105.316 65.2602 102.873 83.5941 102.395 86.4906C101.176 93.8805 103.69 103.556 106.128 110.87C108.566 118.183 104.909 120.317 103.386 118.793C101.862 117.269 97.3123 100.62 96.9099 96.3946C95.9956 86.7953 97.0622 70.9108 98.7383 65.1588M106.128 56.3211C105.426 59.1643 101.41 63.1301 98.7383 65.1588M106.128 56.3211C96.3231 30.583 78.9719 19.146 61.6348 17.931M98.7383 65.1588C96.5313 66.835 95.9393 66.6992 92.7254 67.8525M85.9592 69.7837C84.8231 74.1337 85.2696 111.235 87.9962 118.793C91.4045 128.24 94.4785 132.641 97.2907 137.23C100.186 141.953 101.557 149.572 97.2907 148.353C93.0244 147.134 83.8822 127.63 82.0538 118.793C80.2253 109.956 78.1483 74.1108 82.0538 70.549M85.9592 69.7837C84.6936 70.0671 83.3898 70.322 82.0538 70.549M85.9592 69.7837C88.3671 69.2445 90.6365 68.6022 92.7254 67.8525M82.0538 70.549C75.751 71.6199 68.7319 72.0698 61.6348 71.9615M16.8396 61.6543C17.9656 62.5372 18.6279 62.8295 20.0985 63.6158M30.8576 66.9873C31.6565 77.6704 31.4671 81.9195 30.8576 90.4522C30.2482 98.9849 30.8576 104.318 24.001 120.317C21.6425 125.82 15.3159 132.201 13.4875 141.039C12.3811 146.387 19.7762 143.013 21.106 141.039C30.8576 126.564 37.126 97.5002 38.1714 92.7377C39.5427 86.4906 40.4958 77.1439 38.1714 69.7837M30.8576 66.9873C32.9184 67.7257 35.8281 69.1825 38.1714 69.7837M30.8576 66.9873C28.5361 66.1554 21.9616 64.612 20.0985 63.6158M38.1714 69.7837C43.9133 71.257 45.2473 70.8954 51.9185 71.4694M51.9185 71.4694C54.7797 78.415 61.941 90.9093 57.6747 104.318C53.4083 117.726 49.9038 119.707 45.1804 128.545C43.6266 131.452 44.4185 149.724 51.9185 150.486C56.7694 150.979 51.0043 138.296 53.1036 130.983C55.2029 123.669 64.9884 111.174 66.2074 103.251C67.1825 96.9127 62.5495 78.1251 61.6348 71.9615M51.9185 71.4694C53.3075 71.589 54.7049 71.6878 56.1057 71.7656M61.6348 71.9615C59.7933 71.9334 57.9465 71.8678 56.1057 71.7656M92.7254 67.8525C88.7581 58.7593 90.2431 40.7932 61.6348 17.931M61.6348 17.931C57.6717 25.861 56.151 63.6158 56.1057 71.7656M61.6348 17.931C25.9788 33.4794 26.4019 52.6642 20.0985 63.6158M61.6348 17.931V0.5" stroke="black"/>
<path d="M11.6591 52.6641C11.6591 53.0623 11.6615 53.471 11.6661 53.8892C11.9631 56.665 14.0987 59.5051 16.8396 61.6542C18.3765 66.6604 18.3485 83.1207 17.7538 86.4904C16.8396 91.671 9.3735 120.012 5.10715 123.059C0.8408 126.107 0.0540695 122.885 1.29786 118.793C6.02143 103.251 9.67831 95.4802 11.6591 88.776C13.4456 82.7292 11.789 64.9725 11.6661 53.8892C11.6222 53.4786 11.6185 53.0694 11.6591 52.6641Z" fill="#7EE0FF" stroke="black"/>
<path d="M30.8578 90.4522C31.4673 81.9195 31.6566 77.6705 30.8578 66.9873C32.9186 67.7257 35.8283 69.1826 38.1715 69.7838C40.496 77.1439 39.5428 86.4906 38.1715 92.7378C37.1261 97.5002 30.8578 126.564 21.1061 141.039C19.7763 143.013 12.3812 146.387 13.4876 141.039C15.316 132.202 21.6427 125.82 24.0011 120.317C30.8578 104.318 30.2483 98.9849 30.8578 90.4522Z" fill="#88A1F8" stroke="black"/>
<path d="M57.675 104.318C61.9413 90.9096 54.7799 78.4153 51.9188 71.4697C53.3078 71.5893 54.7052 71.6881 56.1059 71.7659C57.9468 71.8681 59.7935 71.9337 61.6351 71.9618C62.5498 78.1254 67.1828 96.913 66.2077 103.252C64.9887 111.175 55.2032 123.669 53.1039 130.983C51.0046 138.297 56.7697 150.979 51.9188 150.486C44.4188 149.724 43.6269 131.452 45.1806 128.545C49.9041 119.707 53.4086 117.727 57.675 104.318Z" fill="#75D2EF" stroke="black"/>
<path d="M102.396 86.4903C102.873 83.5938 105.316 65.2599 106.129 56.3208C105.427 59.164 101.41 63.1297 98.7386 65.1585C97.0626 70.9105 95.996 86.795 96.9102 96.3943C97.3126 100.62 101.862 117.269 103.386 118.793C104.91 120.316 108.566 118.183 106.129 110.869C103.691 103.556 101.177 93.8802 102.396 86.4903Z" fill="#5EBBFF" stroke="black"/>
<path d="M88.0032 15.1055C92.879 16.7815 99.8118 21.8097 102.097 26.9903" stroke="black"/>
<path d="M13.3752 30.6092C15.6209 24.6287 25.982 16.096 37.2574 14.5723" stroke="black"/>
<path d="M9.14526 23.2572C13.4878 14.5721 21.1063 11.0676 25.8297 11.0676" stroke="black"/>
<path d="M95.7673 10.3057C99.5766 10.3057 107.195 15.1815 107.5 20.3621" stroke="black"/>
</svg>
