<svg width="152" height="133" viewBox="0 0 152 133" fill="none" xmlns="http://www.w3.org/2000/svg">
<path d="M68.169 105.141C60.8434 115.249 48.1719 125.178 46.8122 126.061C45.5205 125.291 42.7187 123.547 43.0826 123.225C50.2808 116.843 62.81 102.98 63.8433 101.499C64.2438 100.925 68.57 104.588 68.169 105.141Z" fill="#868686"/>
<path d="M24.187 75.1862C24.255 75.8661 6.71056 94.535 5.35086 95.4188C4.05915 94.6483 2.10118 92.9986 1.88363 92.5635C1.61169 92.0196 19.8316 73.7997 20.4434 73.4598C21.0553 73.1199 24.119 74.5064 24.187 75.1862Z" fill="#868686"/>
<path d="M46.6178 132.335C45.462 131.995 7.96826 105.749 1.53076 97.8738L2.08776 92.4277L2.83559 93.7194C4.98844 94.8072 5.06081 94.2749 4.84326 94.7644C4.57132 95.3763 5.59326 93.7421 5.59326 95.3738C5.59326 96.6791 36.6693 119.078 46.6178 126.012C54.0281 120.324 67.6251 107.452 68.3729 104.869C68.8488 105.957 69.5966 106.637 68.8488 109.9C68.0358 113.447 47.7735 132.675 46.6178 132.335Z" fill="#4E4E4E"/>
<path d="M2.41197 92.2685C11.0484 83.1278 15.3103 76.1865 20.6407 73.7035C21.7812 73.1722 23.3922 73.9748 24.3636 74.7745M2.41197 92.2685C1.54336 93.1878 1.22681 95.4189 1.68569 97.9183C2.41177 101.873 43.0098 130.606 46.5612 132.462M2.41197 92.2685C2.41197 93.802 3.99205 94.3031 5.07537 95.0934M46.5612 126.328C49.7895 124.15 61.3313 114.868 68.5026 104.454M46.5612 126.328C47.126 128.912 46.5612 130.067 46.5612 132.462M46.5612 126.328C44.9884 125.154 44.1066 124.496 42.5338 123.321M68.5026 104.454C69.1482 105.665 69.3075 108.271 68.3935 110.348C66.6177 114.384 47.9144 133.425 46.5612 132.462M68.5026 104.454C66.404 102.921 65.7511 102.604 63.9881 101.419M42.5338 123.321C51.8073 114.948 55.6694 111.638 63.9881 101.419M42.5338 123.321C27.6595 112.47 8.86881 98.9676 5.07537 95.0934M63.9881 101.419C48.5138 91.0134 39.8379 85.1796 24.3636 74.7745M5.07537 95.0934C9.11094 93.1563 21.69 78.8687 24.3636 74.7745" stroke="black"/>
<path d="M63.9882 101.418C55.6694 111.638 51.8074 114.948 42.5339 123.321C27.6596 112.47 8.86888 98.9675 5.07544 95.0933C9.11101 93.1563 21.6901 78.8686 24.3637 74.7744L63.9882 101.418Z" fill="white" stroke="black"/>
<path d="M73.0347 66.3217C71.9585 69.6092 67.9983 78.2388 60.7665 86.4575C62.0579 79.597 65.6414 65.993 64.4792 64.678C63.0264 63.0343 58.5066 60.5687 57.2152 57.8977C55.9238 55.2266 52.5339 17.257 57.2152 5.13453C64.479 -2.31525 141.117 2.28001 145.604 3.77562C151.279 5.6674 154.715 62.2124 144.222 66.3217C135.828 69.6092 94.773 67.6915 73.0347 66.3217Z" fill="white" stroke="black"/>
<path d="M82.3622 50.4382C84.4252 50.4382 85.696 55.0517 82.3623 55.0517C79.7787 55.0517 79.1387 50.4382 82.3622 50.4382Z" fill="#4F4F4F" stroke="black"/>
<path d="M107.034 50.1545C109.258 50.1545 110.867 54.986 107.034 54.986C104.281 54.986 103.628 50.1545 107.034 50.1545Z" fill="#4F4F4F" stroke="black"/>
<path d="M77.9653 51.9505C77.1548 51.9505 69.3497 52.4272 68.9683 51.9505C68.8114 51.7544 68.5255 48.7679 68.2896 45.2431C67.952 40.1978 68.3895 35.4679 68.7824 34.8223C69.4499 33.7257 78.3656 34.1554 79.0807 34.0601C79.7959 33.9647 78.6517 32.3437 79.7959 32.0099C80.9402 31.6762 95.3864 31.7716 96.1969 32.01C97.0074 32.2484 97.6749 34.0601 98.9145 34.0601C100.154 34.0601 118.605 33.6781 120.274 34.8223C121.943 35.9665 121.413 49.2328 121.032 50.6154C120.934 50.9682 120.391 51.2061 119.601 51.3649C117.965 51.6938 115.268 51.6826 113.282 51.6485C112.47 51.6345 111.776 51.6167 111.323 51.6167C111.323 47.5731 102.586 46.1815 102.586 51.6167C101.75 51.7577 100.731 51.854 99.6062 51.9183C98.1743 52.0001 96.5722 52.0298 94.9616 52.0335C93.441 52.037 91.9129 52.0172 90.5136 51.9961C89.0502 51.974 87.7277 51.9505 86.7018 51.9505C86.7018 48.1846 78.5374 46.5635 77.9653 51.9505Z" fill="#BE3535"/>
<path d="M90.5136 51.9961C89.0502 51.974 87.7277 51.9505 86.7018 51.9505C86.7018 48.1846 78.5374 46.5635 77.9653 51.9505C77.1548 51.9505 69.3497 52.4272 68.9683 51.9505C68.8114 51.7544 68.5255 48.7679 68.2896 45.2431C67.952 40.1978 68.3895 35.4679 68.7824 34.8223C69.4499 33.7257 78.3656 34.1554 79.0807 34.0601C79.7959 33.9647 78.6517 32.3437 79.7959 32.0099C80.9402 31.6762 95.3864 31.7716 96.1969 32.01C97.0074 32.2484 97.6749 34.0601 98.9145 34.0601C100.154 34.0601 118.605 33.6781 120.274 34.8223C121.943 35.9665 121.413 49.2328 121.032 50.6154C120.934 50.9682 120.391 51.2061 119.601 51.3649M90.5136 51.9961C91.9129 52.0172 93.441 52.037 94.9616 52.0335M90.5136 51.9961C90.5138 50.8961 90.4401 48.0668 90.4243 45.2431M90.8847 38.0736C91.2446 37.9194 92.9272 37.6653 94.6422 37.5659M90.8847 38.0736C90.4744 38.2495 90.4047 41.7419 90.4243 45.2431M90.8847 38.0736C89.8768 38.0736 87.4903 38.0412 84.6885 38.0019M98.6681 38.0736C98.3139 37.5287 96.4599 37.4605 94.6422 37.5659M98.6681 38.0736C99.0017 38.5868 99.2661 41.7309 99.4336 44.8951M98.6681 38.0736C98.9835 37.8657 102.41 37.7391 105.869 37.6643M99.6062 51.9183C100.731 51.854 101.75 51.7577 102.586 51.6167C102.586 46.1815 111.323 47.5731 111.323 51.6167C111.776 51.6167 112.47 51.6345 113.282 51.6485M99.6062 51.9183C98.1743 52.0001 96.5722 52.0298 94.9616 52.0335M99.6062 51.9183C99.6804 51.6472 99.6118 48.2598 99.4336 44.8951M94.6422 37.5659L94.9616 52.0335M113.282 51.6485C115.268 51.6826 117.965 51.6938 119.601 51.3649M113.282 51.6485C113.199 49.9823 113.103 47.2662 113.055 44.6607M113.282 37.5659C113.864 37.0581 118.312 37.5659 118.736 37.5659C119.159 37.5659 119.601 51.3649 119.601 51.3649M113.282 37.5659C113.014 37.7996 112.99 41.1285 113.055 44.6607M113.282 37.5659C112.922 37.5659 109.379 37.5884 105.869 37.6643M113.055 44.6607C111.183 44.6743 108.526 44.6983 106.056 44.7295M99.4336 44.8951C99.4944 44.8314 102.593 44.7733 106.056 44.7295M90.4243 45.2431C89.8626 45.21 87.5777 45.1582 84.6885 45.115M105.869 37.6643C105.737 38.0736 105.846 44.7322 106.056 44.7295M84.6885 38.0019C84.5574 38.413 84.5018 44.9869 84.6885 45.115M84.6885 38.0019C82.1438 37.9662 79.2564 37.9248 76.7479 37.8968M84.6885 45.115C82.2481 45.0786 79.3766 45.0483 76.7479 45.0406M76.7479 37.8968C73.24 37.8577 70.4731 37.8447 70.4202 37.91C70.2878 38.0736 70.8173 45.0845 70.8402 45.0839C72.3177 45.0446 74.4392 45.0339 76.7479 45.0406M76.7479 37.8968C76.5886 38.3601 76.5101 44.8381 76.7479 45.0406" stroke="black"/>
<path d="M90.8849 38.0737C91.2448 37.9195 92.9274 37.6654 94.6424 37.566C96.4601 37.4606 98.3142 37.5289 98.6683 38.0737C98.9837 37.8658 102.41 37.7392 105.869 37.6644C109.379 37.5885 112.922 37.566 113.282 37.566C113.864 37.0583 118.312 37.566 118.736 37.566C119.159 37.566 119.602 51.365 119.602 51.365C117.965 51.6939 115.268 51.6828 113.282 51.6486C113.2 49.9825 113.103 47.2663 113.055 44.6609C111.183 44.6745 108.527 44.6984 106.056 44.7297C102.593 44.7735 99.4946 44.8315 99.4339 44.8953C99.612 48.2599 99.6806 51.6473 99.6065 51.9184C98.1746 52.0002 96.5724 52.0299 94.9619 52.0336C93.4412 52.0371 91.9132 52.0173 90.5139 51.9962C90.514 50.8962 90.4403 48.0669 90.4245 45.2433C89.8628 45.2101 87.578 45.1583 84.6887 45.1151C82.2484 45.0787 79.3768 45.0484 76.7482 45.0408C74.4394 45.034 72.318 45.0447 70.8405 45.0841C70.8175 45.0847 70.288 38.0737 70.4204 37.9102C70.4733 37.8448 73.2403 37.8578 76.7482 37.897C79.2566 37.925 82.144 37.9664 84.6887 38.002C87.4906 38.0413 89.877 38.0737 90.8849 38.0737Z" fill="#E6E6E6"/>
<path d="M90.8849 38.0737C91.2448 37.9195 92.9274 37.6654 94.6424 37.566M90.8849 38.0737C90.4746 38.2496 90.405 41.7421 90.4245 45.2433M90.8849 38.0737C89.877 38.0737 87.4906 38.0413 84.6887 38.002M98.6683 38.0737C98.3142 37.5289 96.4601 37.4606 94.6424 37.566M98.6683 38.0737C99.0019 38.587 99.2663 41.7311 99.4339 44.8953M98.6683 38.0737C98.9837 37.8658 102.41 37.7392 105.869 37.6644M94.6424 37.566L94.9619 52.0336M94.9619 52.0336C96.5724 52.0299 98.1746 52.0002 99.6065 51.9184C99.6806 51.6473 99.612 48.2599 99.4339 44.8953M94.9619 52.0336C93.4413 52.0371 91.9132 52.0173 90.5139 51.9962C90.514 50.8962 90.4403 48.0669 90.4245 45.2433M113.282 37.566C113.864 37.0583 118.312 37.566 118.736 37.566C119.159 37.566 119.602 51.365 119.602 51.365C117.965 51.6939 115.268 51.6828 113.282 51.6486C113.2 49.9825 113.103 47.2663 113.055 44.6609M113.282 37.566C113.014 37.7998 112.99 41.1286 113.055 44.6609M113.282 37.566C112.922 37.566 109.379 37.5885 105.869 37.6644M113.055 44.6609C111.183 44.6745 108.527 44.6984 106.056 44.7297M99.4339 44.8953C99.4946 44.8315 102.593 44.7735 106.056 44.7297M90.4245 45.2433C89.8628 45.2101 87.578 45.1583 84.6887 45.1151M105.869 37.6644C105.737 38.0737 105.846 44.7323 106.056 44.7297M84.6887 38.002C84.5576 38.4132 84.5021 44.987 84.6887 45.1151M84.6887 38.002C82.144 37.9664 79.2566 37.925 76.7482 37.897M84.6887 45.1151C82.2484 45.0787 79.3768 45.0484 76.7482 45.0408M76.7482 37.897C73.2403 37.8578 70.4733 37.8448 70.4204 37.9102C70.288 38.0737 70.8175 45.0847 70.8405 45.0841C72.318 45.0447 74.4394 45.034 76.7482 45.0408M76.7482 37.897C76.5889 38.3602 76.5103 44.8382 76.7482 45.0408" stroke="black"/>
<path d="M131.006 17.8734C130.92 14.3943 128.471 10.8955 124.182 10.8955C119.255 10.8955 116.621 14.5368 116.591 18.0838C116.564 21.4517 118.885 24.7346 123.824 24.7346C128.866 24.7346 131.091 21.3136 131.006 17.8734Z" fill="#F0F1AE"/>
<path d="M123.824 24.7346C128.866 24.7346 131.091 21.3136 131.006 17.8734M123.824 24.7346V23.2731M123.824 24.7346C118.885 24.7346 116.564 21.4517 116.591 18.0838M124.182 10.8955C128.471 10.8955 130.92 14.3943 131.006 17.8734M124.182 10.8955V12.5359M124.182 10.8955C119.255 10.8955 116.621 14.5368 116.591 18.0838M131.006 17.8734H129.699M116.591 18.0838H117.918" stroke="black"/>
<path d="M125.494 15.071L123.197 17.6062L127.492 21.3941" stroke="black"/>
<path d="M136.914 54.7478C136.496 54.9864 132.171 55.1358 131.336 54.7478C130.978 54.2708 133.633 51.0795 134.468 51.0795C135.255 51.0795 137.331 54.5092 136.914 54.7478Z" fill="#575757"/>
<path d="M137.513 39.1791H134.468H131.008V36.5544H137.513V39.1791Z" fill="#575757"/>
<path d="M134.468 51.0795C135.255 51.0795 137.331 54.5092 136.914 54.7478C136.496 54.9864 132.171 55.1358 131.336 54.7478C130.978 54.2708 133.633 51.0795 134.468 51.0795ZM134.468 51.0795C134.468 50.817 134.468 43.0365 134.468 39.1791M134.468 39.1791C134.897 39.1791 136.877 39.1791 137.513 39.1791M134.468 39.1791H131.008V36.5544H137.513V39.1791M134.468 39.1791H137.513" stroke="black"/>
<path d="M58.547 112.069C59.5961 113.118 57.5932 116.17 55.9242 114.834C54.0252 113.315 55.7335 110.304 58.547 112.069Z" stroke="black"/>
<path d="M137.513 36.5544V39.1791H134.468H131.008V36.5544H137.513Z" fill="#4597D2" stroke="black"/>
<path d="M40.3386 104.988C44.0098 105.736 44.4177 102.065 44.2817 99.7532" stroke="black"/>
<path d="M36.7244 90.9087C37.0187 92.5276 38.4904 94.7351 38.9319 92.8219C39.3734 90.9087 36.7244 88.9955 36.7244 90.9087Z" fill="black"/>
<path d="M27.7822 100.944C29.2905 100.315 31.3015 103.709 29.5419 103.96C27.7822 104.212 26.9704 100.944 27.7822 100.944Z" fill="black"/>
</svg>
