<svg width="20" height="14" viewBox="0 0 20 14" fill="none" xmlns="http://www.w3.org/2000/svg">
<path d="M18.684 0.986932C19.4819 1.45253 13.323 12.9505 12.7274 12.6358C11.746 12.1175 9.89449 11.0977 9.31042 10.7754M18.684 0.986932C17.8862 0.521321 1.46452 5.89583 1.46484 6.42796C1.46521 7.02576 5.37226 8.76797 6.78575 9.37668M18.684 0.986932L6.78575 9.37668M6.78575 9.37668C6.78575 9.37668 6.586 13.1569 6.78575 13.4118C6.98551 13.6668 9.31042 10.7754 9.31042 10.7754M6.78575 9.37668L7.16464 9.5671L8.91146 10.5547L9.12915 10.6753C9.12915 10.6753 9.19506 10.7118 9.31042 10.7754" stroke="black"/>
</svg>
