<svg width="124" height="44" viewBox="0 0 124 44" fill="none" xmlns="http://www.w3.org/2000/svg">
<path d="M2.04279 30.4916C1.94412 30.1501 1.96064 29.8414 2.09235 29.5654C2.23219 29.2872 2.43085 29.0448 2.68832 28.8382C2.95158 28.6212 3.24808 28.443 3.57783 28.3037C3.90524 28.1562 4.20717 28.0426 4.48362 27.9627C5.01213 27.81 5.48581 27.7877 5.90465 27.8957C6.32928 27.9932 6.70069 28.1811 7.0189 28.4591C7.34524 28.7348 7.6218 29.0822 7.84858 29.5012C8.07537 29.9202 8.25572 30.3615 8.38963 30.8249C8.4789 31.1339 8.5521 31.5092 8.60922 31.9508C8.66399 32.3843 8.69093 32.8434 8.69005 33.3282C8.68682 33.8048 8.65106 34.2909 8.58279 34.7864C8.52029 35.2713 8.41352 35.7251 8.26248 36.1475C8.1091 36.5618 7.90439 36.9205 7.64837 37.2235C7.40048 37.5242 7.08952 37.7286 6.71549 37.8367C6.64232 37.8578 6.52468 37.7861 6.3626 37.6215C6.20629 37.4464 6.01493 37.211 5.78851 36.9152C5.57023 36.6171 5.32971 36.2725 5.06697 35.8815C4.81001 35.48 4.54953 35.0663 4.28552 34.6405C4.01917 34.2065 3.76094 33.7701 3.51085 33.3314C3.26075 32.8927 3.02936 32.4882 2.81667 32.118C2.61211 31.7454 2.44198 31.4158 2.30627 31.129C2.17056 30.8423 2.08273 30.6298 2.04279 30.4916ZM3.25596 30.8943C3.33114 31.1545 3.43315 31.4465 3.562 31.7705C3.69898 32.0921 3.85574 32.4213 4.03229 32.7579C4.21697 33.0921 4.41909 33.4258 4.63864 33.7588C4.86398 34.0813 5.0997 34.3788 5.34581 34.6513C5.59192 34.9237 5.85014 35.1619 6.12046 35.3657C6.38843 35.5613 6.66553 35.6971 6.95174 35.773C7.11543 35.3028 7.25427 34.8839 7.36827 34.5162C7.48227 34.1485 7.55967 33.7913 7.6005 33.4448C7.64132 33.0982 7.63967 32.7419 7.59557 32.3758C7.55959 32.0074 7.47465 31.5915 7.34074 31.128C7.24442 30.7946 7.13012 30.4753 6.99784 30.1699C6.86556 29.8645 6.69507 29.6099 6.48636 29.4059C6.28343 29.1914 6.03886 29.0462 5.75265 28.9704C5.46408 28.8863 5.12059 28.9019 4.72218 29.017C4.39694 29.111 4.0951 29.2555 3.81667 29.4504C3.54402 29.6349 3.28889 29.8496 3.0513 30.0945C3.05834 30.1188 3.06837 30.1688 3.08139 30.2443C3.10253 30.3175 3.12602 30.3988 3.15187 30.4883C3.17536 30.5696 3.19479 30.6521 3.21015 30.7357C3.23129 30.8089 3.24657 30.8617 3.25596 30.8943ZM9.69695 33.5658C9.57009 33.1268 9.49608 32.6724 9.47492 32.2028C9.45375 31.7332 9.5065 31.2907 9.63314 30.8753C9.76792 30.4575 9.98653 30.086 10.289 29.7608C10.5996 29.4332 11.0191 29.193 11.5476 29.0403C11.8485 28.9534 12.1292 28.9339 12.3897 28.982C12.648 29.0219 12.8801 29.109 13.0863 29.2432C13.2925 29.3775 13.4674 29.556 13.6111 29.7788C13.7605 29.9911 13.8728 30.2273 13.948 30.4875C14.0678 30.9022 14.0865 31.3329 14.0042 31.7795C13.9299 32.2238 13.7736 32.6434 13.5353 33.0382C13.3028 33.4226 13.0015 33.7519 12.6315 34.0262C12.2591 34.2924 11.8457 34.4471 11.3912 34.4903C11.4675 34.7237 11.6 34.8925 11.7886 34.9965C11.983 35.0901 12.1965 35.143 12.4291 35.1551C12.6616 35.1672 12.8952 35.1525 13.13 35.1111C13.3623 35.0616 13.5679 35.011 13.7468 34.9593C13.9338 34.9053 14.1039 34.8385 14.2572 34.759C14.4104 34.6795 14.5624 34.5959 14.7133 34.5083C14.8642 34.4206 15.0162 34.3371 15.1695 34.2575C15.3308 34.1757 15.505 34.1077 15.692 34.0537C15.7652 34.0326 15.8395 34.0155 15.9151 34.0025C15.9906 33.9895 16.0656 33.9898 16.14 34.0035C16.2121 34.0091 16.2779 34.0386 16.3373 34.0919C16.3944 34.1371 16.4359 34.2044 16.4617 34.2938C16.5064 34.4483 16.4871 34.5948 16.4038 34.7334C16.3181 34.8639 16.1964 34.9916 16.0387 35.1164C15.8891 35.2389 15.7145 35.3511 15.5148 35.4528C15.3128 35.5464 15.1137 35.6348 14.9175 35.7179C14.727 35.7905 14.5464 35.8515 14.3757 35.9009C14.2154 35.956 14.0946 35.9953 14.0133 36.0188C13.4929 36.1691 13.0019 36.2229 12.5402 36.1801C12.0762 36.1292 11.6596 35.9985 11.2905 35.788C10.919 35.5694 10.5961 35.275 10.3218 34.905C10.0532 34.5245 9.84496 34.0781 9.69695 33.5658ZM10.7607 32.3995C10.8429 32.6841 10.9394 32.8809 11.0502 32.9898C11.1691 33.0964 11.379 33.1063 11.6798 33.0193C11.8912 32.9583 12.088 32.8618 12.2701 32.7299C12.4499 32.5898 12.6011 32.4272 12.7238 32.242C12.8546 32.0544 12.9418 31.853 12.9853 31.6378C13.0289 31.4226 13.0189 31.2052 12.9555 30.9857C12.9202 30.8637 12.8716 30.7412 12.8097 30.6182C12.7558 30.4928 12.6811 30.3866 12.5855 30.2997C12.4876 30.2047 12.3763 30.1399 12.2518 30.1054C12.1331 30.0604 11.9925 30.0614 11.8298 30.1084C11.5859 30.1789 11.3788 30.3004 11.2084 30.473C11.0438 30.6351 10.9182 30.8255 10.8317 31.0444C10.7428 31.255 10.6935 31.4807 10.6837 31.7214C10.6716 31.954 10.6973 32.18 10.7607 32.3995ZM15.4378 28.9206C15.4308 28.8962 15.4289 28.8747 15.4324 28.8561C15.4277 28.8398 15.4259 28.8183 15.427 28.7916C15.4477 28.7415 15.4812 28.6746 15.5275 28.5907C15.5738 28.5069 15.605 28.4626 15.6213 28.4579L18.0728 27.7496C18.0469 27.6602 17.9936 27.5214 17.9128 27.3333C17.832 27.1452 17.7454 26.9368 17.6529 26.708C17.5685 26.4769 17.4939 26.2342 17.4292 25.9798C17.3622 25.7172 17.3278 25.4761 17.3259 25.2564C17.3299 25.0262 17.3781 24.8272 17.4706 24.6596C17.5689 24.4814 17.74 24.3571 17.984 24.2866C18.2213 25.1078 18.4685 25.75 18.7256 26.2131C18.9827 26.6762 19.2436 27.0149 19.5081 27.2291C19.7808 27.4411 20.0508 27.5525 20.3183 27.5633C20.5857 27.5741 20.8443 27.5391 21.094 27.4581C21.3495 27.3667 21.5898 27.2532 21.8149 27.1176C22.04 26.9821 22.2426 26.8751 22.4225 26.7967C22.6106 26.7159 22.771 26.6916 22.9036 26.7238C23.0339 26.7478 23.1319 26.8737 23.1977 27.1013C23.2471 27.2721 23.2416 27.4058 23.1815 27.5025C23.1294 27.5968 22.9995 27.696 22.7917 27.8001C22.729 27.827 22.624 27.875 22.4765 27.944C22.3349 28.0025 22.1729 28.067 21.9906 28.1373C21.8083 28.2076 21.6149 28.2855 21.4106 28.3709C21.2039 28.4483 21.0094 28.5221 20.827 28.5924C20.6447 28.6627 20.4775 28.7242 20.3254 28.777C20.1709 28.8216 20.057 28.8545 19.9839 28.8757C19.9956 28.9163 20.0115 28.9866 20.0316 29.0865C20.0516 29.1864 20.0664 29.2527 20.0758 29.2852C20.1791 29.6429 20.3371 29.9761 20.5496 30.2847C20.7597 30.5852 20.978 30.8833 21.2044 31.1791C21.439 31.4726 21.6613 31.7695 21.8715 32.07C22.0817 32.3705 22.2384 32.6996 22.3418 33.0573C22.3606 33.1224 22.3724 33.1939 22.3773 33.2717C22.388 33.3391 22.3812 33.4072 22.357 33.4758C22.3386 33.534 22.2963 33.5859 22.2302 33.6314C22.1745 33.6827 22.0798 33.7057 21.9461 33.7003C21.6136 33.7082 21.3314 33.6004 21.0994 33.3767C20.8755 33.1507 20.6741 32.8653 20.4952 32.5205C20.314 32.1676 20.1512 31.7874 20.007 31.3797C19.8628 30.9721 19.7106 30.5976 19.5503 30.2563C19.3958 29.9045 19.2252 29.6191 19.0385 29.3999C18.8495 29.1726 18.6208 29.0669 18.3522 29.0828L15.8433 29.2263C15.8108 29.2357 15.7526 29.2173 15.6687 29.171C15.5825 29.1166 15.5266 29.0755 15.501 29.0477C15.4881 29.0338 15.4782 29.0146 15.4711 28.9902C15.4583 28.9763 15.4472 28.9531 15.4378 28.9206ZM23.2801 26.6547C23.273 26.6303 23.2712 26.6088 23.2747 26.5901C23.27 26.5739 23.2682 26.5524 23.2692 26.5256C23.29 26.4756 23.3235 26.4086 23.3698 26.3248C23.416 26.241 23.4473 26.1967 23.4636 26.192L25.915 25.4837C25.8892 25.3942 25.8359 25.2555 25.7551 25.0674C25.6743 24.8793 25.5877 24.6708 25.4952 24.4421C25.4108 24.211 25.3362 23.9682 25.2715 23.7138C25.2045 23.4513 25.17 23.2102 25.1682 22.9904C25.1722 22.7602 25.2204 22.5613 25.3129 22.3936C25.4112 22.2155 25.5823 22.0911 25.8263 22.0207C26.0635 22.8419 26.3108 23.484 26.5679 23.9471C26.825 24.4102 27.0859 24.7489 27.3504 24.9632C27.6231 25.1751 27.8931 25.2865 28.1606 25.2974C28.428 25.3082 28.6865 25.2731 28.9363 25.1922C29.1917 25.1007 29.4321 24.9872 29.6572 24.8517C29.8823 24.7162 30.0849 24.6092 30.2648 24.5308C30.4529 24.45 30.6133 24.4257 30.7459 24.4578C30.8762 24.4819 30.9742 24.6077 31.04 24.8354C31.0893 25.0061 31.0839 25.1398 31.0238 25.2365C30.9717 25.3308 30.8418 25.43 30.634 25.5341C30.5713 25.5611 30.4663 25.609 30.3188 25.6781C30.1772 25.7366 30.0152 25.801 29.8329 25.8713C29.6506 25.9416 29.4572 26.0195 29.2529 26.105C29.0462 26.1823 28.8516 26.2562 28.6693 26.3265C28.487 26.3968 28.3198 26.4583 28.1677 26.5111C28.0132 26.5557 27.8993 26.5886 27.8262 26.6097C27.8379 26.6504 27.8538 26.7207 27.8739 26.8206C27.8939 26.9205 27.9087 26.9867 27.9181 27.0193C28.0214 27.377 28.1794 27.7102 28.3919 28.0188C28.602 28.3193 28.8203 28.6174 29.0467 28.9132C29.2813 29.2066 29.5036 29.5036 29.7138 29.8041C29.9239 30.1045 30.0807 30.4337 30.1841 30.7914C30.2029 30.8565 30.2147 30.9279 30.2196 31.0058C30.2303 31.0732 30.2235 31.1412 30.1993 31.2099C30.1808 31.2681 30.1386 31.3199 30.0724 31.3655C30.0168 31.4168 29.9221 31.4397 29.7884 31.4343C29.4559 31.4423 29.1737 31.3344 28.9417 31.1107C28.7178 30.8847 28.5164 30.5993 28.3375 30.2546C28.1562 29.9017 27.9935 29.5214 27.8493 29.1138C27.7051 28.7062 27.5529 28.3317 27.3926 27.9904C27.2381 27.6386 27.0675 27.3531 26.8808 27.1339C26.6918 26.9066 26.463 26.801 26.1945 26.8169L23.6856 26.9604C23.6531 26.9698 23.5949 26.9513 23.511 26.9051C23.4248 26.8507 23.3689 26.8096 23.3433 26.7818C23.3304 26.7679 23.3205 26.7487 23.3134 26.7243C23.3006 26.7104 23.2895 26.6872 23.2801 26.6547ZM32.1871 27.0676C32.0603 26.6285 31.9863 26.1742 31.9651 25.7046C31.9439 25.2349 31.9967 24.7924 32.1233 24.377C32.2581 23.9593 32.4767 23.5877 32.7792 23.2625C33.0898 22.9349 33.5093 22.6947 34.0378 22.542C34.3387 22.4551 34.6194 22.4357 34.8799 22.4837C35.1381 22.5236 35.3703 22.6107 35.5765 22.745C35.7827 22.8792 35.9576 23.0577 36.1012 23.2805C36.2507 23.4928 36.363 23.7291 36.4382 23.9892C36.558 24.4039 36.5767 24.8346 36.4943 25.2813C36.4201 25.7256 36.2638 26.1452 36.0255 26.54C35.793 26.9243 35.4917 27.2536 35.1216 27.5279C34.7493 27.7941 34.3358 27.9488 33.8814 27.992C33.9577 28.2254 34.0901 28.3942 34.2788 28.4983C34.4732 28.5919 34.6867 28.6447 34.9192 28.6568C35.1518 28.6689 35.3854 28.6542 35.6201 28.6129C35.8525 28.5633 36.0581 28.5127 36.237 28.4611C36.424 28.407 36.5941 28.3402 36.7473 28.2607C36.9006 28.1812 37.0526 28.0976 37.2035 28.01C37.3544 27.9224 37.5064 27.8388 37.6596 27.7593C37.821 27.6774 37.9952 27.6095 38.1822 27.5554C38.2554 27.5343 38.3297 27.5172 38.4052 27.5042C38.4808 27.4912 38.5557 27.4915 38.6302 27.5053C38.7023 27.5109 38.7681 27.5403 38.8275 27.5936C38.8846 27.6388 38.9261 27.7061 38.9519 27.7955C38.9966 27.95 38.9772 28.0966 38.8939 28.2352C38.8083 28.3656 38.6866 28.4933 38.5289 28.6182C38.3793 28.7407 38.2046 28.8528 38.005 28.9545C37.803 29.0481 37.6039 29.1365 37.4076 29.2196C37.2172 29.2923 37.0366 29.3533 36.8658 29.4026C36.7056 29.4577 36.5848 29.497 36.5035 29.5205C35.9831 29.6709 35.4921 29.7247 35.0304 29.6818C34.5664 29.6309 34.1498 29.5002 33.7806 29.2897C33.4091 29.0711 33.0862 28.7768 32.8119 28.4067C32.5434 28.0262 32.3351 27.5798 32.1871 27.0676ZM33.2509 25.9013C33.3331 26.1858 33.4296 26.3826 33.5404 26.4916C33.6593 26.5982 33.8692 26.608 34.17 26.5211C34.3814 26.46 34.5782 26.3635 34.7603 26.2316C34.9401 26.0915 35.0913 25.9289 35.214 25.7437C35.3448 25.5561 35.432 25.3548 35.4755 25.1396C35.519 24.9244 35.5091 24.707 35.4457 24.4874C35.4104 24.3655 35.3618 24.243 35.2998 24.1199C35.246 23.9945 35.1713 23.8884 35.0757 23.8015C34.9777 23.7064 34.8665 23.6417 34.742 23.6072C34.6233 23.5622 34.4826 23.5632 34.32 23.6102C34.0761 23.6806 33.8689 23.8022 33.6986 23.9747C33.534 24.1368 33.4084 24.3273 33.3218 24.5461C33.2329 24.7568 33.1836 24.9825 33.1739 25.2231C33.1618 25.4557 33.1875 25.6817 33.2509 25.9013ZM44.6153 23.4766C44.4884 23.0375 44.4144 22.5832 44.3932 22.1136C44.3721 21.644 44.4248 21.2015 44.5515 20.7861C44.6862 20.3683 44.9048 19.9968 45.2073 19.6715C45.5179 19.3439 45.9375 19.1038 46.466 18.9511C46.7668 18.8641 47.0475 18.8447 47.3081 18.8928C47.5663 18.9327 47.7985 19.0198 48.0046 19.154C48.2108 19.2882 48.3857 19.4668 48.5294 19.6895C48.6788 19.9018 48.7911 20.1381 48.8663 20.3983C48.9861 20.813 49.0048 21.2436 48.9225 21.6903C48.8482 22.1346 48.692 22.5542 48.4536 22.949C48.2211 23.3333 47.9198 23.6627 47.5498 23.937C47.1774 24.2031 46.764 24.3578 46.3096 24.401C46.3858 24.6345 46.5183 24.8032 46.7069 24.9073C46.9013 25.0009 47.1148 25.0537 47.3474 25.0658C47.5799 25.0779 47.8136 25.0633 48.0483 25.0219C48.2806 24.9724 48.4863 24.9218 48.6651 24.8701C48.8521 24.8161 49.0223 24.7493 49.1755 24.6698C49.3287 24.5903 49.4808 24.5067 49.6316 24.419C49.7825 24.3314 49.9345 24.2478 50.0878 24.1683C50.2491 24.0865 50.4233 24.0185 50.6103 23.9645C50.6835 23.9433 50.7578 23.9263 50.8334 23.9132C50.9089 23.9002 50.9839 23.9006 51.0583 23.9143C51.1304 23.9199 51.1962 23.9494 51.2556 24.0027C51.3127 24.0478 51.3542 24.1151 51.3801 24.2046C51.4247 24.3591 51.4054 24.5056 51.3221 24.6442C51.2364 24.7747 51.1147 24.9023 50.957 25.0272C50.8074 25.1497 50.6328 25.2618 50.4331 25.3636C50.2311 25.4572 50.032 25.5455 49.8358 25.6287C49.6453 25.7013 49.4647 25.7623 49.294 25.8116C49.1337 25.8668 49.0129 25.9061 48.9316 25.9296C48.4112 26.0799 47.9202 26.1337 47.4585 26.0909C46.9945 26.04 46.5779 25.9092 46.2088 25.6988C45.8373 25.4801 45.5144 25.1858 45.2401 24.8158C44.9715 24.4352 44.7633 23.9889 44.6153 23.4766ZM45.679 22.3103C45.7613 22.5949 45.8578 22.7917 45.9685 22.9006C46.0874 23.0072 46.2973 23.017 46.5981 22.9301C46.8095 22.869 47.0063 22.7725 47.1884 22.6406C47.3682 22.5006 47.5194 22.338 47.6421 22.1527C47.7729 21.9652 47.8601 21.7638 47.9036 21.5486C47.9472 21.3334 47.9372 21.116 47.8738 20.8965C47.8386 20.7745 47.79 20.652 47.728 20.529C47.6741 20.4036 47.5994 20.2974 47.5038 20.2105C47.4059 20.1155 47.2947 20.0507 47.1702 20.0162C47.0514 19.9712 46.9108 19.9722 46.7482 20.0192C46.5042 20.0897 46.2971 20.2112 46.1267 20.3838C45.9621 20.5459 45.8365 20.7363 45.75 20.9551C45.6611 21.1658 45.6118 21.3915 45.602 21.6322C45.5899 21.8647 45.6156 22.0908 45.679 22.3103ZM50.9205 19.7783C50.8993 19.7052 50.8822 19.6308 50.8692 19.5553C50.8539 19.4716 50.8502 19.3978 50.8581 19.3338C50.8637 19.2617 50.885 19.1983 50.9221 19.1436C50.9672 19.0865 51.0386 19.0438 51.1362 19.0156C51.2175 18.9921 51.3257 19.0313 51.4609 19.1332C51.6018 19.2247 51.7533 19.3527 51.9154 19.5173C52.0752 19.6738 52.2367 19.8517 52.4 20.0512C52.5715 20.2483 52.7221 20.4339 52.8516 20.6079C52.987 20.7714 53.099 20.9152 53.1877 21.0394C53.2764 21.1635 53.326 21.2284 53.3365 21.2342C53.36 20.9191 53.3886 20.5761 53.4224 20.2051C53.4562 19.8341 53.5254 19.4794 53.6302 19.1407C53.7408 18.7916 53.898 18.4819 54.1018 18.2116C54.3137 17.9389 54.6108 17.7474 54.9929 17.637C55.1881 17.5806 55.3804 17.5603 55.57 17.576C55.7653 17.5812 55.9456 17.626 56.111 17.7104C56.2821 17.7843 56.4318 17.8908 56.5601 18.0299C56.6884 18.169 56.7831 18.3443 56.8441 18.5557C56.8958 18.7346 56.8591 18.8818 56.7338 18.9972C56.6168 19.1103 56.4688 19.1927 56.2899 19.2444L56.1679 19.2797L55.492 18.9067C55.4757 18.9114 55.4623 18.9109 55.4518 18.9051C55.4356 18.9098 55.4193 18.9145 55.4031 18.9192C55.3926 18.9134 55.3792 18.9129 55.3629 18.9176C55.0784 18.9998 54.8783 19.1457 54.7626 19.3553C54.6528 19.5545 54.5913 19.7837 54.5781 20.043C54.5626 20.2941 54.5802 20.5533 54.631 20.8206C54.6875 21.0773 54.7464 21.3114 54.8074 21.5228C54.8544 21.6854 54.9189 21.8474 55.0007 22.0088C55.0802 22.162 55.1638 22.314 55.2514 22.4649C55.3367 22.6076 55.4203 22.7597 55.5022 22.921C55.5817 23.0743 55.6473 23.2403 55.699 23.4192C55.7976 23.7607 55.664 23.9843 55.2981 24.09C55.0949 24.1488 54.8529 24.1041 54.5723 23.9562C54.2893 23.8001 53.9899 23.587 53.6741 23.3171C53.3663 23.0448 53.0573 22.7377 52.7471 22.3956C52.4345 22.0455 52.1498 21.7005 51.893 21.3606C51.6362 21.0207 51.4185 20.7092 51.2398 20.4261C51.0692 20.1406 50.9627 19.9247 50.9205 19.7783ZM62.507 16.4305C62.4483 16.2273 62.435 16.0593 62.4672 15.9267C62.5075 15.7917 62.6414 15.6913 62.8691 15.6255C62.8935 15.6185 62.9394 15.6096 63.0068 15.599C63.08 15.5778 63.1247 15.5649 63.141 15.5602C63.2707 15.7958 63.4075 16.0558 63.5513 16.3402C63.701 16.6141 63.8599 16.8898 64.0281 17.1671C64.1964 17.4445 64.3716 17.7154 64.5537 17.9799C64.744 18.2421 64.9464 18.47 65.1608 18.6635C65.2626 18.4667 65.3154 18.2532 65.3194 18.023C65.3233 17.7928 65.311 17.5673 65.2825 17.3465C65.2516 17.1176 65.2201 16.902 65.1881 16.6998C65.1619 16.4871 65.1736 16.2988 65.2231 16.1347C65.2702 15.9625 65.3698 15.8192 65.5217 15.7048C65.6818 15.5881 65.9257 15.5176 66.2535 15.4934C66.595 15.3947 66.8862 15.3811 67.1271 15.4524C67.3656 15.5157 67.5862 15.6237 67.7889 15.7766C67.9975 15.9189 68.2026 16.0799 68.4042 16.2595C68.6117 16.4286 68.8498 16.5668 69.1187 16.6742C69.1369 16.5544 69.1603 16.4066 69.1889 16.231C69.215 16.0473 69.2563 15.8547 69.3127 15.6534C69.3748 15.4417 69.4422 15.2328 69.5149 15.0268C69.5933 14.8103 69.6816 14.613 69.7799 14.4348C69.8758 14.2485 69.9841 14.0895 70.1046 13.9578C70.2227 13.8179 70.3509 13.728 70.4892 13.6881C70.8225 13.5918 71.1417 13.6141 71.4467 13.755C71.7494 13.8878 72.0319 14.0881 72.2943 14.3559C72.5624 14.6131 72.8098 14.9205 73.0364 15.2779C73.2607 15.6271 73.457 15.9713 73.6254 16.3102C73.7938 16.6492 73.9337 16.9656 74.045 17.2594C74.1621 17.5427 74.2395 17.7494 74.2771 17.8795C74.3076 17.9852 74.3067 18.0735 74.2744 18.1446C74.242 18.2156 74.194 18.2779 74.1302 18.3316C74.0641 18.3771 73.9874 18.4169 73.9004 18.4508C73.8214 18.4825 73.7453 18.5089 73.6721 18.53C73.6559 18.5347 73.6315 18.5417 73.599 18.5511C73.5641 18.5524 73.5252 18.5549 73.4822 18.5585C73.4473 18.5597 73.399 18.5605 73.3374 18.5606L71.491 15.143C71.4839 15.1186 71.4385 15.0833 71.3546 15.037C71.2685 14.9826 71.2067 14.952 71.1695 14.9451C71.1451 14.9522 71.1236 14.954 71.105 14.9506C71.0888 14.9553 71.0766 14.9588 71.0684 14.9611C71.0579 14.9554 71.0486 14.9536 71.0405 14.956C70.8698 15.0053 70.7271 15.1214 70.6126 15.3043C70.5061 15.4848 70.4184 15.6996 70.3494 15.9485C70.2804 16.1975 70.2266 16.4686 70.1879 16.7617C70.1493 17.0547 70.1228 17.3443 70.1085 17.6303C70.0919 17.9082 70.0788 18.1675 70.069 18.4082C70.065 18.6384 70.0592 18.8163 70.0514 18.9419C70.0236 18.9675 69.9632 19.0026 69.8704 19.047C69.7751 19.0834 69.7113 19.1062 69.6787 19.1156C69.4511 19.1814 69.2539 19.1547 69.0873 19.0354C68.9184 18.908 68.7592 18.7382 68.6098 18.5259C68.4684 18.3112 68.3294 18.0739 68.1926 17.8139C68.0616 17.5434 67.9214 17.302 67.7719 17.0897C67.6306 16.8751 67.4685 16.7105 67.2857 16.5959C67.1086 16.4709 66.8981 16.4436 66.6542 16.5141C66.5647 16.5399 66.5052 16.654 66.4756 16.8564C66.4459 17.0588 66.4385 17.3076 66.4534 17.6028C66.4658 17.89 66.4894 18.2003 66.5241 18.5338C66.5565 18.8593 66.5923 19.1661 66.6315 19.4543C66.6765 19.732 66.7179 19.9667 66.7557 20.1584C66.7935 20.3501 66.8123 20.446 66.8123 20.446C66.8031 20.4751 66.7788 20.5129 66.7394 20.5596C66.6977 20.598 66.6531 20.6418 66.6056 20.6907C66.5662 20.7374 66.5204 20.777 66.4681 20.8097C66.4241 20.8401 66.3898 20.8588 66.3654 20.8658C66.1378 20.9316 65.8889 20.8934 65.6187 20.7512C65.3462 20.6009 65.0736 20.389 64.8007 20.1154C64.5336 19.8314 64.2694 19.5113 64.0079 19.1552C63.7545 18.7967 63.5239 18.4405 63.3159 18.0865C63.1079 17.7326 62.9308 17.4093 62.7846 17.1168C62.6466 16.8219 62.554 16.5931 62.507 16.4305ZM73.9842 14.9908C73.8574 14.5517 73.7833 14.0974 73.7622 13.6278C73.741 13.1582 73.7938 12.7157 73.9204 12.3003C74.0552 11.8825 74.2738 11.511 74.5763 11.1857C74.8868 10.8581 75.3064 10.618 75.8349 10.4653C76.1358 10.3783 76.4165 10.3589 76.677 10.407C76.9352 10.4469 77.1674 10.534 77.3736 10.6682C77.5798 10.8024 77.7547 10.981 77.8983 11.2037C78.0478 11.416 78.1601 11.6523 78.2353 11.9125C78.3551 12.3272 78.3738 12.7578 78.2914 13.2045C78.2172 13.6488 78.0609 14.0684 77.8226 14.4632C77.5901 14.8475 77.2888 15.1769 76.9187 15.4512C76.5463 15.7173 76.1329 15.872 75.6785 15.9152C75.7548 16.1487 75.8872 16.3174 76.0759 16.4215C76.2703 16.5151 76.4838 16.5679 76.7163 16.58C76.9489 16.5921 77.1825 16.5775 77.4172 16.5361C77.6496 16.4866 77.8552 16.436 78.0341 16.3843C78.2211 16.3303 78.3912 16.2635 78.5444 16.184C78.6977 16.1045 78.8497 16.0209 79.0006 15.9332C79.1514 15.8456 79.3035 15.762 79.4567 15.6825C79.6181 15.6007 79.7922 15.5327 79.9793 15.4787C80.0524 15.4575 80.1268 15.4405 80.2023 15.4274C80.2778 15.4144 80.3528 15.4148 80.4273 15.4285C80.4994 15.4341 80.5651 15.4636 80.6246 15.5169C80.6817 15.562 80.7232 15.6293 80.749 15.7188C80.7936 15.8733 80.7743 16.0198 80.691 16.1584C80.6054 16.2889 80.4837 16.4165 80.326 16.5414C80.1764 16.6639 80.0017 16.776 79.8021 16.8778C79.6001 16.9714 79.4009 17.0597 79.2047 17.1429C79.0143 17.2155 78.8337 17.2765 78.6629 17.3258C78.5027 17.381 78.3819 17.4203 78.3006 17.4438C77.7802 17.5941 77.2892 17.6479 76.8275 17.6051C76.3635 17.5542 75.9469 17.4234 75.5777 17.213C75.2062 16.9943 74.8833 16.7 74.609 16.33C74.3405 15.9494 74.1322 15.5031 73.9842 14.9908ZM75.048 13.8245C75.1302 14.1091 75.2267 14.3059 75.3375 14.4148C75.4564 14.5214 75.6662 14.5312 75.9671 14.4443C76.1785 14.3832 76.3753 14.2867 76.5574 14.1548C76.7372 14.0148 76.8884 13.8522 77.0111 13.6669C77.1419 13.4794 77.2291 13.278 77.2726 13.0628C77.3161 12.8476 77.3062 12.6302 77.2428 12.4107C77.2075 12.2887 77.1589 12.1662 77.0969 12.0432C77.0431 11.9178 76.9683 11.8116 76.8728 11.7247C76.7748 11.6297 76.6636 11.5649 76.5391 11.5304C76.4204 11.4854 76.2797 11.4864 76.1171 11.5334C75.8732 11.6039 75.666 11.7254 75.4956 11.898C75.331 12.0601 75.2055 12.2505 75.1189 12.4693C75.03 12.68 74.9807 12.9057 74.971 13.1464C74.9589 13.3789 74.9845 13.605 75.048 13.8245ZM86.7909 21.9943C87.2463 21.8628 87.6281 21.6599 87.9366 21.3858C88.2473 21.1198 88.4824 20.8052 88.6418 20.442C88.8116 20.0846 88.9075 19.7001 88.9295 19.2885C88.9621 18.8826 88.9207 18.4805 88.8056 18.0821C88.7469 17.8788 88.6572 17.614 88.5365 17.2877C88.4239 16.959 88.2909 16.6054 88.1374 16.2269C87.984 15.8484 87.8079 15.4676 87.6091 15.0845C87.4185 14.6991 87.2146 14.344 86.9974 14.0191C86.7778 13.6861 86.5439 13.4101 86.2956 13.1911C86.0531 12.9617 85.8057 12.8217 85.5532 12.7713C85.3888 12.995 85.2249 13.2054 85.0616 13.4023C84.8959 13.5911 84.7162 13.762 84.5225 13.9149C84.3289 14.0677 84.1223 14.2067 83.903 14.3318C83.6813 14.4487 83.4363 14.5459 83.1679 14.6234C82.8183 14.7244 82.5081 14.7788 82.2372 14.7866C81.9745 14.7921 81.7354 14.7422 81.5201 14.637C81.3128 14.5295 81.1321 14.3615 80.978 14.1329C80.8238 13.9044 80.6915 13.599 80.5811 13.2169C80.5036 12.9485 80.4935 12.6696 80.5507 12.3799C80.6056 12.0821 80.7071 11.7929 80.8551 11.5123C81.0088 11.2212 81.1928 10.9434 81.4071 10.6789C81.6295 10.412 81.8631 10.1683 82.1077 9.94784C82.3605 9.72504 82.6145 9.53711 82.8698 9.38406C83.1333 9.22865 83.3748 9.11923 83.5943 9.0558C83.8057 8.99472 83.9829 8.95234 84.1258 8.92866C84.2664 8.89685 84.3937 8.89531 84.5077 8.92404C84.6194 8.94463 84.7242 9.00245 84.8221 9.09748C84.9258 9.18204 85.0372 9.30843 85.1563 9.47665C85.5266 10.0568 85.9394 10.6776 86.3947 11.3389C86.8501 12.0002 87.2992 12.6853 87.7419 13.3943C88.1846 14.1033 88.5919 14.827 88.9638 15.5653C89.3462 16.3093 89.6431 17.0473 89.8545 17.779C90.0425 18.4295 90.1075 19.0054 90.0497 19.5066C90.0024 20.0136 89.8695 20.4529 89.6508 20.8244C89.4427 21.2017 89.1699 21.5228 88.8324 21.7877C88.503 22.0503 88.1531 22.2571 87.7827 22.4081C87.4146 22.5673 87.0482 22.6864 86.6834 22.7654C86.3186 22.8444 85.9955 22.8849 85.7142 22.8869C85.4352 22.897 85.2136 22.8773 85.0496 22.8278C84.8936 22.776 84.8388 22.7081 84.885 22.6243C84.9418 22.5462 85.117 22.4515 85.4108 22.3402C85.7046 22.2289 86.1647 22.1136 86.7909 21.9943ZM83.561 10.1754C82.9969 10.4794 82.5619 10.8033 82.256 11.1472C81.9559 11.4806 81.7511 11.8084 81.6416 12.1308C81.5379 12.4427 81.5167 12.7351 81.578 13.0081C81.6369 13.273 81.7503 13.4825 81.9182 13.6366C82.086 13.7908 82.2898 13.8861 82.5294 13.9226C82.7747 13.9486 83.0239 13.881 83.2769 13.7198C83.5275 13.5505 83.7661 13.2789 83.9929 12.905C84.2278 12.5288 84.4227 12.0144 84.5777 11.3617C84.5378 11.2235 84.4943 11.0731 84.4473 10.9105C84.4085 10.7455 84.354 10.6027 84.2839 10.482C84.2114 10.3531 84.1175 10.2569 84.0023 10.1933C83.887 10.1297 83.7399 10.1238 83.561 10.1754Z" fill="white"/>
<path d="M100.547 7.82096C114.547 4.32111 120.047 8.98194 120.047 21.3213M120.047 21.3213C121.547 18.3213 122.269 16.8887 123.047 15.3213M120.047 21.3213C118.09 19.6168 118.88 20.6725 116.547 18.3213" stroke="white" stroke-linecap="round" stroke-linejoin="round"/>
</svg>
