<svg width="190" height="62" viewBox="0 0 190 62" fill="none" xmlns="http://www.w3.org/2000/svg">
<path d="M5.1709 14.4541C5.21322 14.251 5.31901 14.0859 5.48828 13.959C5.66602 13.8236 5.86491 13.7008 6.08496 13.5908C6.31348 13.4808 6.55046 13.3792 6.7959 13.2861C7.04134 13.1846 7.26562 13.0788 7.46875 12.9688C7.68034 12.8587 7.85384 12.7318 7.98926 12.5879C8.12467 12.4355 8.19238 12.2536 8.19238 12.042C8.19238 11.7712 8.12044 11.5469 7.97656 11.3691C7.84115 11.1914 7.65495 11.0391 7.41797 10.9121C7.18945 10.7852 6.92708 10.6794 6.63086 10.5947C6.33464 10.5101 6.02995 10.4255 5.7168 10.3408C5.41211 10.2477 5.11165 10.1504 4.81543 10.0488C4.51921 9.9388 4.2526 9.80339 4.01562 9.64258C3.78711 9.48177 3.60091 9.28711 3.45703 9.05859C3.32161 8.83008 3.25391 8.54655 3.25391 8.20801C3.25391 7.92871 3.30892 7.66634 3.41895 7.4209C3.53743 7.16699 3.68978 6.93001 3.87598 6.70996C4.07064 6.48145 4.29069 6.27409 4.53613 6.08789C4.79004 5.90169 5.05241 5.74512 5.32324 5.61816C5.60254 5.49121 5.88184 5.39388 6.16113 5.32617C6.44043 5.25 6.69857 5.21191 6.93555 5.21191H7.0752C7.15137 5.2373 7.25293 5.27962 7.37988 5.33887C7.50684 5.39811 7.62956 5.45736 7.74805 5.5166C7.86654 5.56738 7.9681 5.61816 8.05273 5.66895C8.13737 5.71126 8.17969 5.73665 8.17969 5.74512V6.03711C8.01888 6.05404 7.81152 6.08789 7.55762 6.13867C7.30371 6.18099 7.03711 6.24023 6.75781 6.31641C6.47852 6.39258 6.19499 6.48991 5.90723 6.6084C5.61947 6.71842 5.36133 6.84961 5.13281 7.00195C4.9043 7.1543 4.7181 7.33203 4.57422 7.53516C4.43034 7.72982 4.3584 7.9541 4.3584 8.20801C4.3584 8.57194 4.48535 8.8597 4.73926 9.07129C4.99316 9.27441 5.31055 9.44368 5.69141 9.5791C6.07227 9.71452 6.48698 9.83724 6.93555 9.94727C7.39258 10.0488 7.81152 10.1758 8.19238 10.3281C8.57324 10.472 8.89062 10.6667 9.14453 10.9121C9.39844 11.1491 9.52539 11.4707 9.52539 11.877C9.52539 12.097 9.45768 12.3298 9.32227 12.5752C9.19531 12.8122 9.02181 13.0492 8.80176 13.2861C8.59017 13.5146 8.34896 13.7347 8.07812 13.9463C7.80729 14.1579 7.52799 14.3441 7.24023 14.5049C6.96094 14.6572 6.68587 14.7842 6.41504 14.8857C6.14421 14.9788 5.90299 15.0254 5.69141 15.0254C5.6237 15.0254 5.55176 15.0169 5.47559 15C5.39941 14.9831 5.33171 14.9577 5.27246 14.9238C5.22168 14.8815 5.17936 14.8223 5.14551 14.7461C5.12012 14.6699 5.12858 14.5726 5.1709 14.4541ZM7.03711 18.999C7.28255 18.999 7.50684 19.0625 7.70996 19.1895C7.91309 19.3164 8.12891 19.4518 8.35742 19.5957C8.57747 19.748 8.81868 19.8877 9.08105 20.0146C9.34342 20.1416 9.64811 20.2051 9.99512 20.2051C10.3421 20.2051 10.6807 20.1585 11.0107 20.0654C11.3408 19.9808 11.637 19.8454 11.8994 19.6592C12.1618 19.4814 12.3734 19.2445 12.5342 18.9482C12.695 18.6605 12.7754 18.3177 12.7754 17.9199C12.7754 17.2598 12.7204 16.5742 12.6104 15.8633C12.5088 15.1523 12.3734 14.4456 12.2041 13.7432C12.0433 13.0322 11.8656 12.3424 11.6709 11.6738C11.4847 11.0052 11.3112 10.3874 11.1504 9.82031C11.1504 9.81185 11.1462 9.79069 11.1377 9.75684C11.1292 9.72298 11.125 9.70182 11.125 9.69336C11.125 9.52409 11.1842 9.40983 11.3027 9.35059C11.4212 9.28288 11.5482 9.24902 11.6836 9.24902C11.7174 9.24902 11.7682 9.25326 11.8359 9.26172C11.9036 9.27018 11.946 9.27441 11.9629 9.27441C12.2253 9.93457 12.4707 10.6117 12.6992 11.3057C12.9362 11.9912 13.1436 12.6895 13.3213 13.4004C13.499 14.1113 13.6387 14.8223 13.7402 15.5332C13.8418 16.2526 13.8926 16.9635 13.8926 17.666C13.8926 18.2161 13.7952 18.7155 13.6006 19.1641C13.4144 19.6126 13.152 19.9935 12.8135 20.3066C12.4749 20.6198 12.0687 20.861 11.5947 21.0303C11.1292 21.1995 10.6214 21.2842 10.0713 21.2842C9.70736 21.2842 9.34766 21.2419 8.99219 21.1572C8.62826 21.0811 8.30241 20.9541 8.01465 20.7764C7.71842 20.5986 7.48145 20.3617 7.30371 20.0654C7.12598 19.7777 7.03711 19.4222 7.03711 18.999ZM10.0205 6.15137C10.0205 6.12598 10.0205 6.0752 10.0205 5.99902C10.0205 5.92285 10.029 5.84668 10.0459 5.77051C10.0628 5.68587 10.0924 5.61393 10.1348 5.55469C10.1771 5.49544 10.2406 5.46582 10.3252 5.46582C10.4691 5.46582 10.5791 5.48698 10.6553 5.5293C10.7314 5.56315 10.7865 5.6097 10.8203 5.66895C10.8542 5.71973 10.8753 5.78743 10.8838 5.87207C10.8923 5.94824 10.8965 6.03711 10.8965 6.13867C10.8965 6.20638 10.8923 6.28255 10.8838 6.36719C10.8753 6.45182 10.8584 6.53223 10.833 6.6084C10.8076 6.68457 10.7653 6.74805 10.7061 6.79883C10.6468 6.84115 10.5664 6.8623 10.4648 6.8623C10.3633 6.8623 10.2829 6.84115 10.2236 6.79883C10.1644 6.74805 10.1178 6.6888 10.084 6.62109C10.0586 6.55339 10.0417 6.47721 10.0332 6.39258C10.0247 6.30794 10.0205 6.22754 10.0205 6.15137ZM13.8672 11.4707C13.8672 11.0137 13.9222 10.5566 14.0322 10.0996C14.1423 9.64258 14.3158 9.2321 14.5527 8.86816C14.7982 8.50423 15.1113 8.20801 15.4922 7.97949C15.8815 7.75098 16.3512 7.63672 16.9014 7.63672C17.2145 7.63672 17.4896 7.69596 17.7266 7.81445C17.9635 7.92448 18.1624 8.07259 18.3232 8.25879C18.484 8.44499 18.6025 8.66504 18.6787 8.91895C18.7633 9.16439 18.8057 9.42253 18.8057 9.69336C18.8057 10.125 18.7041 10.5439 18.501 10.9502C18.3063 11.3564 18.0397 11.7161 17.7012 12.0293C17.3711 12.334 16.9902 12.5667 16.5586 12.7275C16.127 12.8799 15.6868 12.9137 15.2383 12.8291C15.2467 13.0745 15.3271 13.2734 15.4795 13.4258C15.6403 13.5697 15.8307 13.6797 16.0508 13.7559C16.2708 13.832 16.4993 13.8828 16.7363 13.9082C16.9733 13.9251 17.1849 13.9336 17.3711 13.9336C17.5658 13.9336 17.7477 13.9167 17.917 13.8828C18.0863 13.849 18.2555 13.8109 18.4248 13.7686C18.5941 13.7262 18.7633 13.6882 18.9326 13.6543C19.1104 13.6204 19.2965 13.6035 19.4912 13.6035C19.5674 13.6035 19.6436 13.6077 19.7197 13.6162C19.7959 13.6247 19.8678 13.6458 19.9355 13.6797C20.0033 13.7051 20.0583 13.7516 20.1006 13.8193C20.1429 13.8786 20.1641 13.9548 20.1641 14.0479C20.1641 14.2087 20.1048 14.3441 19.9863 14.4541C19.8678 14.5557 19.7155 14.6445 19.5293 14.7207C19.3516 14.7969 19.1527 14.8561 18.9326 14.8984C18.7126 14.9323 18.4967 14.9619 18.2852 14.9873C18.082 15.0042 17.8916 15.0127 17.7139 15.0127C17.5446 15.0212 17.4176 15.0254 17.333 15.0254C16.7913 15.0254 16.3047 14.9408 15.873 14.7715C15.4414 14.5938 15.0775 14.3525 14.7812 14.0479C14.485 13.7347 14.2565 13.3623 14.0957 12.9307C13.9434 12.4906 13.8672 12.0039 13.8672 11.4707ZM15.2129 10.6455C15.2129 10.9417 15.251 11.1576 15.3271 11.293C15.4118 11.4284 15.6107 11.4961 15.9238 11.4961C16.1439 11.4961 16.3597 11.458 16.5713 11.3818C16.7829 11.2972 16.9733 11.1829 17.1426 11.0391C17.3203 10.8952 17.46 10.7259 17.5615 10.5312C17.6631 10.3366 17.7139 10.125 17.7139 9.89648C17.7139 9.76953 17.7012 9.63835 17.6758 9.50293C17.6589 9.36751 17.6165 9.24479 17.5488 9.13477C17.4811 9.01628 17.3923 8.92318 17.2822 8.85547C17.1807 8.7793 17.0452 8.74121 16.876 8.74121C16.6221 8.74121 16.3893 8.80046 16.1777 8.91895C15.9746 9.02897 15.8011 9.17708 15.6572 9.36328C15.5133 9.54102 15.4033 9.74414 15.3271 9.97266C15.251 10.1927 15.2129 10.417 15.2129 10.6455ZM23.4141 14.7461C23.2786 14.8646 23.1348 14.8096 22.9824 14.5811C22.8385 14.3525 22.6904 14.0098 22.5381 13.5527C22.3857 13.0872 22.2334 12.5329 22.0811 11.8896C21.9372 11.2464 21.7975 10.5651 21.6621 9.8457C21.5267 9.1263 21.3955 8.39844 21.2686 7.66211C21.1501 6.91732 21.0443 6.21908 20.9512 5.56738C20.9512 5.44889 20.9469 5.3304 20.9385 5.21191C20.9385 5.08496 20.9512 4.9707 20.9766 4.86914C21.0104 4.75911 21.0654 4.66178 21.1416 4.57715C21.2262 4.49251 21.3532 4.42904 21.5225 4.38672C21.5394 4.37826 21.5732 4.38672 21.624 4.41211C21.6833 4.42904 21.7425 4.45443 21.8018 4.48828C21.861 4.51367 21.9118 4.54329 21.9541 4.57715C22.0049 4.611 22.0387 4.64062 22.0557 4.66602C21.9456 6.2487 22.1276 7.78906 22.6016 9.28711C22.627 9.26172 22.6947 9.17708 22.8047 9.0332C22.9147 8.88086 23.0544 8.70736 23.2236 8.5127C23.3929 8.30957 23.5833 8.09375 23.7949 7.86523C24.015 7.63672 24.2435 7.42513 24.4805 7.23047C24.7174 7.03581 24.9544 6.875 25.1914 6.74805C25.4284 6.61263 25.6569 6.54492 25.877 6.54492C26.0039 6.54492 26.1266 6.57454 26.2451 6.63379C26.3721 6.69303 26.4355 6.80729 26.4355 6.97656C26.4355 6.99349 26.4313 7.01888 26.4229 7.05273C26.4144 7.07812 26.4102 7.09928 26.4102 7.11621C26.2747 7.2347 26.0674 7.41667 25.7881 7.66211C25.5173 7.90755 25.2295 8.18262 24.9248 8.4873C24.6201 8.79199 24.3281 9.10938 24.0488 9.43945C23.7695 9.76953 23.5579 10.0827 23.4141 10.3789C23.3887 10.4297 23.3802 10.4762 23.3887 10.5186C23.3971 10.5524 23.4056 10.5947 23.4141 10.6455C23.5072 10.6794 23.6553 10.7301 23.8584 10.7979C24.0615 10.8656 24.2858 10.946 24.5312 11.0391C24.7767 11.1237 25.0391 11.2168 25.3184 11.3184C25.5977 11.4115 25.86 11.5046 26.1055 11.5977C26.3509 11.6908 26.571 11.7754 26.7656 11.8516C26.9688 11.9193 27.1211 11.9701 27.2227 12.0039C27.3411 12.0547 27.4385 12.0885 27.5146 12.1055C27.5908 12.1224 27.6501 12.1478 27.6924 12.1816C27.7347 12.207 27.7643 12.2451 27.7812 12.2959C27.7982 12.3467 27.8066 12.4229 27.8066 12.5244C27.8066 12.7699 27.7474 12.9307 27.6289 13.0068C27.5104 13.083 27.3411 13.1211 27.1211 13.1211C26.4694 13.0788 25.8304 12.9434 25.2041 12.7148C24.5778 12.4779 23.943 12.1943 23.2998 11.8643C23.2744 12.0251 23.2829 12.2113 23.3252 12.4229C23.376 12.6344 23.4352 12.846 23.5029 13.0576C23.5706 13.2692 23.6341 13.4766 23.6934 13.6797C23.7611 13.8828 23.7992 14.0648 23.8076 14.2256C23.8245 14.3864 23.8076 14.5133 23.7568 14.6064C23.7061 14.6995 23.5918 14.7461 23.4141 14.7461ZM30.7646 14.7461C30.6292 14.8646 30.4854 14.8096 30.333 14.5811C30.1891 14.3525 30.041 14.0098 29.8887 13.5527C29.7363 13.0872 29.584 12.5329 29.4316 11.8896C29.2878 11.2464 29.1481 10.5651 29.0127 9.8457C28.8773 9.1263 28.7461 8.39844 28.6191 7.66211C28.5007 6.91732 28.3949 6.21908 28.3018 5.56738C28.3018 5.44889 28.2975 5.3304 28.2891 5.21191C28.2891 5.08496 28.3018 4.9707 28.3271 4.86914C28.361 4.75911 28.416 4.66178 28.4922 4.57715C28.5768 4.49251 28.7038 4.42904 28.873 4.38672C28.89 4.37826 28.9238 4.38672 28.9746 4.41211C29.0339 4.42904 29.0931 4.45443 29.1523 4.48828C29.2116 4.51367 29.2624 4.54329 29.3047 4.57715C29.3555 4.611 29.3893 4.64062 29.4062 4.66602C29.2962 6.2487 29.4782 7.78906 29.9521 9.28711C29.9775 9.26172 30.0452 9.17708 30.1553 9.0332C30.2653 8.88086 30.4049 8.70736 30.5742 8.5127C30.7435 8.30957 30.9339 8.09375 31.1455 7.86523C31.3656 7.63672 31.5941 7.42513 31.8311 7.23047C32.068 7.03581 32.305 6.875 32.542 6.74805C32.779 6.61263 33.0075 6.54492 33.2275 6.54492C33.3545 6.54492 33.4772 6.57454 33.5957 6.63379C33.7227 6.69303 33.7861 6.80729 33.7861 6.97656C33.7861 6.99349 33.7819 7.01888 33.7734 7.05273C33.765 7.07812 33.7607 7.09928 33.7607 7.11621C33.6253 7.2347 33.418 7.41667 33.1387 7.66211C32.8678 7.90755 32.5801 8.18262 32.2754 8.4873C31.9707 8.79199 31.6787 9.10938 31.3994 9.43945C31.1201 9.76953 30.9085 10.0827 30.7646 10.3789C30.7393 10.4297 30.7308 10.4762 30.7393 10.5186C30.7477 10.5524 30.7562 10.5947 30.7646 10.6455C30.8577 10.6794 31.0059 10.7301 31.209 10.7979C31.4121 10.8656 31.6364 10.946 31.8818 11.0391C32.1273 11.1237 32.3896 11.2168 32.6689 11.3184C32.9482 11.4115 33.2106 11.5046 33.4561 11.5977C33.7015 11.6908 33.9215 11.7754 34.1162 11.8516C34.3193 11.9193 34.4717 11.9701 34.5732 12.0039C34.6917 12.0547 34.7891 12.0885 34.8652 12.1055C34.9414 12.1224 35.0007 12.1478 35.043 12.1816C35.0853 12.207 35.1149 12.2451 35.1318 12.2959C35.1488 12.3467 35.1572 12.4229 35.1572 12.5244C35.1572 12.7699 35.098 12.9307 34.9795 13.0068C34.861 13.083 34.6917 13.1211 34.4717 13.1211C33.82 13.0788 33.181 12.9434 32.5547 12.7148C31.9284 12.4779 31.2936 12.1943 30.6504 11.8643C30.625 12.0251 30.6335 12.2113 30.6758 12.4229C30.7266 12.6344 30.7858 12.846 30.8535 13.0576C30.9212 13.2692 30.9847 13.4766 31.0439 13.6797C31.1117 13.8828 31.1497 14.0648 31.1582 14.2256C31.1751 14.3864 31.1582 14.5133 31.1074 14.6064C31.0566 14.6995 30.9424 14.7461 30.7646 14.7461ZM41.5049 9.82031C41.5049 9.76953 41.5049 9.68066 41.5049 9.55371C41.5133 9.41829 41.5176 9.27865 41.5176 9.13477C41.5176 8.99089 41.5176 8.8597 41.5176 8.74121C41.526 8.61426 41.5303 8.52539 41.5303 8.47461C41.5895 8.37305 41.6572 8.27572 41.7334 8.18262C41.818 8.08105 41.9027 8.01335 41.9873 7.97949C42.0804 7.93717 42.1777 7.92871 42.2793 7.9541C42.3893 7.97949 42.4993 8.06413 42.6094 8.20801V8.30957V8.47461C42.6009 8.51693 42.584 8.61849 42.5586 8.7793C42.5332 8.93164 42.5036 9.10091 42.4697 9.28711C42.4359 9.47331 42.402 9.64681 42.3682 9.80762C42.3428 9.95996 42.3301 10.0573 42.3301 10.0996C42.3301 10.2604 42.347 10.4635 42.3809 10.709C42.4147 10.946 42.4613 11.1956 42.5205 11.458C42.5882 11.7204 42.6686 11.9827 42.7617 12.2451C42.8633 12.5075 42.9818 12.7445 43.1172 12.9561C43.2526 13.1592 43.4007 13.3285 43.5615 13.4639C43.7308 13.5993 43.9255 13.667 44.1455 13.667C44.4163 13.667 44.6533 13.5951 44.8564 13.4512C45.068 13.3073 45.25 13.1211 45.4023 12.8926C45.5547 12.6641 45.6774 12.4059 45.7705 12.1182C45.8721 11.8304 45.9525 11.5426 46.0117 11.2549C46.071 10.9587 46.1133 10.6751 46.1387 10.4043C46.1641 10.1335 46.1768 9.89648 46.1768 9.69336C46.1768 9.49023 46.1598 9.2998 46.126 9.12207C46.1006 8.93587 46.0667 8.75391 46.0244 8.57617C45.9821 8.39844 45.944 8.22493 45.9102 8.05566C45.8848 7.87793 45.8721 7.7002 45.8721 7.52246C45.8721 7.36165 45.9271 7.2474 46.0371 7.17969C46.1556 7.11198 46.2868 7.07812 46.4307 7.07812C46.6084 7.07812 46.7523 7.13314 46.8623 7.24316C46.9723 7.34473 47.057 7.47591 47.1162 7.63672C47.1839 7.79753 47.2262 7.98372 47.2432 8.19531C47.2686 8.39844 47.2812 8.60156 47.2812 8.80469C47.2812 9.00781 47.277 9.20247 47.2686 9.38867C47.2601 9.56641 47.2559 9.71029 47.2559 9.82031C47.2559 10.1081 47.2347 10.4339 47.1924 10.7979C47.1501 11.1618 47.0739 11.5384 46.9639 11.9277C46.8623 12.3086 46.7311 12.6852 46.5703 13.0576C46.418 13.43 46.2275 13.7643 45.999 14.0605C45.779 14.3483 45.5208 14.5811 45.2246 14.7588C44.9368 14.9365 44.611 15.0254 44.2471 15.0254C43.8662 15.0254 43.5319 14.9365 43.2441 14.7588C42.9564 14.5726 42.7109 14.3314 42.5078 14.0352C42.3132 13.7305 42.1481 13.3877 42.0127 13.0068C41.8773 12.626 41.7715 12.2451 41.6953 11.8643C41.6276 11.4834 41.5768 11.1152 41.543 10.7598C41.5176 10.3958 41.5049 10.0827 41.5049 9.82031ZM47.751 8.60156C47.751 8.57617 47.7552 8.55501 47.7637 8.53809C47.7637 8.52116 47.7679 8.5 47.7764 8.47461C47.8102 8.43229 47.861 8.37728 47.9287 8.30957C47.9964 8.24186 48.0387 8.20801 48.0557 8.20801H50.6074C50.6074 8.11491 50.5947 7.9668 50.5693 7.76367C50.5439 7.56055 50.5186 7.33626 50.4932 7.09082C50.4762 6.84538 50.472 6.59147 50.4805 6.3291C50.4889 6.05827 50.5228 5.81706 50.582 5.60547C50.6497 5.38542 50.7513 5.20768 50.8867 5.07227C51.0306 4.92839 51.2295 4.85645 51.4834 4.85645C51.4834 5.71126 51.5426 6.39681 51.6611 6.91309C51.7796 7.42936 51.9362 7.82715 52.1309 8.10645C52.334 8.38574 52.5625 8.56771 52.8164 8.65234C53.0703 8.73698 53.3285 8.77507 53.5908 8.7666C53.8617 8.74967 54.124 8.70736 54.3779 8.63965C54.6318 8.57194 54.8561 8.52539 55.0508 8.5C55.2539 8.47461 55.4147 8.49577 55.5332 8.56348C55.6517 8.62272 55.7109 8.77083 55.7109 9.00781C55.7109 9.18555 55.6686 9.3125 55.584 9.38867C55.5078 9.46484 55.3555 9.52409 55.127 9.56641C55.0592 9.57487 54.945 9.5918 54.7842 9.61719C54.6318 9.63411 54.4583 9.65104 54.2637 9.66797C54.069 9.6849 53.8617 9.70605 53.6416 9.73145C53.4215 9.74837 53.2142 9.7653 53.0195 9.78223C52.8249 9.79915 52.6471 9.81185 52.4863 9.82031C52.3255 9.82031 52.207 9.82031 52.1309 9.82031C52.1309 9.86263 52.1266 9.93457 52.1182 10.0361C52.1097 10.1377 52.1055 10.2054 52.1055 10.2393C52.1055 10.6117 52.1647 10.9756 52.2832 11.3311C52.4017 11.6781 52.5286 12.0251 52.6641 12.3721C52.8079 12.7191 52.9391 13.0661 53.0576 13.4131C53.1761 13.7601 53.2354 14.1198 53.2354 14.4922C53.2354 14.5599 53.2269 14.6318 53.21 14.708C53.2015 14.7757 53.1761 14.8392 53.1338 14.8984C53.0999 14.9492 53.0449 14.9873 52.9688 15.0127C52.901 15.0465 52.8037 15.0423 52.6768 15C52.3551 14.9154 52.1139 14.7334 51.9531 14.4541C51.8008 14.1748 51.6865 13.8447 51.6104 13.4639C51.5342 13.0745 51.4834 12.6641 51.458 12.2324C51.4326 11.8008 51.3903 11.3988 51.3311 11.0264C51.2803 10.6455 51.1956 10.3239 51.0771 10.0615C50.9587 9.79069 50.7682 9.62565 50.5059 9.56641L48.0557 9.00781C48.0218 9.00781 47.971 8.97396 47.9033 8.90625C47.8356 8.83008 47.7933 8.77507 47.7764 8.74121C47.7679 8.72428 47.7637 8.70312 47.7637 8.67773C47.7552 8.66081 47.751 8.63542 47.751 8.60156ZM62.0459 10.7217C62.0459 10.5016 62.1009 10.3451 62.2109 10.252C62.321 10.1504 62.4987 10.0996 62.7441 10.0996H62.8711C62.8965 10.235 62.9261 10.3916 62.96 10.5693C62.9938 10.7471 63.0446 10.929 63.1123 11.1152C63.18 11.3014 63.2604 11.4749 63.3535 11.6357C63.4466 11.7881 63.5609 11.9108 63.6963 12.0039C63.7048 11.7077 63.7767 11.4242 63.9121 11.1533C64.056 10.874 64.2295 10.6286 64.4326 10.417C64.6442 10.1969 64.8727 10.015 65.1182 9.87109C65.3721 9.71875 65.6217 9.61719 65.8672 9.56641H66.1465C66.5527 9.56641 66.8997 9.65951 67.1875 9.8457C67.4753 10.0234 67.7122 10.2604 67.8984 10.5566C68.0931 10.8444 68.2412 11.1745 68.3428 11.5469C68.4443 11.9193 68.5205 12.3001 68.5713 12.6895C68.6305 13.0703 68.6644 13.4427 68.6729 13.8066C68.6898 14.1621 68.6982 14.4668 68.6982 14.7207H67.7715C67.7207 14.2129 67.6572 13.7262 67.5811 13.2607C67.5557 13.0745 67.5218 12.8799 67.4795 12.6768C67.4372 12.4652 67.3906 12.2705 67.3398 12.0928C67.2891 11.9066 67.234 11.7373 67.1748 11.585C67.1156 11.4242 67.0479 11.2887 66.9717 11.1787C66.9378 11.1449 66.8913 11.0983 66.832 11.0391C66.7812 10.9798 66.7262 10.9206 66.667 10.8613C66.6077 10.8021 66.5527 10.7513 66.502 10.709C66.4512 10.6667 66.4215 10.6455 66.4131 10.6455C66.1592 10.5778 65.9391 10.6286 65.7529 10.7979C65.5667 10.9587 65.4017 11.1787 65.2578 11.458C65.1139 11.7373 64.9954 12.0547 64.9023 12.4102C64.8177 12.7656 64.7458 13.1084 64.6865 13.4385C64.6273 13.7601 64.585 14.0436 64.5596 14.2891C64.5342 14.526 64.5173 14.6699 64.5088 14.7207C64.2972 14.873 64.0983 14.9196 63.9121 14.8604C63.7259 14.7926 63.5482 14.6572 63.3789 14.4541C63.2181 14.251 63.07 13.9971 62.9346 13.6924C62.8076 13.3877 62.6891 13.0661 62.5791 12.7275C62.4691 12.3805 62.3675 12.0335 62.2744 11.6865C62.1898 11.3395 62.1136 11.0179 62.0459 10.7217ZM69.3965 12.4229C69.3965 11.8981 69.5192 11.4115 69.7646 10.9629C70.0101 10.5059 70.3317 10.1165 70.7295 9.79492C71.1357 9.46484 71.5885 9.20671 72.0879 9.02051C72.5957 8.83431 73.1077 8.74121 73.624 8.74121C73.9118 8.74121 74.1657 8.83431 74.3857 9.02051C74.6143 9.20671 74.8047 9.43522 74.957 9.70605C75.1094 9.96842 75.2236 10.2477 75.2998 10.5439C75.3844 10.8402 75.4268 11.0983 75.4268 11.3184C75.4268 11.7923 75.3125 12.2536 75.084 12.7021C74.8555 13.1423 74.5592 13.5358 74.1953 13.8828C73.8314 14.2214 73.4209 14.4964 72.9639 14.708C72.5068 14.9196 72.0498 15.0254 71.5928 15.0254C71.1865 15.0254 70.8438 14.9577 70.5645 14.8223C70.2852 14.6784 70.0609 14.4922 69.8916 14.2637C69.7223 14.0267 69.5954 13.7516 69.5107 13.4385C69.4346 13.1169 69.3965 12.7783 69.3965 12.4229ZM70.4756 12.5498C70.4756 12.7699 70.4925 12.9645 70.5264 13.1338C70.5687 13.2946 70.6364 13.4342 70.7295 13.5527C70.8311 13.6712 70.9622 13.7643 71.123 13.832C71.2839 13.8913 71.4827 13.9209 71.7197 13.9209C72.0329 13.9209 72.346 13.8363 72.6592 13.667C72.9723 13.4893 73.2516 13.2692 73.4971 13.0068C73.751 12.736 73.9541 12.4398 74.1064 12.1182C74.2588 11.7965 74.335 11.4834 74.335 11.1787C74.335 11.0433 74.3223 10.8952 74.2969 10.7344C74.2715 10.5736 74.2292 10.4255 74.1699 10.29C74.1107 10.1546 74.026 10.0404 73.916 9.94727C73.806 9.85417 73.6663 9.80762 73.4971 9.80762C73.3447 9.80762 73.1628 9.8584 72.9512 9.95996C72.748 10.0615 72.5322 10.1927 72.3037 10.3535C72.0837 10.5143 71.8636 10.6963 71.6436 10.8994C71.432 11.1025 71.2373 11.3057 71.0596 11.5088C70.8818 11.7119 70.738 11.9066 70.6279 12.0928C70.5264 12.279 70.4756 12.4313 70.4756 12.5498ZM75.9219 11.4707C75.9219 11.0137 75.9769 10.5566 76.0869 10.0996C76.1969 9.64258 76.3704 9.2321 76.6074 8.86816C76.8529 8.50423 77.166 8.20801 77.5469 7.97949C77.9362 7.75098 78.4059 7.63672 78.9561 7.63672C79.2692 7.63672 79.5443 7.69596 79.7812 7.81445C80.0182 7.92448 80.2171 8.07259 80.3779 8.25879C80.5387 8.44499 80.6572 8.66504 80.7334 8.91895C80.818 9.16439 80.8604 9.42253 80.8604 9.69336C80.8604 10.125 80.7588 10.5439 80.5557 10.9502C80.361 11.3564 80.0944 11.7161 79.7559 12.0293C79.4258 12.334 79.0449 12.5667 78.6133 12.7275C78.1816 12.8799 77.7415 12.9137 77.293 12.8291C77.3014 13.0745 77.3818 13.2734 77.5342 13.4258C77.695 13.5697 77.8854 13.6797 78.1055 13.7559C78.3255 13.832 78.554 13.8828 78.791 13.9082C79.028 13.9251 79.2396 13.9336 79.4258 13.9336C79.6204 13.9336 79.8024 13.9167 79.9717 13.8828C80.141 13.849 80.3102 13.8109 80.4795 13.7686C80.6488 13.7262 80.818 13.6882 80.9873 13.6543C81.165 13.6204 81.3512 13.6035 81.5459 13.6035C81.6221 13.6035 81.6982 13.6077 81.7744 13.6162C81.8506 13.6247 81.9225 13.6458 81.9902 13.6797C82.0579 13.7051 82.113 13.7516 82.1553 13.8193C82.1976 13.8786 82.2188 13.9548 82.2188 14.0479C82.2188 14.2087 82.1595 14.3441 82.041 14.4541C81.9225 14.5557 81.7702 14.6445 81.584 14.7207C81.4062 14.7969 81.2074 14.8561 80.9873 14.8984C80.7673 14.9323 80.5514 14.9619 80.3398 14.9873C80.1367 15.0042 79.9463 15.0127 79.7686 15.0127C79.5993 15.0212 79.4723 15.0254 79.3877 15.0254C78.846 15.0254 78.3594 14.9408 77.9277 14.7715C77.4961 14.5938 77.1322 14.3525 76.8359 14.0479C76.5397 13.7347 76.3112 13.3623 76.1504 12.9307C75.998 12.4906 75.9219 12.0039 75.9219 11.4707ZM77.2676 10.6455C77.2676 10.9417 77.3057 11.1576 77.3818 11.293C77.4665 11.4284 77.6654 11.4961 77.9785 11.4961C78.1986 11.4961 78.4144 11.458 78.626 11.3818C78.8376 11.2972 79.028 11.1829 79.1973 11.0391C79.375 10.8952 79.5146 10.7259 79.6162 10.5312C79.7178 10.3366 79.7686 10.125 79.7686 9.89648C79.7686 9.76953 79.7559 9.63835 79.7305 9.50293C79.7135 9.36751 79.6712 9.24479 79.6035 9.13477C79.5358 9.01628 79.4469 8.92318 79.3369 8.85547C79.2354 8.7793 79.0999 8.74121 78.9307 8.74121C78.6768 8.74121 78.444 8.80046 78.2324 8.91895C78.0293 9.02897 77.8558 9.17708 77.7119 9.36328C77.568 9.54102 77.458 9.74414 77.3818 9.97266C77.3057 10.1927 77.2676 10.417 77.2676 10.6455ZM83.0059 10.7217C83.0059 10.5016 83.0609 10.3451 83.1709 10.252C83.2809 10.1504 83.4587 10.0996 83.7041 10.0996H83.8311C83.8564 10.235 83.8861 10.3916 83.9199 10.5693C83.9538 10.7471 84.0046 10.929 84.0723 11.1152C84.14 11.3014 84.2204 11.4749 84.3135 11.6357C84.4066 11.7881 84.5208 11.9108 84.6562 12.0039C84.6647 11.7077 84.7367 11.4242 84.8721 11.1533C85.016 10.874 85.1895 10.6286 85.3926 10.417C85.6042 10.1969 85.8327 10.015 86.0781 9.87109C86.332 9.71875 86.5817 9.61719 86.8271 9.56641H87.1064C87.5127 9.56641 87.8597 9.65951 88.1475 9.8457C88.4352 10.0234 88.6722 10.2604 88.8584 10.5566C89.0531 10.8444 89.2012 11.1745 89.3027 11.5469C89.4043 11.9193 89.4805 12.3001 89.5312 12.6895C89.5905 13.0703 89.6243 13.4427 89.6328 13.8066C89.6497 14.1621 89.6582 14.4668 89.6582 14.7207H88.7314C88.6807 14.2129 88.6172 13.7262 88.541 13.2607C88.5156 13.0745 88.4818 12.8799 88.4395 12.6768C88.3971 12.4652 88.3506 12.2705 88.2998 12.0928C88.249 11.9066 88.194 11.7373 88.1348 11.585C88.0755 11.4242 88.0078 11.2887 87.9316 11.1787C87.8978 11.1449 87.8512 11.0983 87.792 11.0391C87.7412 10.9798 87.6862 10.9206 87.627 10.8613C87.5677 10.8021 87.5127 10.7513 87.4619 10.709C87.4111 10.6667 87.3815 10.6455 87.373 10.6455C87.1191 10.5778 86.8991 10.6286 86.7129 10.7979C86.5267 10.9587 86.3617 11.1787 86.2178 11.458C86.0739 11.7373 85.9554 12.0547 85.8623 12.4102C85.7777 12.7656 85.7057 13.1084 85.6465 13.4385C85.5872 13.7601 85.5449 14.0436 85.5195 14.2891C85.4941 14.526 85.4772 14.6699 85.4688 14.7207C85.2572 14.873 85.0583 14.9196 84.8721 14.8604C84.6859 14.7926 84.5081 14.6572 84.3389 14.4541C84.1781 14.251 84.0299 13.9971 83.8945 13.6924C83.7676 13.3877 83.6491 13.0661 83.5391 12.7275C83.429 12.3805 83.3275 12.0335 83.2344 11.6865C83.1497 11.3395 83.0736 11.0179 83.0059 10.7217ZM101.668 13.3623C101.346 13.5824 101.067 13.7812 100.83 13.959C100.602 14.1283 100.377 14.2721 100.157 14.3906C99.9372 14.5091 99.7002 14.598 99.4463 14.6572C99.2008 14.7165 98.8962 14.7461 98.5322 14.7461C97.7451 14.7461 97.1611 14.5387 96.7803 14.124C96.3994 13.7008 96.209 13.0745 96.209 12.2451C96.209 11.9235 96.2513 11.5892 96.3359 11.2422C96.4206 10.8952 96.5433 10.5524 96.7041 10.2139C96.8734 9.86686 97.0723 9.54102 97.3008 9.23633C97.5293 8.92318 97.7874 8.64811 98.0752 8.41113C98.363 8.17415 98.6676 7.98796 98.9893 7.85254C99.3193 7.70866 99.6663 7.63672 100.03 7.63672C100.64 7.69596 101.118 7.84831 101.465 8.09375C101.812 8.33073 102.074 8.63965 102.252 9.02051C102.43 9.3929 102.552 9.81185 102.62 10.2773C102.688 10.7344 102.739 11.2083 102.772 11.6992C102.815 12.1901 102.866 12.681 102.925 13.1719C102.984 13.6628 103.107 14.1156 103.293 14.5303C103.183 14.8096 103.077 15.0042 102.976 15.1143C102.882 15.2327 102.777 15.2539 102.658 15.1777C102.54 15.1016 102.4 14.9154 102.239 14.6191C102.087 14.3229 101.896 13.904 101.668 13.3623ZM97.2881 12.2705C97.2881 12.7529 97.377 13.1084 97.5547 13.3369C97.7409 13.557 98.0667 13.667 98.5322 13.667C98.8792 13.667 99.2093 13.6077 99.5225 13.4893C99.8441 13.3623 100.123 13.193 100.36 12.9814C100.597 12.7614 100.788 12.499 100.932 12.1943C101.076 11.8896 101.147 11.5511 101.147 11.1787C101.147 11.0264 101.152 10.8148 101.16 10.5439C101.169 10.2646 101.152 9.98958 101.109 9.71875C101.067 9.44792 100.987 9.21517 100.868 9.02051C100.75 8.81738 100.572 8.71582 100.335 8.71582C99.8949 8.71582 99.4886 8.83008 99.1162 9.05859C98.7438 9.27865 98.4222 9.56217 98.1514 9.90918C97.8805 10.2562 97.6689 10.6413 97.5166 11.0645C97.3643 11.4792 97.2881 11.8812 97.2881 12.2705ZM104.017 8.38574C104.076 8.18262 104.144 8.08952 104.22 8.10645C104.304 8.12337 104.406 8.2207 104.524 8.39844C104.643 8.57617 104.774 8.81315 104.918 9.10938C105.07 9.4056 105.231 9.72721 105.4 10.0742C105.57 10.4128 105.752 10.7598 105.946 11.1152C106.149 11.4707 106.357 11.7965 106.568 12.0928C106.788 12.389 107.017 12.6344 107.254 12.8291C107.499 13.0238 107.749 13.138 108.003 13.1719L109.019 7.91602C109.035 7.77214 109.099 7.69173 109.209 7.6748C109.327 7.64941 109.442 7.63672 109.552 7.63672C109.933 7.63672 110.123 7.81445 110.123 8.16992C110.123 8.35612 110.106 8.65234 110.072 9.05859C110.038 9.46484 109.983 9.91341 109.907 10.4043C109.831 10.8867 109.738 11.3861 109.628 11.9023C109.518 12.4102 109.387 12.8757 109.234 13.2988C109.082 13.722 108.904 14.069 108.701 14.3398C108.507 14.6107 108.291 14.7461 108.054 14.7461C107.707 14.7461 107.364 14.6318 107.025 14.4033C106.687 14.1663 106.365 13.8617 106.061 13.4893C105.764 13.1084 105.489 12.6852 105.235 12.2197C104.99 11.7542 104.774 11.2887 104.588 10.8232C104.41 10.3493 104.271 9.89648 104.169 9.46484C104.067 9.0332 104.017 8.6735 104.017 8.38574ZM116.737 10.3154C116.737 9.49447 116.928 8.88509 117.309 8.4873C117.689 8.08952 118.273 7.89062 119.061 7.89062C119.382 7.89062 119.712 7.92025 120.051 7.97949C120.398 8.03874 120.715 8.14453 121.003 8.29688C121.291 8.44076 121.523 8.64388 121.701 8.90625C121.887 9.16862 121.98 9.50716 121.98 9.92188C121.98 10.3789 121.879 10.8105 121.676 11.2168C121.481 11.6146 121.231 11.9912 120.927 12.3467C120.631 12.6937 120.3 13.0195 119.937 13.3242C119.581 13.6204 119.247 13.904 118.934 14.1748C118.917 14.2087 118.9 14.2806 118.883 14.3906C118.874 14.4922 118.87 14.5599 118.87 14.5938C118.87 14.873 118.951 15.1523 119.111 15.4316C119.281 15.7194 119.463 16.0072 119.657 16.2949C119.852 16.5911 120.03 16.8958 120.19 17.209C120.351 17.5221 120.432 17.848 120.432 18.1865C120.432 18.3896 120.389 18.5081 120.305 18.542C120.22 18.5843 120.042 18.6055 119.771 18.6055C119.602 18.5378 119.433 18.377 119.264 18.123C119.103 17.8776 118.938 17.5729 118.769 17.209C118.608 16.8451 118.447 16.4346 118.286 15.9775C118.134 15.529 117.986 15.0719 117.842 14.6064C117.706 14.1325 117.575 13.667 117.448 13.21C117.33 12.7445 117.224 12.3171 117.131 11.9277C117.038 11.5384 116.953 11.2041 116.877 10.9248C116.809 10.637 116.763 10.4339 116.737 10.3154ZM117.816 10.4297C117.816 10.5566 117.825 10.7428 117.842 10.9883C117.859 11.2253 117.893 11.4622 117.943 11.6992C118.003 11.9362 118.087 12.1436 118.197 12.3213C118.307 12.4906 118.46 12.5752 118.654 12.5752C118.917 12.5752 119.179 12.4863 119.441 12.3086C119.712 12.1309 119.949 11.9066 120.152 11.6357C120.364 11.3649 120.533 11.0771 120.66 10.7725C120.796 10.4593 120.863 10.1758 120.863 9.92188C120.863 9.71029 120.812 9.54525 120.711 9.42676C120.609 9.2998 120.478 9.20247 120.317 9.13477C120.165 9.05859 120 9.01204 119.822 8.99512C119.645 8.96973 119.475 8.95703 119.314 8.95703C118.832 8.95703 118.46 9.08822 118.197 9.35059C117.943 9.60449 117.816 9.96419 117.816 10.4297ZM122.729 9.66797C122.729 9.5918 122.734 9.51562 122.742 9.43945C122.751 9.35482 122.768 9.28288 122.793 9.22363C122.818 9.15592 122.856 9.10091 122.907 9.05859C122.966 9.01628 123.047 8.99512 123.148 8.99512C123.233 8.99512 123.326 9.06283 123.428 9.19824C123.538 9.3252 123.648 9.49023 123.758 9.69336C123.868 9.88802 123.974 10.1038 124.075 10.3408C124.185 10.5778 124.278 10.7979 124.354 11.001C124.439 11.1956 124.507 11.3649 124.558 11.5088C124.608 11.6527 124.638 11.7288 124.646 11.7373C124.757 11.4411 124.879 11.1195 125.015 10.7725C125.15 10.4255 125.315 10.1038 125.51 9.80762C125.713 9.50293 125.95 9.24902 126.221 9.0459C126.5 8.84277 126.839 8.74121 127.236 8.74121C127.439 8.74121 127.63 8.77507 127.808 8.84277C127.994 8.90202 128.155 8.99512 128.29 9.12207C128.434 9.24056 128.548 9.38444 128.633 9.55371C128.717 9.72298 128.76 9.91764 128.76 10.1377C128.76 10.3239 128.684 10.4551 128.531 10.5312C128.387 10.6074 128.222 10.6455 128.036 10.6455H127.909L127.363 10.0996C127.346 10.0996 127.334 10.0954 127.325 10.0869C127.308 10.0869 127.291 10.0869 127.274 10.0869C127.266 10.0785 127.253 10.0742 127.236 10.0742C126.94 10.0742 126.707 10.1589 126.538 10.3281C126.377 10.4889 126.255 10.6921 126.17 10.9375C126.085 11.1745 126.03 11.4284 126.005 11.6992C125.988 11.9616 125.979 12.2028 125.979 12.4229C125.979 12.5921 125.996 12.7656 126.03 12.9434C126.064 13.1126 126.102 13.2819 126.145 13.4512C126.187 13.612 126.225 13.7812 126.259 13.959C126.293 14.1283 126.31 14.306 126.31 14.4922C126.31 14.8477 126.119 15.0254 125.738 15.0254C125.527 15.0254 125.307 14.9154 125.078 14.6953C124.85 14.4668 124.621 14.179 124.393 13.832C124.173 13.485 123.961 13.1042 123.758 12.6895C123.555 12.2663 123.377 11.8558 123.225 11.458C123.072 11.0602 122.95 10.7005 122.856 10.3789C122.772 10.0573 122.729 9.82031 122.729 9.66797ZM129.217 12.4229C129.217 11.8981 129.34 11.4115 129.585 10.9629C129.83 10.5059 130.152 10.1165 130.55 9.79492C130.956 9.46484 131.409 9.20671 131.908 9.02051C132.416 8.83431 132.928 8.74121 133.444 8.74121C133.732 8.74121 133.986 8.83431 134.206 9.02051C134.435 9.20671 134.625 9.43522 134.777 9.70605C134.93 9.96842 135.044 10.2477 135.12 10.5439C135.205 10.8402 135.247 11.0983 135.247 11.3184C135.247 11.7923 135.133 12.2536 134.904 12.7021C134.676 13.1423 134.38 13.5358 134.016 13.8828C133.652 14.2214 133.241 14.4964 132.784 14.708C132.327 14.9196 131.87 15.0254 131.413 15.0254C131.007 15.0254 130.664 14.9577 130.385 14.8223C130.105 14.6784 129.881 14.4922 129.712 14.2637C129.543 14.0267 129.416 13.7516 129.331 13.4385C129.255 13.1169 129.217 12.7783 129.217 12.4229ZM130.296 12.5498C130.296 12.7699 130.313 12.9645 130.347 13.1338C130.389 13.2946 130.457 13.4342 130.55 13.5527C130.651 13.6712 130.783 13.7643 130.943 13.832C131.104 13.8913 131.303 13.9209 131.54 13.9209C131.853 13.9209 132.166 13.8363 132.479 13.667C132.793 13.4893 133.072 13.2692 133.317 13.0068C133.571 12.736 133.774 12.4398 133.927 12.1182C134.079 11.7965 134.155 11.4834 134.155 11.1787C134.155 11.0433 134.143 10.8952 134.117 10.7344C134.092 10.5736 134.049 10.4255 133.99 10.29C133.931 10.1546 133.846 10.0404 133.736 9.94727C133.626 9.85417 133.487 9.80762 133.317 9.80762C133.165 9.80762 132.983 9.8584 132.771 9.95996C132.568 10.0615 132.353 10.1927 132.124 10.3535C131.904 10.5143 131.684 10.6963 131.464 10.8994C131.252 11.1025 131.058 11.3057 130.88 11.5088C130.702 11.7119 130.558 11.9066 130.448 12.0928C130.347 12.279 130.296 12.4313 130.296 12.5498ZM138.18 14.4287C138.315 14.3356 138.476 14.2171 138.662 14.0732C138.857 13.9209 139.051 13.7601 139.246 13.5908C139.441 13.4215 139.623 13.2438 139.792 13.0576C139.961 12.8714 140.092 12.6937 140.186 12.5244C140.287 12.3467 140.338 12.1816 140.338 12.0293C140.338 11.877 140.262 11.75 140.109 11.6484C139.839 11.6484 139.542 11.6611 139.221 11.6865C138.899 11.7035 138.577 11.7119 138.256 11.7119C137.934 11.7035 137.621 11.6738 137.316 11.623C137.02 11.5723 136.754 11.4792 136.517 11.3438C136.28 11.2083 136.089 11.0179 135.945 10.7725C135.81 10.5186 135.742 10.1969 135.742 9.80762C135.742 9.35059 135.827 8.9401 135.996 8.57617C136.174 8.20378 136.407 7.87793 136.694 7.59863C136.982 7.31087 137.304 7.0612 137.659 6.84961C138.023 6.62956 138.387 6.44336 138.751 6.29102C138.971 6.35026 139.174 6.45605 139.36 6.6084C139.547 6.76074 139.707 6.93001 139.843 7.11621C139.784 7.30241 139.665 7.44629 139.487 7.54785C139.318 7.64941 139.119 7.73828 138.891 7.81445C138.671 7.89062 138.438 7.97103 138.192 8.05566C137.947 8.1403 137.723 8.25456 137.52 8.39844C137.325 8.53385 137.16 8.71582 137.024 8.94434C136.889 9.16439 136.821 9.45638 136.821 9.82031C136.821 10.0911 136.889 10.29 137.024 10.417C137.16 10.5439 137.338 10.6328 137.558 10.6836C137.778 10.7259 138.027 10.7428 138.307 10.7344C138.586 10.7174 138.869 10.6963 139.157 10.6709C139.453 10.6455 139.741 10.6328 140.021 10.6328C140.3 10.6243 140.549 10.6582 140.77 10.7344C140.99 10.8021 141.163 10.9163 141.29 11.0771C141.425 11.238 141.493 11.4749 141.493 11.7881C141.493 11.9235 141.447 12.097 141.354 12.3086C141.269 12.5202 141.15 12.7487 140.998 12.9941C140.854 13.2311 140.681 13.4681 140.478 13.7051C140.283 13.9421 140.076 14.1579 139.855 14.3525C139.644 14.5387 139.428 14.6953 139.208 14.8223C138.996 14.9408 138.798 15 138.611 15C138.434 15 138.315 14.9365 138.256 14.8096C138.205 14.6826 138.18 14.5557 138.18 14.4287ZM138.992 18.999C139.238 18.999 139.462 19.0625 139.665 19.1895C139.868 19.3164 140.084 19.4518 140.312 19.5957C140.533 19.748 140.774 19.8877 141.036 20.0146C141.299 20.1416 141.603 20.2051 141.95 20.2051C142.297 20.2051 142.636 20.1585 142.966 20.0654C143.296 19.9808 143.592 19.8454 143.854 19.6592C144.117 19.4814 144.328 19.2445 144.489 18.9482C144.65 18.6605 144.73 18.3177 144.73 17.9199C144.73 17.2598 144.675 16.5742 144.565 15.8633C144.464 15.1523 144.328 14.4456 144.159 13.7432C143.998 13.0322 143.821 12.3424 143.626 11.6738C143.44 11.0052 143.266 10.3874 143.105 9.82031C143.105 9.81185 143.101 9.79069 143.093 9.75684C143.084 9.72298 143.08 9.70182 143.08 9.69336C143.08 9.52409 143.139 9.40983 143.258 9.35059C143.376 9.28288 143.503 9.24902 143.639 9.24902C143.673 9.24902 143.723 9.25326 143.791 9.26172C143.859 9.27018 143.901 9.27441 143.918 9.27441C144.18 9.93457 144.426 10.6117 144.654 11.3057C144.891 11.9912 145.099 12.6895 145.276 13.4004C145.454 14.1113 145.594 14.8223 145.695 15.5332C145.797 16.2526 145.848 16.9635 145.848 17.666C145.848 18.2161 145.75 18.7155 145.556 19.1641C145.369 19.6126 145.107 19.9935 144.769 20.3066C144.43 20.6198 144.024 20.861 143.55 21.0303C143.084 21.1995 142.576 21.2842 142.026 21.2842C141.662 21.2842 141.303 21.2419 140.947 21.1572C140.583 21.0811 140.257 20.9541 139.97 20.7764C139.674 20.5986 139.437 20.3617 139.259 20.0654C139.081 19.7777 138.992 19.4222 138.992 18.999ZM141.976 6.15137C141.976 6.12598 141.976 6.0752 141.976 5.99902C141.976 5.92285 141.984 5.84668 142.001 5.77051C142.018 5.68587 142.048 5.61393 142.09 5.55469C142.132 5.49544 142.196 5.46582 142.28 5.46582C142.424 5.46582 142.534 5.48698 142.61 5.5293C142.687 5.56315 142.742 5.6097 142.775 5.66895C142.809 5.71973 142.83 5.78743 142.839 5.87207C142.847 5.94824 142.852 6.03711 142.852 6.13867C142.852 6.20638 142.847 6.28255 142.839 6.36719C142.83 6.45182 142.813 6.53223 142.788 6.6084C142.763 6.68457 142.72 6.74805 142.661 6.79883C142.602 6.84115 142.521 6.8623 142.42 6.8623C142.318 6.8623 142.238 6.84115 142.179 6.79883C142.119 6.74805 142.073 6.6888 142.039 6.62109C142.014 6.55339 141.997 6.47721 141.988 6.39258C141.98 6.30794 141.976 6.22754 141.976 6.15137ZM145.822 11.4707C145.822 11.0137 145.877 10.5566 145.987 10.0996C146.097 9.64258 146.271 9.2321 146.508 8.86816C146.753 8.50423 147.066 8.20801 147.447 7.97949C147.837 7.75098 148.306 7.63672 148.856 7.63672C149.17 7.63672 149.445 7.69596 149.682 7.81445C149.919 7.92448 150.118 8.07259 150.278 8.25879C150.439 8.44499 150.558 8.66504 150.634 8.91895C150.718 9.16439 150.761 9.42253 150.761 9.69336C150.761 10.125 150.659 10.5439 150.456 10.9502C150.261 11.3564 149.995 11.7161 149.656 12.0293C149.326 12.334 148.945 12.5667 148.514 12.7275C148.082 12.8799 147.642 12.9137 147.193 12.8291C147.202 13.0745 147.282 13.2734 147.435 13.4258C147.595 13.5697 147.786 13.6797 148.006 13.7559C148.226 13.832 148.454 13.8828 148.691 13.9082C148.928 13.9251 149.14 13.9336 149.326 13.9336C149.521 13.9336 149.703 13.9167 149.872 13.8828C150.041 13.849 150.211 13.8109 150.38 13.7686C150.549 13.7262 150.718 13.6882 150.888 13.6543C151.065 13.6204 151.252 13.6035 151.446 13.6035C151.522 13.6035 151.599 13.6077 151.675 13.6162C151.751 13.6247 151.823 13.6458 151.891 13.6797C151.958 13.7051 152.013 13.7516 152.056 13.8193C152.098 13.8786 152.119 13.9548 152.119 14.0479C152.119 14.2087 152.06 14.3441 151.941 14.4541C151.823 14.5557 151.671 14.6445 151.484 14.7207C151.307 14.7969 151.108 14.8561 150.888 14.8984C150.668 14.9323 150.452 14.9619 150.24 14.9873C150.037 15.0042 149.847 15.0127 149.669 15.0127C149.5 15.0212 149.373 15.0254 149.288 15.0254C148.746 15.0254 148.26 14.9408 147.828 14.7715C147.396 14.5938 147.033 14.3525 146.736 14.0479C146.44 13.7347 146.212 13.3623 146.051 12.9307C145.898 12.4906 145.822 12.0039 145.822 11.4707ZM147.168 10.6455C147.168 10.9417 147.206 11.1576 147.282 11.293C147.367 11.4284 147.566 11.4961 147.879 11.4961C148.099 11.4961 148.315 11.458 148.526 11.3818C148.738 11.2972 148.928 11.1829 149.098 11.0391C149.275 10.8952 149.415 10.7259 149.517 10.5312C149.618 10.3366 149.669 10.125 149.669 9.89648C149.669 9.76953 149.656 9.63835 149.631 9.50293C149.614 9.36751 149.572 9.24479 149.504 9.13477C149.436 9.01628 149.347 8.92318 149.237 8.85547C149.136 8.7793 149 8.74121 148.831 8.74121C148.577 8.74121 148.344 8.80046 148.133 8.91895C147.93 9.02897 147.756 9.17708 147.612 9.36328C147.468 9.54102 147.358 9.74414 147.282 9.97266C147.206 10.1927 147.168 10.417 147.168 10.6455ZM155.369 14.7461C155.234 14.8646 155.09 14.8096 154.938 14.5811C154.794 14.3525 154.646 14.0098 154.493 13.5527C154.341 13.0872 154.188 12.5329 154.036 11.8896C153.892 11.2464 153.753 10.5651 153.617 9.8457C153.482 9.1263 153.351 8.39844 153.224 7.66211C153.105 6.91732 152.999 6.21908 152.906 5.56738C152.906 5.44889 152.902 5.3304 152.894 5.21191C152.894 5.08496 152.906 4.9707 152.932 4.86914C152.965 4.75911 153.021 4.66178 153.097 4.57715C153.181 4.49251 153.308 4.42904 153.478 4.38672C153.494 4.37826 153.528 4.38672 153.579 4.41211C153.638 4.42904 153.698 4.45443 153.757 4.48828C153.816 4.51367 153.867 4.54329 153.909 4.57715C153.96 4.611 153.994 4.64062 154.011 4.66602C153.901 6.2487 154.083 7.78906 154.557 9.28711C154.582 9.26172 154.65 9.17708 154.76 9.0332C154.87 8.88086 155.009 8.70736 155.179 8.5127C155.348 8.30957 155.538 8.09375 155.75 7.86523C155.97 7.63672 156.199 7.42513 156.436 7.23047C156.673 7.03581 156.91 6.875 157.146 6.74805C157.383 6.61263 157.612 6.54492 157.832 6.54492C157.959 6.54492 158.082 6.57454 158.2 6.63379C158.327 6.69303 158.391 6.80729 158.391 6.97656C158.391 6.99349 158.386 7.01888 158.378 7.05273C158.369 7.07812 158.365 7.09928 158.365 7.11621C158.23 7.2347 158.022 7.41667 157.743 7.66211C157.472 7.90755 157.185 8.18262 156.88 8.4873C156.575 8.79199 156.283 9.10938 156.004 9.43945C155.725 9.76953 155.513 10.0827 155.369 10.3789C155.344 10.4297 155.335 10.4762 155.344 10.5186C155.352 10.5524 155.361 10.5947 155.369 10.6455C155.462 10.6794 155.61 10.7301 155.813 10.7979C156.017 10.8656 156.241 10.946 156.486 11.0391C156.732 11.1237 156.994 11.2168 157.273 11.3184C157.553 11.4115 157.815 11.5046 158.061 11.5977C158.306 11.6908 158.526 11.7754 158.721 11.8516C158.924 11.9193 159.076 11.9701 159.178 12.0039C159.296 12.0547 159.394 12.0885 159.47 12.1055C159.546 12.1224 159.605 12.1478 159.647 12.1816C159.69 12.207 159.719 12.2451 159.736 12.2959C159.753 12.3467 159.762 12.4229 159.762 12.5244C159.762 12.7699 159.702 12.9307 159.584 13.0068C159.465 13.083 159.296 13.1211 159.076 13.1211C158.424 13.0788 157.785 12.9434 157.159 12.7148C156.533 12.4779 155.898 12.1943 155.255 11.8643C155.229 12.0251 155.238 12.2113 155.28 12.4229C155.331 12.6344 155.39 12.846 155.458 13.0576C155.526 13.2692 155.589 13.4766 155.648 13.6797C155.716 13.8828 155.754 14.0648 155.763 14.2256C155.78 14.3864 155.763 14.5133 155.712 14.6064C155.661 14.6995 155.547 14.7461 155.369 14.7461ZM159.978 8.60156C159.978 8.57617 159.982 8.55501 159.99 8.53809C159.99 8.52116 159.994 8.5 160.003 8.47461C160.037 8.43229 160.088 8.37728 160.155 8.30957C160.223 8.24186 160.265 8.20801 160.282 8.20801H162.834C162.834 8.11491 162.821 7.9668 162.796 7.76367C162.771 7.56055 162.745 7.33626 162.72 7.09082C162.703 6.84538 162.699 6.59147 162.707 6.3291C162.715 6.05827 162.749 5.81706 162.809 5.60547C162.876 5.38542 162.978 5.20768 163.113 5.07227C163.257 4.92839 163.456 4.85645 163.71 4.85645C163.71 5.71126 163.769 6.39681 163.888 6.91309C164.006 7.42936 164.163 7.82715 164.357 8.10645C164.561 8.38574 164.789 8.56771 165.043 8.65234C165.297 8.73698 165.555 8.77507 165.817 8.7666C166.088 8.74967 166.351 8.70736 166.604 8.63965C166.858 8.57194 167.083 8.52539 167.277 8.5C167.48 8.47461 167.641 8.49577 167.76 8.56348C167.878 8.62272 167.938 8.77083 167.938 9.00781C167.938 9.18555 167.895 9.3125 167.811 9.38867C167.734 9.46484 167.582 9.52409 167.354 9.56641C167.286 9.57487 167.172 9.5918 167.011 9.61719C166.858 9.63411 166.685 9.65104 166.49 9.66797C166.296 9.6849 166.088 9.70605 165.868 9.73145C165.648 9.74837 165.441 9.7653 165.246 9.78223C165.051 9.79915 164.874 9.81185 164.713 9.82031C164.552 9.82031 164.434 9.82031 164.357 9.82031C164.357 9.86263 164.353 9.93457 164.345 10.0361C164.336 10.1377 164.332 10.2054 164.332 10.2393C164.332 10.6117 164.391 10.9756 164.51 11.3311C164.628 11.6781 164.755 12.0251 164.891 12.3721C165.035 12.7191 165.166 13.0661 165.284 13.4131C165.403 13.7601 165.462 14.1198 165.462 14.4922C165.462 14.5599 165.453 14.6318 165.437 14.708C165.428 14.7757 165.403 14.8392 165.36 14.8984C165.326 14.9492 165.271 14.9873 165.195 15.0127C165.128 15.0465 165.03 15.0423 164.903 15C164.582 14.9154 164.34 14.7334 164.18 14.4541C164.027 14.1748 163.913 13.8447 163.837 13.4639C163.761 13.0745 163.71 12.6641 163.685 12.2324C163.659 11.8008 163.617 11.3988 163.558 11.0264C163.507 10.6455 163.422 10.3239 163.304 10.0615C163.185 9.79069 162.995 9.62565 162.732 9.56641L160.282 9.00781C160.248 9.00781 160.198 8.97396 160.13 8.90625C160.062 8.83008 160.02 8.77507 160.003 8.74121C159.994 8.72428 159.99 8.70312 159.99 8.67773C159.982 8.66081 159.978 8.63542 159.978 8.60156ZM168.42 11.4707C168.42 11.0137 168.475 10.5566 168.585 10.0996C168.695 9.64258 168.868 9.2321 169.105 8.86816C169.351 8.50423 169.664 8.20801 170.045 7.97949C170.434 7.75098 170.904 7.63672 171.454 7.63672C171.767 7.63672 172.042 7.69596 172.279 7.81445C172.516 7.92448 172.715 8.07259 172.876 8.25879C173.037 8.44499 173.155 8.66504 173.231 8.91895C173.316 9.16439 173.358 9.42253 173.358 9.69336C173.358 10.125 173.257 10.5439 173.054 10.9502C172.859 11.3564 172.592 11.7161 172.254 12.0293C171.924 12.334 171.543 12.5667 171.111 12.7275C170.68 12.8799 170.24 12.9137 169.791 12.8291C169.799 13.0745 169.88 13.2734 170.032 13.4258C170.193 13.5697 170.383 13.6797 170.604 13.7559C170.824 13.832 171.052 13.8828 171.289 13.9082C171.526 13.9251 171.738 13.9336 171.924 13.9336C172.118 13.9336 172.3 13.9167 172.47 13.8828C172.639 13.849 172.808 13.8109 172.978 13.7686C173.147 13.7262 173.316 13.6882 173.485 13.6543C173.663 13.6204 173.849 13.6035 174.044 13.6035C174.12 13.6035 174.196 13.6077 174.272 13.6162C174.349 13.6247 174.421 13.6458 174.488 13.6797C174.556 13.7051 174.611 13.7516 174.653 13.8193C174.696 13.8786 174.717 13.9548 174.717 14.0479C174.717 14.2087 174.658 14.3441 174.539 14.4541C174.421 14.5557 174.268 14.6445 174.082 14.7207C173.904 14.7969 173.705 14.8561 173.485 14.8984C173.265 14.9323 173.049 14.9619 172.838 14.9873C172.635 15.0042 172.444 15.0127 172.267 15.0127C172.097 15.0212 171.97 15.0254 171.886 15.0254C171.344 15.0254 170.857 14.9408 170.426 14.7715C169.994 14.5938 169.63 14.3525 169.334 14.0479C169.038 13.7347 168.809 13.3623 168.648 12.9307C168.496 12.4906 168.42 12.0039 168.42 11.4707ZM169.766 10.6455C169.766 10.9417 169.804 11.1576 169.88 11.293C169.965 11.4284 170.163 11.4961 170.477 11.4961C170.697 11.4961 170.912 11.458 171.124 11.3818C171.336 11.2972 171.526 11.1829 171.695 11.0391C171.873 10.8952 172.013 10.7259 172.114 10.5312C172.216 10.3366 172.267 10.125 172.267 9.89648C172.267 9.76953 172.254 9.63835 172.229 9.50293C172.212 9.36751 172.169 9.24479 172.102 9.13477C172.034 9.01628 171.945 8.92318 171.835 8.85547C171.733 8.7793 171.598 8.74121 171.429 8.74121C171.175 8.74121 170.942 8.80046 170.73 8.91895C170.527 9.02897 170.354 9.17708 170.21 9.36328C170.066 9.54102 169.956 9.74414 169.88 9.97266C169.804 10.1927 169.766 10.417 169.766 10.6455ZM175.504 10.7217C175.504 10.5016 175.559 10.3451 175.669 10.252C175.779 10.1504 175.957 10.0996 176.202 10.0996H176.329C176.354 10.235 176.384 10.3916 176.418 10.5693C176.452 10.7471 176.503 10.929 176.57 11.1152C176.638 11.3014 176.718 11.4749 176.812 11.6357C176.905 11.7881 177.019 11.9108 177.154 12.0039C177.163 11.7077 177.235 11.4242 177.37 11.1533C177.514 10.874 177.688 10.6286 177.891 10.417C178.102 10.1969 178.331 10.015 178.576 9.87109C178.83 9.71875 179.08 9.61719 179.325 9.56641H179.604C180.011 9.56641 180.358 9.65951 180.646 9.8457C180.933 10.0234 181.17 10.2604 181.356 10.5566C181.551 10.8444 181.699 11.1745 181.801 11.5469C181.902 11.9193 181.979 12.3001 182.029 12.6895C182.089 13.0703 182.122 13.4427 182.131 13.8066C182.148 14.1621 182.156 14.4668 182.156 14.7207H181.229C181.179 14.2129 181.115 13.7262 181.039 13.2607C181.014 13.0745 180.98 12.8799 180.938 12.6768C180.895 12.4652 180.849 12.2705 180.798 12.0928C180.747 11.9066 180.692 11.7373 180.633 11.585C180.574 11.4242 180.506 11.2887 180.43 11.1787C180.396 11.1449 180.349 11.0983 180.29 11.0391C180.239 10.9798 180.184 10.9206 180.125 10.8613C180.066 10.8021 180.011 10.7513 179.96 10.709C179.909 10.6667 179.88 10.6455 179.871 10.6455C179.617 10.5778 179.397 10.6286 179.211 10.7979C179.025 10.9587 178.86 11.1787 178.716 11.458C178.572 11.7373 178.453 12.0547 178.36 12.4102C178.276 12.7656 178.204 13.1084 178.145 13.4385C178.085 13.7601 178.043 14.0436 178.018 14.2891C177.992 14.526 177.975 14.6699 177.967 14.7207C177.755 14.873 177.556 14.9196 177.37 14.8604C177.184 14.7926 177.006 14.6572 176.837 14.4541C176.676 14.251 176.528 13.9971 176.393 13.6924C176.266 13.3877 176.147 13.0661 176.037 12.7275C175.927 12.3805 175.826 12.0335 175.732 11.6865C175.648 11.3395 175.572 11.0179 175.504 10.7217ZM182.854 11.4707C182.854 11.0137 182.91 10.5566 183.02 10.0996C183.13 9.64258 183.303 9.2321 183.54 8.86816C183.785 8.50423 184.099 8.20801 184.479 7.97949C184.869 7.75098 185.339 7.63672 185.889 7.63672C186.202 7.63672 186.477 7.69596 186.714 7.81445C186.951 7.92448 187.15 8.07259 187.311 8.25879C187.471 8.44499 187.59 8.66504 187.666 8.91895C187.751 9.16439 187.793 9.42253 187.793 9.69336C187.793 10.125 187.691 10.5439 187.488 10.9502C187.294 11.3564 187.027 11.7161 186.688 12.0293C186.358 12.334 185.978 12.5667 185.546 12.7275C185.114 12.8799 184.674 12.9137 184.226 12.8291C184.234 13.0745 184.314 13.2734 184.467 13.4258C184.628 13.5697 184.818 13.6797 185.038 13.7559C185.258 13.832 185.487 13.8828 185.724 13.9082C185.961 13.9251 186.172 13.9336 186.358 13.9336C186.553 13.9336 186.735 13.9167 186.904 13.8828C187.074 13.849 187.243 13.8109 187.412 13.7686C187.581 13.7262 187.751 13.6882 187.92 13.6543C188.098 13.6204 188.284 13.6035 188.479 13.6035C188.555 13.6035 188.631 13.6077 188.707 13.6162C188.783 13.6247 188.855 13.6458 188.923 13.6797C188.991 13.7051 189.046 13.7516 189.088 13.8193C189.13 13.8786 189.151 13.9548 189.151 14.0479C189.151 14.2087 189.092 14.3441 188.974 14.4541C188.855 14.5557 188.703 14.6445 188.517 14.7207C188.339 14.7969 188.14 14.8561 187.92 14.8984C187.7 14.9323 187.484 14.9619 187.272 14.9873C187.069 15.0042 186.879 15.0127 186.701 15.0127C186.532 15.0212 186.405 15.0254 186.32 15.0254C185.779 15.0254 185.292 14.9408 184.86 14.7715C184.429 14.5938 184.065 14.3525 183.769 14.0479C183.472 13.7347 183.244 13.3623 183.083 12.9307C182.931 12.4906 182.854 12.0039 182.854 11.4707ZM184.2 10.6455C184.2 10.9417 184.238 11.1576 184.314 11.293C184.399 11.4284 184.598 11.4961 184.911 11.4961C185.131 11.4961 185.347 11.458 185.559 11.3818C185.77 11.2972 185.961 11.1829 186.13 11.0391C186.308 10.8952 186.447 10.7259 186.549 10.5312C186.65 10.3366 186.701 10.125 186.701 9.89648C186.701 9.76953 186.688 9.63835 186.663 9.50293C186.646 9.36751 186.604 9.24479 186.536 9.13477C186.468 9.01628 186.38 8.92318 186.27 8.85547C186.168 8.7793 186.033 8.74121 185.863 8.74121C185.609 8.74121 185.377 8.80046 185.165 8.91895C184.962 9.02897 184.788 9.17708 184.645 9.36328C184.501 9.54102 184.391 9.74414 184.314 9.97266C184.238 10.1927 184.2 10.417 184.2 10.6455ZM0.245117 38.999C0.49056 38.999 0.714844 39.0625 0.917969 39.1895C1.12109 39.3164 1.33691 39.4518 1.56543 39.5957C1.78548 39.748 2.02669 39.8877 2.28906 40.0146C2.55143 40.1416 2.85612 40.2051 3.20312 40.2051C3.55013 40.2051 3.88867 40.1585 4.21875 40.0654C4.54883 39.9808 4.84505 39.8454 5.10742 39.6592C5.36979 39.4814 5.58138 39.2445 5.74219 38.9482C5.90299 38.6605 5.9834 38.3177 5.9834 37.9199C5.9834 37.2598 5.92839 36.5742 5.81836 35.8633C5.7168 35.1523 5.58138 34.4456 5.41211 33.7432C5.2513 33.0322 5.07357 32.3424 4.87891 31.6738C4.69271 31.0052 4.51921 30.3874 4.3584 29.8203C4.3584 29.8118 4.35417 29.7907 4.3457 29.7568C4.33724 29.723 4.33301 29.7018 4.33301 29.6934C4.33301 29.5241 4.39225 29.4098 4.51074 29.3506C4.62923 29.2829 4.75618 29.249 4.8916 29.249C4.92546 29.249 4.97624 29.2533 5.04395 29.2617C5.11165 29.2702 5.15397 29.2744 5.1709 29.2744C5.43327 29.9346 5.67871 30.6117 5.90723 31.3057C6.14421 31.9912 6.35156 32.6895 6.5293 33.4004C6.70703 34.1113 6.84668 34.8223 6.94824 35.5332C7.0498 36.2526 7.10059 36.9635 7.10059 37.666C7.10059 38.2161 7.00326 38.7155 6.80859 39.1641C6.6224 39.6126 6.36003 39.9935 6.02148 40.3066C5.68294 40.6198 5.27669 40.861 4.80273 41.0303C4.33724 41.1995 3.82943 41.2842 3.2793 41.2842C2.91536 41.2842 2.55566 41.2419 2.2002 41.1572C1.83626 41.0811 1.51042 40.9541 1.22266 40.7764C0.926432 40.5986 0.689453 40.3617 0.511719 40.0654C0.333984 39.7777 0.245117 39.4222 0.245117 38.999ZM3.22852 26.1514C3.22852 26.126 3.22852 26.0752 3.22852 25.999C3.22852 25.9229 3.23698 25.8467 3.25391 25.7705C3.27083 25.6859 3.30046 25.6139 3.34277 25.5547C3.38509 25.4954 3.44857 25.4658 3.5332 25.4658C3.67708 25.4658 3.78711 25.487 3.86328 25.5293C3.93945 25.5632 3.99447 25.6097 4.02832 25.6689C4.06217 25.7197 4.08333 25.7874 4.0918 25.8721C4.10026 25.9482 4.10449 26.0371 4.10449 26.1387C4.10449 26.2064 4.10026 26.2826 4.0918 26.3672C4.08333 26.4518 4.06641 26.5322 4.04102 26.6084C4.01562 26.6846 3.97331 26.748 3.91406 26.7988C3.85482 26.8411 3.77441 26.8623 3.67285 26.8623C3.57129 26.8623 3.49089 26.8411 3.43164 26.7988C3.3724 26.748 3.32585 26.6888 3.29199 26.6211C3.2666 26.5534 3.24967 26.4772 3.24121 26.3926C3.23275 26.3079 3.22852 26.2275 3.22852 26.1514ZM7.0752 31.4707C7.0752 31.0137 7.13021 30.5566 7.24023 30.0996C7.35026 29.6426 7.52376 29.2321 7.76074 28.8682C8.00618 28.5042 8.31934 28.208 8.7002 27.9795C9.08952 27.751 9.55924 27.6367 10.1094 27.6367C10.4225 27.6367 10.6976 27.696 10.9346 27.8145C11.1715 27.9245 11.3704 28.0726 11.5312 28.2588C11.6921 28.445 11.8105 28.665 11.8867 28.9189C11.9714 29.1644 12.0137 29.4225 12.0137 29.6934C12.0137 30.125 11.9121 30.5439 11.709 30.9502C11.5143 31.3564 11.2477 31.7161 10.9092 32.0293C10.5791 32.334 10.1982 32.5667 9.7666 32.7275C9.33496 32.8799 8.89486 32.9137 8.44629 32.8291C8.45475 33.0745 8.53516 33.2734 8.6875 33.4258C8.84831 33.5697 9.03874 33.6797 9.25879 33.7559C9.47884 33.832 9.70736 33.8828 9.94434 33.9082C10.1813 33.9251 10.3929 33.9336 10.5791 33.9336C10.7738 33.9336 10.9557 33.9167 11.125 33.8828C11.2943 33.849 11.4635 33.8109 11.6328 33.7686C11.8021 33.7262 11.9714 33.6882 12.1406 33.6543C12.3184 33.6204 12.5046 33.6035 12.6992 33.6035C12.7754 33.6035 12.8516 33.6077 12.9277 33.6162C13.0039 33.6247 13.0758 33.6458 13.1436 33.6797C13.2113 33.7051 13.2663 33.7516 13.3086 33.8193C13.3509 33.8786 13.3721 33.9548 13.3721 34.0479C13.3721 34.2087 13.3128 34.3441 13.1943 34.4541C13.0758 34.5557 12.9235 34.6445 12.7373 34.7207C12.5596 34.7969 12.3607 34.8561 12.1406 34.8984C11.9206 34.9323 11.7048 34.9619 11.4932 34.9873C11.29 35.0042 11.0996 35.0127 10.9219 35.0127C10.7526 35.0212 10.6257 35.0254 10.541 35.0254C9.99935 35.0254 9.5127 34.9408 9.08105 34.7715C8.64941 34.5938 8.28548 34.3525 7.98926 34.0479C7.69303 33.7347 7.46452 33.3623 7.30371 32.9307C7.15137 32.4906 7.0752 32.0039 7.0752 31.4707ZM8.4209 30.6455C8.4209 30.9417 8.45898 31.1576 8.53516 31.293C8.61979 31.4284 8.81868 31.4961 9.13184 31.4961C9.35189 31.4961 9.56771 31.458 9.7793 31.3818C9.99089 31.2972 10.1813 31.1829 10.3506 31.0391C10.5283 30.8952 10.668 30.7259 10.7695 30.5312C10.8711 30.3366 10.9219 30.125 10.9219 29.8965C10.9219 29.7695 10.9092 29.6383 10.8838 29.5029C10.8669 29.3675 10.8245 29.2448 10.7568 29.1348C10.6891 29.0163 10.6003 28.9232 10.4902 28.8555C10.3887 28.7793 10.2533 28.7412 10.084 28.7412C9.83008 28.7412 9.59733 28.8005 9.38574 28.9189C9.18262 29.029 9.00911 29.1771 8.86523 29.3633C8.72135 29.541 8.61133 29.7441 8.53516 29.9727C8.45898 30.1927 8.4209 30.417 8.4209 30.6455ZM17.4346 41.7539C17.9085 41.7539 18.3317 41.665 18.7041 41.4873C19.0765 41.318 19.3896 41.0811 19.6436 40.7764C19.9059 40.4801 20.1048 40.1374 20.2402 39.748C20.3841 39.3672 20.4561 38.9694 20.4561 38.5547C20.4561 38.3431 20.4434 38.0638 20.418 37.7168C20.401 37.3698 20.3714 36.9932 20.3291 36.5869C20.2868 36.1807 20.2233 35.766 20.1387 35.3428C20.0625 34.9196 19.9652 34.5218 19.8467 34.1494C19.7282 33.7686 19.5801 33.4385 19.4023 33.1592C19.2331 32.8714 19.0342 32.6683 18.8057 32.5498C18.5856 32.7191 18.3698 32.8757 18.1582 33.0195C17.9466 33.1549 17.7266 33.2692 17.498 33.3623C17.2695 33.4554 17.0326 33.5316 16.7871 33.5908C16.5417 33.6416 16.2793 33.667 16 33.667C15.6361 33.667 15.3229 33.6331 15.0605 33.5654C14.8066 33.4977 14.5908 33.3835 14.4131 33.2227C14.2438 33.0618 14.1169 32.8503 14.0322 32.5879C13.9476 32.3255 13.9053 31.9954 13.9053 31.5977C13.9053 31.3184 13.973 31.0475 14.1084 30.7852C14.2438 30.5143 14.4215 30.2646 14.6416 30.0361C14.8701 29.7992 15.124 29.5833 15.4033 29.3887C15.6911 29.194 15.9831 29.0247 16.2793 28.8809C16.584 28.737 16.8802 28.627 17.168 28.5508C17.4642 28.4746 17.7266 28.4365 17.9551 28.4365C18.1751 28.4365 18.3571 28.445 18.501 28.4619C18.6449 28.4704 18.7676 28.5042 18.8691 28.5635C18.9707 28.6143 19.0553 28.6989 19.123 28.8174C19.1992 28.9274 19.2712 29.0798 19.3389 29.2744C19.5335 29.9346 19.7578 30.6455 20.0117 31.4072C20.2656 32.1689 20.5068 32.9518 20.7354 33.7559C20.9639 34.5599 21.1543 35.3682 21.3066 36.1807C21.4674 37.0016 21.5479 37.793 21.5479 38.5547C21.5479 39.2318 21.4505 39.8031 21.2559 40.2686C21.0697 40.7425 20.82 41.1276 20.5068 41.4238C20.2021 41.7285 19.8509 41.9613 19.4531 42.1221C19.0638 42.2829 18.6702 42.3844 18.2725 42.4268C17.8747 42.4775 17.4896 42.4902 17.1172 42.4648C16.7448 42.4395 16.4232 42.3887 16.1523 42.3125C15.8815 42.2448 15.6742 42.1644 15.5303 42.0713C15.3949 41.9782 15.361 41.8978 15.4287 41.8301C15.5049 41.7708 15.6995 41.7285 16.0127 41.7031C16.3258 41.6777 16.7998 41.6947 17.4346 41.7539ZM17.6123 29.5029C16.986 29.6383 16.4782 29.8288 16.0889 30.0742C15.708 30.3112 15.4202 30.5693 15.2256 30.8486C15.0394 31.1195 14.9378 31.3945 14.9209 31.6738C14.904 31.9447 14.9548 32.1774 15.0732 32.3721C15.1917 32.5667 15.361 32.7148 15.5811 32.8164C15.8096 32.9095 16.0677 32.9137 16.3555 32.8291C16.6432 32.736 16.9479 32.5413 17.2695 32.2451C17.5996 31.9489 17.9297 31.5088 18.2598 30.9248C18.2598 30.7809 18.2598 30.6243 18.2598 30.4551C18.2682 30.2858 18.2555 30.1335 18.2217 29.998C18.1878 29.8542 18.1243 29.7357 18.0312 29.6426C17.9382 29.5495 17.7985 29.5029 17.6123 29.5029ZM27.7305 26.748C27.7305 26.6549 27.7389 26.5407 27.7559 26.4053C27.7812 26.2614 27.8193 26.126 27.8701 25.999C27.9294 25.8721 28.0013 25.7663 28.0859 25.6816C28.1706 25.5885 28.2806 25.542 28.416 25.542C28.4245 25.542 28.4456 25.5462 28.4795 25.5547C28.5133 25.5632 28.5345 25.5674 28.543 25.5674C28.6868 26.0921 28.7715 26.6126 28.7969 27.1289C28.8223 27.6452 28.8138 28.1488 28.7715 28.6396C28.7292 29.1221 28.6657 29.5918 28.5811 30.0488C28.4964 30.4974 28.4245 30.9121 28.3652 31.293C28.3145 31.6738 28.2806 32.0166 28.2637 32.3213C28.2552 32.626 28.3018 32.8841 28.4033 33.0957C28.3864 32.9603 28.3737 32.7995 28.3652 32.6133C28.3652 32.4186 28.3822 32.2197 28.416 32.0166C28.4583 31.8135 28.5218 31.6104 28.6064 31.4072C28.6995 31.2041 28.8307 31.0221 29 30.8613C29.1693 30.7005 29.3851 30.5736 29.6475 30.4805C29.9183 30.3874 30.2526 30.3408 30.6504 30.3408C31.0651 30.3408 31.4206 30.4128 31.7168 30.5566C32.0215 30.7005 32.2712 30.8994 32.4658 31.1533C32.6605 31.3988 32.8044 31.6908 32.8975 32.0293C32.999 32.3594 33.0498 32.7148 33.0498 33.0957C33.0498 33.2734 33.0456 33.4766 33.0371 33.7051C33.0371 33.9251 33.0075 34.1325 32.9482 34.3271C32.8975 34.5133 32.8001 34.6742 32.6562 34.8096C32.5208 34.9365 32.3177 35 32.0469 35C32.0469 34.8646 32.0553 34.6826 32.0723 34.4541C32.0892 34.2171 32.0977 33.9674 32.0977 33.7051C32.1061 33.4427 32.0977 33.1761 32.0723 32.9053C32.0553 32.6344 32.0003 32.3932 31.9072 32.1816C31.8141 31.9616 31.6829 31.7839 31.5137 31.6484C31.3529 31.5046 31.1286 31.4326 30.8408 31.4326C30.7393 31.4326 30.6123 31.4411 30.46 31.458C30.3161 31.4665 30.168 31.5046 30.0156 31.5723C29.8633 31.64 29.7152 31.7458 29.5713 31.8896C29.4274 32.0251 29.3132 32.2155 29.2285 32.4609C29.1439 32.6979 29.0931 33.0026 29.0762 33.375C29.0677 33.7389 29.1143 34.1875 29.2158 34.7207C29.1566 34.873 29.0804 34.9619 28.9873 34.9873C28.9027 35.0127 28.7926 35.0254 28.6572 35.0254C28.3864 35.0254 28.1621 34.9323 27.9844 34.7461C27.8151 34.5514 27.6839 34.2933 27.5908 33.9717C27.4977 33.6501 27.4342 33.2777 27.4004 32.8545C27.375 32.4313 27.3665 31.9912 27.375 31.5342C27.3835 31.0687 27.4046 30.599 27.4385 30.125C27.4808 29.6426 27.5189 29.1898 27.5527 28.7666C27.5951 28.335 27.6331 27.9456 27.667 27.5986C27.7093 27.2432 27.7305 26.9596 27.7305 26.748ZM39.0166 33.3623C38.695 33.5824 38.4157 33.7812 38.1787 33.959C37.9502 34.1283 37.7259 34.2721 37.5059 34.3906C37.2858 34.5091 37.0488 34.598 36.7949 34.6572C36.5495 34.7165 36.2448 34.7461 35.8809 34.7461C35.0938 34.7461 34.5098 34.5387 34.1289 34.124C33.748 33.7008 33.5576 33.0745 33.5576 32.2451C33.5576 31.9235 33.5999 31.5892 33.6846 31.2422C33.7692 30.8952 33.8919 30.5524 34.0527 30.2139C34.222 29.8669 34.4209 29.541 34.6494 29.2363C34.8779 28.9232 35.1361 28.6481 35.4238 28.4111C35.7116 28.1742 36.0163 27.988 36.3379 27.8525C36.668 27.7087 37.015 27.6367 37.3789 27.6367C37.9883 27.696 38.4665 27.8483 38.8135 28.0938C39.1605 28.3307 39.4229 28.6396 39.6006 29.0205C39.7783 29.3929 39.901 29.8118 39.9688 30.2773C40.0365 30.7344 40.0872 31.2083 40.1211 31.6992C40.1634 32.1901 40.2142 32.681 40.2734 33.1719C40.3327 33.6628 40.4554 34.1156 40.6416 34.5303C40.5316 34.8096 40.4258 35.0042 40.3242 35.1143C40.2311 35.2327 40.1253 35.2539 40.0068 35.1777C39.8883 35.1016 39.7487 34.9154 39.5879 34.6191C39.4355 34.3229 39.2451 33.904 39.0166 33.3623ZM34.6367 32.2705C34.6367 32.7529 34.7256 33.1084 34.9033 33.3369C35.0895 33.557 35.4154 33.667 35.8809 33.667C36.2279 33.667 36.5579 33.6077 36.8711 33.4893C37.1927 33.3623 37.472 33.193 37.709 32.9814C37.946 32.7614 38.1364 32.499 38.2803 32.1943C38.4242 31.8896 38.4961 31.5511 38.4961 31.1787C38.4961 31.0264 38.5003 30.8148 38.5088 30.5439C38.5173 30.2646 38.5003 29.9896 38.458 29.7188C38.4157 29.4479 38.3353 29.2152 38.2168 29.0205C38.0983 28.8174 37.9206 28.7158 37.6836 28.7158C37.2435 28.7158 36.8372 28.8301 36.4648 29.0586C36.0924 29.2786 35.7708 29.5622 35.5 29.9092C35.2292 30.2562 35.0176 30.6413 34.8652 31.0645C34.7129 31.4792 34.6367 31.8812 34.6367 32.2705ZM41.4414 29.668C41.4414 29.5918 41.4456 29.5156 41.4541 29.4395C41.4626 29.3548 41.4795 29.2829 41.5049 29.2236C41.5303 29.1559 41.5684 29.1009 41.6191 29.0586C41.6784 29.0163 41.7588 28.9951 41.8604 28.9951C41.945 28.9951 42.0381 29.0628 42.1396 29.1982C42.2497 29.3252 42.3597 29.4902 42.4697 29.6934C42.5798 29.888 42.6855 30.1038 42.7871 30.3408C42.8971 30.5778 42.9902 30.7979 43.0664 31.001C43.151 31.1956 43.2188 31.3649 43.2695 31.5088C43.3203 31.6527 43.3499 31.7288 43.3584 31.7373C43.4684 31.4411 43.5911 31.1195 43.7266 30.7725C43.862 30.4255 44.027 30.1038 44.2217 29.8076C44.4248 29.5029 44.6618 29.249 44.9326 29.0459C45.2119 28.8428 45.5505 28.7412 45.9482 28.7412C46.1514 28.7412 46.3418 28.7751 46.5195 28.8428C46.7057 28.902 46.8665 28.9951 47.002 29.1221C47.1458 29.2406 47.2601 29.3844 47.3447 29.5537C47.4294 29.723 47.4717 29.9176 47.4717 30.1377C47.4717 30.3239 47.3955 30.4551 47.2432 30.5312C47.0993 30.6074 46.9342 30.6455 46.748 30.6455H46.6211L46.0752 30.0996C46.0583 30.0996 46.0456 30.0954 46.0371 30.0869C46.0202 30.0869 46.0033 30.0869 45.9863 30.0869C45.9779 30.0785 45.9652 30.0742 45.9482 30.0742C45.652 30.0742 45.4193 30.1589 45.25 30.3281C45.0892 30.4889 44.9665 30.6921 44.8818 30.9375C44.7972 31.1745 44.7422 31.4284 44.7168 31.6992C44.6999 31.9616 44.6914 32.2028 44.6914 32.4229C44.6914 32.5921 44.7083 32.7656 44.7422 32.9434C44.776 33.1126 44.8141 33.2819 44.8564 33.4512C44.8988 33.612 44.9368 33.7812 44.9707 33.959C45.0046 34.1283 45.0215 34.306 45.0215 34.4922C45.0215 34.8477 44.8311 35.0254 44.4502 35.0254C44.2386 35.0254 44.0186 34.9154 43.79 34.6953C43.5615 34.4668 43.333 34.179 43.1045 33.832C42.8844 33.485 42.6729 33.1042 42.4697 32.6895C42.2666 32.2663 42.0889 31.8558 41.9365 31.458C41.7842 31.0602 41.6615 30.7005 41.5684 30.3789C41.4837 30.0573 41.4414 29.8203 41.4414 29.668ZM50.7725 38.999C51.0179 38.999 51.2422 39.0625 51.4453 39.1895C51.6484 39.3164 51.8643 39.4518 52.0928 39.5957C52.3128 39.748 52.554 39.8877 52.8164 40.0146C53.0788 40.1416 53.3835 40.2051 53.7305 40.2051C54.0775 40.2051 54.416 40.1585 54.7461 40.0654C55.0762 39.9808 55.3724 39.8454 55.6348 39.6592C55.8971 39.4814 56.1087 39.2445 56.2695 38.9482C56.4303 38.6605 56.5107 38.3177 56.5107 37.9199C56.5107 37.2598 56.4557 36.5742 56.3457 35.8633C56.2441 35.1523 56.1087 34.4456 55.9395 33.7432C55.7786 33.0322 55.6009 32.3424 55.4062 31.6738C55.2201 31.0052 55.0465 30.3874 54.8857 29.8203C54.8857 29.8118 54.8815 29.7907 54.873 29.7568C54.8646 29.723 54.8604 29.7018 54.8604 29.6934C54.8604 29.5241 54.9196 29.4098 55.0381 29.3506C55.1566 29.2829 55.2835 29.249 55.4189 29.249C55.4528 29.249 55.5036 29.2533 55.5713 29.2617C55.639 29.2702 55.6813 29.2744 55.6982 29.2744C55.9606 29.9346 56.2061 30.6117 56.4346 31.3057C56.6715 31.9912 56.8789 32.6895 57.0566 33.4004C57.2344 34.1113 57.374 34.8223 57.4756 35.5332C57.5771 36.2526 57.6279 36.9635 57.6279 37.666C57.6279 38.2161 57.5306 38.7155 57.3359 39.1641C57.1497 39.6126 56.8874 39.9935 56.5488 40.3066C56.2103 40.6198 55.804 40.861 55.3301 41.0303C54.8646 41.1995 54.3568 41.2842 53.8066 41.2842C53.4427 41.2842 53.083 41.2419 52.7275 41.1572C52.3636 41.0811 52.0378 40.9541 51.75 40.7764C51.4538 40.5986 51.2168 40.3617 51.0391 40.0654C50.8613 39.7777 50.7725 39.4222 50.7725 38.999ZM53.7559 26.1514C53.7559 26.126 53.7559 26.0752 53.7559 25.999C53.7559 25.9229 53.7643 25.8467 53.7812 25.7705C53.7982 25.6859 53.8278 25.6139 53.8701 25.5547C53.9124 25.4954 53.9759 25.4658 54.0605 25.4658C54.2044 25.4658 54.3145 25.487 54.3906 25.5293C54.4668 25.5632 54.5218 25.6097 54.5557 25.6689C54.5895 25.7197 54.6107 25.7874 54.6191 25.8721C54.6276 25.9482 54.6318 26.0371 54.6318 26.1387C54.6318 26.2064 54.6276 26.2826 54.6191 26.3672C54.6107 26.4518 54.5938 26.5322 54.5684 26.6084C54.543 26.6846 54.5007 26.748 54.4414 26.7988C54.3822 26.8411 54.3018 26.8623 54.2002 26.8623C54.0986 26.8623 54.0182 26.8411 53.959 26.7988C53.8997 26.748 53.8532 26.6888 53.8193 26.6211C53.7939 26.5534 53.777 26.4772 53.7686 26.3926C53.7601 26.3079 53.7559 26.2275 53.7559 26.1514ZM57.6025 32.4229C57.6025 31.8981 57.7253 31.4115 57.9707 30.9629C58.2161 30.5059 58.5378 30.1165 58.9355 29.7949C59.3418 29.4648 59.7946 29.2067 60.2939 29.0205C60.8018 28.8343 61.3138 28.7412 61.8301 28.7412C62.1178 28.7412 62.3717 28.8343 62.5918 29.0205C62.8203 29.2067 63.0107 29.4352 63.1631 29.7061C63.3154 29.9684 63.4297 30.2477 63.5059 30.5439C63.5905 30.8402 63.6328 31.0983 63.6328 31.3184C63.6328 31.7923 63.5186 32.2536 63.29 32.7021C63.0615 33.1423 62.7653 33.5358 62.4014 33.8828C62.0374 34.2214 61.627 34.4964 61.1699 34.708C60.7129 34.9196 60.2559 35.0254 59.7988 35.0254C59.3926 35.0254 59.0498 34.9577 58.7705 34.8223C58.4912 34.6784 58.2669 34.4922 58.0977 34.2637C57.9284 34.0267 57.8014 33.7516 57.7168 33.4385C57.6406 33.1169 57.6025 32.7783 57.6025 32.4229ZM58.6816 32.5498C58.6816 32.7699 58.6986 32.9645 58.7324 33.1338C58.7747 33.2946 58.8424 33.4342 58.9355 33.5527C59.0371 33.6712 59.1683 33.7643 59.3291 33.832C59.4899 33.8913 59.6888 33.9209 59.9258 33.9209C60.2389 33.9209 60.5521 33.8363 60.8652 33.667C61.1784 33.4893 61.4577 33.2692 61.7031 33.0068C61.957 32.736 62.1602 32.4398 62.3125 32.1182C62.4648 31.7965 62.541 31.4834 62.541 31.1787C62.541 31.0433 62.5283 30.8952 62.5029 30.7344C62.4775 30.5736 62.4352 30.4255 62.376 30.29C62.3167 30.1546 62.2321 30.0404 62.1221 29.9473C62.012 29.8542 61.8724 29.8076 61.7031 29.8076C61.5508 29.8076 61.3688 29.8584 61.1572 29.96C60.9541 30.0615 60.7383 30.1927 60.5098 30.3535C60.2897 30.5143 60.0697 30.6963 59.8496 30.8994C59.638 31.1025 59.4434 31.3057 59.2656 31.5088C59.0879 31.7119 58.944 31.9066 58.834 32.0928C58.7324 32.279 58.6816 32.4313 58.6816 32.5498ZM66.0449 34.4541C65.7826 33.6924 65.5329 32.9814 65.2959 32.3213C65.0674 31.6527 64.8643 31.001 64.6865 30.3662C64.5173 29.723 64.3818 29.0713 64.2803 28.4111C64.1787 27.751 64.1279 27.0443 64.1279 26.291C64.1279 26.2318 64.1279 26.126 64.1279 25.9736C64.1364 25.8128 64.1406 25.6478 64.1406 25.4785C64.1406 25.3092 64.1406 25.1484 64.1406 24.9961C64.1491 24.8353 64.1533 24.7253 64.1533 24.666C64.2295 24.4967 64.3607 24.3402 64.5469 24.1963C64.7415 24.0524 64.9362 23.9805 65.1309 23.9805C65.1309 24.6068 65.1393 25.2754 65.1562 25.9863C65.1732 26.6888 65.224 27.3913 65.3086 28.0938C65.4017 28.7962 65.5456 29.486 65.7402 30.1631C65.9434 30.8317 66.2269 31.4453 66.5908 32.0039C66.5993 31.8008 66.6077 31.5765 66.6162 31.3311C66.6247 31.0856 66.6458 30.8402 66.6797 30.5947C66.722 30.3493 66.7855 30.1123 66.8701 29.8838C66.9548 29.6553 67.0775 29.4521 67.2383 29.2744C67.4076 29.0967 67.6234 28.957 67.8857 28.8555C68.1566 28.7539 68.4951 28.7074 68.9014 28.7158C69.2653 28.7158 69.5911 28.7835 69.8789 28.9189C70.1751 29.0544 70.4206 29.2406 70.6152 29.4775C70.8184 29.7061 70.9707 29.9769 71.0723 30.29C71.1823 30.5947 71.2373 30.9206 71.2373 31.2676C71.2373 31.7331 71.123 32.1901 70.8945 32.6387C70.666 33.0872 70.3613 33.4893 69.9805 33.8447C69.6081 34.2002 69.1891 34.488 68.7236 34.708C68.2581 34.9196 67.7842 35.0254 67.3018 35.0254C67.0563 35.0254 66.8193 34.9831 66.5908 34.8984C66.3623 34.8053 66.1803 34.6572 66.0449 34.4541ZM69.0537 29.8203C68.8844 29.9134 68.7067 30.0234 68.5205 30.1504C68.3343 30.2773 68.1608 30.4762 68 30.7471C67.8477 31.0094 67.7165 31.3691 67.6064 31.8262C67.4964 32.2832 67.4287 32.8883 67.4033 33.6416C67.4202 33.6416 67.4626 33.6458 67.5303 33.6543C67.6064 33.6628 67.6572 33.667 67.6826 33.667C67.9111 33.667 68.1693 33.5951 68.457 33.4512C68.7533 33.3073 69.0368 33.1296 69.3076 32.918C69.5869 32.7064 69.8281 32.4736 70.0312 32.2197C70.2344 31.9574 70.3571 31.7077 70.3994 31.4707C70.4248 31.3268 70.3952 31.1618 70.3105 30.9756C70.2259 30.7894 70.1117 30.6117 69.9678 30.4424C69.8324 30.2646 69.68 30.1165 69.5107 29.998C69.3499 29.8796 69.1976 29.8203 69.0537 29.8203ZM73.9287 34.4541C73.6663 33.6924 73.4167 32.9814 73.1797 32.3213C72.9512 31.6527 72.748 31.001 72.5703 30.3662C72.401 29.723 72.2656 29.0713 72.1641 28.4111C72.0625 27.751 72.0117 27.0443 72.0117 26.291C72.0117 26.2318 72.0117 26.126 72.0117 25.9736C72.0202 25.8128 72.0244 25.6478 72.0244 25.4785C72.0244 25.3092 72.0244 25.1484 72.0244 24.9961C72.0329 24.8353 72.0371 24.7253 72.0371 24.666C72.1133 24.4967 72.2445 24.3402 72.4307 24.1963C72.6253 24.0524 72.82 23.9805 73.0146 23.9805C73.0146 24.6068 73.0231 25.2754 73.04 25.9863C73.057 26.6888 73.1077 27.3913 73.1924 28.0938C73.2855 28.7962 73.4294 29.486 73.624 30.1631C73.8271 30.8317 74.1107 31.4453 74.4746 32.0039C74.4831 31.8008 74.4915 31.5765 74.5 31.3311C74.5085 31.0856 74.5296 30.8402 74.5635 30.5947C74.6058 30.3493 74.6693 30.1123 74.7539 29.8838C74.8385 29.6553 74.9613 29.4521 75.1221 29.2744C75.2913 29.0967 75.5072 28.957 75.7695 28.8555C76.0404 28.7539 76.3789 28.7074 76.7852 28.7158C77.1491 28.7158 77.4749 28.7835 77.7627 28.9189C78.0589 29.0544 78.3044 29.2406 78.499 29.4775C78.7021 29.7061 78.8545 29.9769 78.9561 30.29C79.0661 30.5947 79.1211 30.9206 79.1211 31.2676C79.1211 31.7331 79.0068 32.1901 78.7783 32.6387C78.5498 33.0872 78.2451 33.4893 77.8643 33.8447C77.4919 34.2002 77.0729 34.488 76.6074 34.708C76.1419 34.9196 75.668 35.0254 75.1855 35.0254C74.9401 35.0254 74.7031 34.9831 74.4746 34.8984C74.2461 34.8053 74.0641 34.6572 73.9287 34.4541ZM76.9375 29.8203C76.7682 29.9134 76.5905 30.0234 76.4043 30.1504C76.2181 30.2773 76.0446 30.4762 75.8838 30.7471C75.7314 31.0094 75.6003 31.3691 75.4902 31.8262C75.3802 32.2832 75.3125 32.8883 75.2871 33.6416C75.304 33.6416 75.3464 33.6458 75.4141 33.6543C75.4902 33.6628 75.541 33.667 75.5664 33.667C75.7949 33.667 76.0531 33.5951 76.3408 33.4512C76.637 33.3073 76.9206 33.1296 77.1914 32.918C77.4707 32.7064 77.7119 32.4736 77.915 32.2197C78.1182 31.9574 78.2409 31.7077 78.2832 31.4707C78.3086 31.3268 78.279 31.1618 78.1943 30.9756C78.1097 30.7894 77.9954 30.6117 77.8516 30.4424C77.7161 30.2646 77.5638 30.1165 77.3945 29.998C77.2337 29.8796 77.0814 29.8203 76.9375 29.8203ZM79.8955 31.4707C79.8955 31.0137 79.9505 30.5566 80.0605 30.0996C80.1706 29.6426 80.3441 29.2321 80.5811 28.8682C80.8265 28.5042 81.1396 28.208 81.5205 27.9795C81.9098 27.751 82.3796 27.6367 82.9297 27.6367C83.2428 27.6367 83.5179 27.696 83.7549 27.8145C83.9919 27.9245 84.1908 28.0726 84.3516 28.2588C84.5124 28.445 84.6309 28.665 84.707 28.9189C84.7917 29.1644 84.834 29.4225 84.834 29.6934C84.834 30.125 84.7324 30.5439 84.5293 30.9502C84.3346 31.3564 84.068 31.7161 83.7295 32.0293C83.3994 32.334 83.0186 32.5667 82.5869 32.7275C82.1553 32.8799 81.7152 32.9137 81.2666 32.8291C81.2751 33.0745 81.3555 33.2734 81.5078 33.4258C81.6686 33.5697 81.859 33.6797 82.0791 33.7559C82.2992 33.832 82.5277 33.8828 82.7646 33.9082C83.0016 33.9251 83.2132 33.9336 83.3994 33.9336C83.5941 33.9336 83.776 33.9167 83.9453 33.8828C84.1146 33.849 84.2839 33.8109 84.4531 33.7686C84.6224 33.7262 84.7917 33.6882 84.9609 33.6543C85.1387 33.6204 85.3249 33.6035 85.5195 33.6035C85.5957 33.6035 85.6719 33.6077 85.748 33.6162C85.8242 33.6247 85.8962 33.6458 85.9639 33.6797C86.0316 33.7051 86.0866 33.7516 86.1289 33.8193C86.1712 33.8786 86.1924 33.9548 86.1924 34.0479C86.1924 34.2087 86.1331 34.3441 86.0146 34.4541C85.8962 34.5557 85.7438 34.6445 85.5576 34.7207C85.3799 34.7969 85.181 34.8561 84.9609 34.8984C84.7409 34.9323 84.5251 34.9619 84.3135 34.9873C84.1104 35.0042 83.9199 35.0127 83.7422 35.0127C83.5729 35.0212 83.446 35.0254 83.3613 35.0254C82.8197 35.0254 82.333 34.9408 81.9014 34.7715C81.4697 34.5938 81.1058 34.3525 80.8096 34.0479C80.5133 33.7347 80.2848 33.3623 80.124 32.9307C79.9717 32.4906 79.8955 32.0039 79.8955 31.4707ZM81.2412 30.6455C81.2412 30.9417 81.2793 31.1576 81.3555 31.293C81.4401 31.4284 81.639 31.4961 81.9521 31.4961C82.1722 31.4961 82.388 31.458 82.5996 31.3818C82.8112 31.2972 83.0016 31.1829 83.1709 31.0391C83.3486 30.8952 83.4883 30.7259 83.5898 30.5312C83.6914 30.3366 83.7422 30.125 83.7422 29.8965C83.7422 29.7695 83.7295 29.6383 83.7041 29.5029C83.6872 29.3675 83.6449 29.2448 83.5771 29.1348C83.5094 29.0163 83.4206 28.9232 83.3105 28.8555C83.209 28.7793 83.0736 28.7412 82.9043 28.7412C82.6504 28.7412 82.4176 28.8005 82.2061 28.9189C82.0029 29.029 81.8294 29.1771 81.6855 29.3633C81.5417 29.541 81.4316 29.7441 81.3555 29.9727C81.2793 30.1927 81.2412 30.417 81.2412 30.6455ZM86.7002 28.6016C86.7002 28.5762 86.7044 28.555 86.7129 28.5381C86.7129 28.5212 86.7171 28.5 86.7256 28.4746C86.7594 28.4323 86.8102 28.3773 86.8779 28.3096C86.9456 28.2419 86.988 28.208 87.0049 28.208H89.5566C89.5566 28.1149 89.5439 27.9668 89.5186 27.7637C89.4932 27.5605 89.4678 27.3363 89.4424 27.0908C89.4255 26.8454 89.4212 26.5915 89.4297 26.3291C89.4382 26.0583 89.472 25.8171 89.5312 25.6055C89.599 25.3854 89.7005 25.2077 89.8359 25.0723C89.9798 24.9284 90.1787 24.8564 90.4326 24.8564C90.4326 25.7113 90.4919 26.3968 90.6104 26.9131C90.7288 27.4294 90.8854 27.8271 91.0801 28.1064C91.2832 28.3857 91.5117 28.5677 91.7656 28.6523C92.0195 28.737 92.2777 28.7751 92.54 28.7666C92.8109 28.7497 93.0732 28.7074 93.3271 28.6396C93.5811 28.5719 93.8053 28.5254 94 28.5C94.2031 28.4746 94.3639 28.4958 94.4824 28.5635C94.6009 28.6227 94.6602 28.7708 94.6602 29.0078C94.6602 29.1855 94.6178 29.3125 94.5332 29.3887C94.457 29.4648 94.3047 29.5241 94.0762 29.5664C94.0085 29.5749 93.8942 29.5918 93.7334 29.6172C93.5811 29.6341 93.4076 29.651 93.2129 29.668C93.0182 29.6849 92.8109 29.7061 92.5908 29.7314C92.3708 29.7484 92.1634 29.7653 91.9688 29.7822C91.7741 29.7992 91.5964 29.8118 91.4355 29.8203C91.2747 29.8203 91.1562 29.8203 91.0801 29.8203C91.0801 29.8626 91.0758 29.9346 91.0674 30.0361C91.0589 30.1377 91.0547 30.2054 91.0547 30.2393C91.0547 30.6117 91.1139 30.9756 91.2324 31.3311C91.3509 31.6781 91.4779 32.0251 91.6133 32.3721C91.7572 32.7191 91.8883 33.0661 92.0068 33.4131C92.1253 33.7601 92.1846 34.1198 92.1846 34.4922C92.1846 34.5599 92.1761 34.6318 92.1592 34.708C92.1507 34.7757 92.1253 34.8392 92.083 34.8984C92.0492 34.9492 91.9941 34.9873 91.918 35.0127C91.8503 35.0465 91.7529 35.0423 91.626 35C91.3044 34.9154 91.0632 34.7334 90.9023 34.4541C90.75 34.1748 90.6357 33.8447 90.5596 33.4639C90.4834 33.0745 90.4326 32.6641 90.4072 32.2324C90.3818 31.8008 90.3395 31.3988 90.2803 31.0264C90.2295 30.6455 90.1449 30.3239 90.0264 30.0615C89.9079 29.7907 89.7174 29.6257 89.4551 29.5664L87.0049 29.0078C86.971 29.0078 86.9202 28.974 86.8525 28.9062C86.7848 28.8301 86.7425 28.7751 86.7256 28.7412C86.7171 28.7243 86.7129 28.7031 86.7129 28.6777C86.7044 28.6608 86.7002 28.6354 86.7002 28.6016ZM100.716 29.668C100.716 29.4564 100.75 29.2913 100.817 29.1729C100.894 29.0544 101.05 28.9951 101.287 28.9951C101.312 28.9951 101.359 28.9993 101.427 29.0078C101.503 29.0078 101.549 29.0078 101.566 29.0078C101.626 29.2702 101.685 29.5579 101.744 29.8711C101.812 30.1758 101.888 30.4847 101.973 30.7979C102.057 31.111 102.15 31.4199 102.252 31.7246C102.362 32.0293 102.493 32.3044 102.646 32.5498C102.798 32.389 102.908 32.1986 102.976 31.9785C103.043 31.7585 103.094 31.5384 103.128 31.3184C103.162 31.0898 103.191 30.874 103.217 30.6709C103.251 30.4593 103.314 30.2816 103.407 30.1377C103.5 29.9854 103.636 29.8753 103.813 29.8076C104 29.7399 104.254 29.7399 104.575 29.8076C104.931 29.8076 105.214 29.8753 105.426 30.0107C105.637 30.1377 105.819 30.3027 105.972 30.5059C106.132 30.7005 106.285 30.9121 106.429 31.1406C106.581 31.3607 106.771 31.5596 107 31.7373C107.051 31.6273 107.114 31.4919 107.19 31.3311C107.267 31.1618 107.36 30.9883 107.47 30.8105C107.588 30.6243 107.711 30.4424 107.838 30.2646C107.973 30.0785 108.113 29.9134 108.257 29.7695C108.401 29.6172 108.549 29.4945 108.701 29.4014C108.854 29.2998 109.002 29.249 109.146 29.249C109.493 29.249 109.793 29.359 110.047 29.5791C110.301 29.7907 110.517 30.0615 110.694 30.3916C110.881 30.7132 111.033 31.0771 111.151 31.4834C111.27 31.8812 111.363 32.2663 111.431 32.6387C111.498 33.0111 111.545 33.3538 111.57 33.667C111.604 33.9717 111.621 34.1917 111.621 34.3271C111.621 34.4372 111.596 34.5218 111.545 34.5811C111.494 34.6403 111.431 34.6868 111.354 34.7207C111.278 34.7461 111.194 34.763 111.101 34.7715C111.016 34.7799 110.936 34.7842 110.859 34.7842C110.842 34.7842 110.817 34.7842 110.783 34.7842C110.749 34.7757 110.711 34.7673 110.669 34.7588C110.635 34.7503 110.589 34.7376 110.529 34.7207L109.704 30.9248C109.704 30.8994 109.67 30.8529 109.603 30.7852C109.535 30.709 109.484 30.6624 109.45 30.6455C109.425 30.6455 109.404 30.6413 109.387 30.6328C109.37 30.6328 109.357 30.6328 109.349 30.6328C109.34 30.6243 109.332 30.6201 109.323 30.6201C109.146 30.6201 108.976 30.6921 108.815 30.8359C108.663 30.9798 108.519 31.1618 108.384 31.3818C108.248 31.6019 108.121 31.8473 108.003 32.1182C107.884 32.389 107.779 32.6598 107.686 32.9307C107.592 33.193 107.508 33.4385 107.432 33.667C107.364 33.887 107.309 34.0563 107.267 34.1748C107.233 34.1917 107.165 34.2087 107.063 34.2256C106.962 34.234 106.894 34.2383 106.86 34.2383C106.623 34.2383 106.441 34.1579 106.314 33.9971C106.188 33.8278 106.082 33.6204 105.997 33.375C105.921 33.1296 105.853 32.863 105.794 32.5752C105.743 32.279 105.675 32.0081 105.591 31.7627C105.515 31.5173 105.405 31.3141 105.261 31.1533C105.125 30.984 104.931 30.8994 104.677 30.8994C104.584 30.8994 104.495 30.9925 104.41 31.1787C104.326 31.3649 104.249 31.6019 104.182 31.8896C104.114 32.1689 104.05 32.4736 103.991 32.8037C103.932 33.1253 103.881 33.43 103.839 33.7178C103.805 33.9971 103.78 34.234 103.763 34.4287C103.746 34.6234 103.737 34.7207 103.737 34.7207C103.72 34.7461 103.687 34.7757 103.636 34.8096C103.585 34.835 103.53 34.8646 103.471 34.8984C103.42 34.9323 103.365 34.9577 103.306 34.9746C103.255 34.9915 103.217 35 103.191 35C102.954 35 102.726 34.8942 102.506 34.6826C102.286 34.4626 102.083 34.1833 101.896 33.8447C101.719 33.4977 101.554 33.1169 101.401 32.7021C101.257 32.2874 101.135 31.8812 101.033 31.4834C100.932 31.0856 100.851 30.7259 100.792 30.4043C100.741 30.0827 100.716 29.8372 100.716 29.668ZM112.142 31.4707C112.142 31.0137 112.197 30.5566 112.307 30.0996C112.417 29.6426 112.59 29.2321 112.827 28.8682C113.073 28.5042 113.386 28.208 113.767 27.9795C114.156 27.751 114.626 27.6367 115.176 27.6367C115.489 27.6367 115.764 27.696 116.001 27.8145C116.238 27.9245 116.437 28.0726 116.598 28.2588C116.758 28.445 116.877 28.665 116.953 28.9189C117.038 29.1644 117.08 29.4225 117.08 29.6934C117.08 30.125 116.979 30.5439 116.775 30.9502C116.581 31.3564 116.314 31.7161 115.976 32.0293C115.646 32.334 115.265 32.5667 114.833 32.7275C114.401 32.8799 113.961 32.9137 113.513 32.8291C113.521 33.0745 113.602 33.2734 113.754 33.4258C113.915 33.5697 114.105 33.6797 114.325 33.7559C114.545 33.832 114.774 33.8828 115.011 33.9082C115.248 33.9251 115.459 33.9336 115.646 33.9336C115.84 33.9336 116.022 33.9167 116.191 33.8828C116.361 33.849 116.53 33.8109 116.699 33.7686C116.868 33.7262 117.038 33.6882 117.207 33.6543C117.385 33.6204 117.571 33.6035 117.766 33.6035C117.842 33.6035 117.918 33.6077 117.994 33.6162C118.07 33.6247 118.142 33.6458 118.21 33.6797C118.278 33.7051 118.333 33.7516 118.375 33.8193C118.417 33.8786 118.438 33.9548 118.438 34.0479C118.438 34.2087 118.379 34.3441 118.261 34.4541C118.142 34.5557 117.99 34.6445 117.804 34.7207C117.626 34.7969 117.427 34.8561 117.207 34.8984C116.987 34.9323 116.771 34.9619 116.56 34.9873C116.356 35.0042 116.166 35.0127 115.988 35.0127C115.819 35.0212 115.692 35.0254 115.607 35.0254C115.066 35.0254 114.579 34.9408 114.147 34.7715C113.716 34.5938 113.352 34.3525 113.056 34.0479C112.759 33.7347 112.531 33.3623 112.37 32.9307C112.218 32.4906 112.142 32.0039 112.142 31.4707ZM113.487 30.6455C113.487 30.9417 113.525 31.1576 113.602 31.293C113.686 31.4284 113.885 31.4961 114.198 31.4961C114.418 31.4961 114.634 31.458 114.846 31.3818C115.057 31.2972 115.248 31.1829 115.417 31.0391C115.595 30.8952 115.734 30.7259 115.836 30.5312C115.938 30.3366 115.988 30.125 115.988 29.8965C115.988 29.7695 115.976 29.6383 115.95 29.5029C115.933 29.3675 115.891 29.2448 115.823 29.1348C115.756 29.0163 115.667 28.9232 115.557 28.8555C115.455 28.7793 115.32 28.7412 115.15 28.7412C114.896 28.7412 114.664 28.8005 114.452 28.9189C114.249 29.029 114.076 29.1771 113.932 29.3633C113.788 29.541 113.678 29.7441 113.602 29.9727C113.525 30.1927 113.487 30.417 113.487 30.6455ZM118.946 33.502C118.946 33.0111 119.069 32.5752 119.314 32.1943C119.56 31.8135 119.865 31.4834 120.229 31.2041C120.592 30.9163 120.986 30.6751 121.409 30.4805C121.832 30.2773 122.226 30.1123 122.59 29.9854C122.954 29.8499 123.258 29.7441 123.504 29.668C123.749 29.5833 123.872 29.5156 123.872 29.4648C123.872 29.1686 123.855 28.8809 123.821 28.6016C123.796 28.3138 123.766 28.026 123.732 27.7383C123.699 27.4505 123.665 27.167 123.631 26.8877C123.605 26.5999 123.593 26.3164 123.593 26.0371V25.2119C123.94 25.085 124.185 25.0977 124.329 25.25C124.481 25.4023 124.507 25.6647 124.405 26.0371C124.439 26.2233 124.486 26.5153 124.545 26.9131C124.604 27.3109 124.668 27.7594 124.735 28.2588C124.812 28.7581 124.888 29.2829 124.964 29.833C125.049 30.3831 125.125 30.9121 125.192 31.4199C125.269 31.9193 125.332 32.3678 125.383 32.7656C125.434 33.1549 125.472 33.4469 125.497 33.6416C125.506 33.6839 125.514 33.7686 125.522 33.8955C125.531 34.014 125.535 34.1452 125.535 34.2891C125.544 34.4245 125.548 34.5514 125.548 34.6699C125.556 34.7884 125.561 34.873 125.561 34.9238C125.239 34.9238 125.019 34.9111 124.9 34.8857C124.79 34.8604 124.718 34.8096 124.685 34.7334C124.659 34.6572 124.646 34.5472 124.646 34.4033C124.646 34.2594 124.604 34.0605 124.52 33.8066C124.206 34.0521 123.91 34.2552 123.631 34.416C123.352 34.5768 123.072 34.708 122.793 34.8096C122.514 34.9027 122.23 34.9661 121.942 35C121.663 35.0423 121.363 35.0635 121.041 35.0635C120.77 35.0635 120.508 35.0423 120.254 35C120.008 34.9492 119.788 34.8646 119.594 34.7461C119.399 34.6276 119.243 34.4668 119.124 34.2637C119.006 34.0605 118.946 33.8066 118.946 33.502ZM120.051 33.2354C120.051 33.3708 120.08 33.4808 120.14 33.5654C120.199 33.6501 120.275 33.722 120.368 33.7812C120.461 33.8405 120.559 33.8828 120.66 33.9082C120.77 33.9251 120.876 33.9336 120.978 33.9336C121.274 33.9336 121.591 33.8786 121.93 33.7686C122.277 33.6501 122.594 33.4893 122.882 33.2861C123.178 33.0745 123.419 32.8249 123.605 32.5371C123.8 32.2493 123.897 31.9362 123.897 31.5977C123.897 31.3353 123.851 31.1533 123.758 31.0518C123.665 30.9502 123.487 30.8994 123.225 30.8994C122.954 30.8994 122.636 30.9629 122.272 31.0898C121.917 31.2168 121.57 31.3861 121.231 31.5977C120.901 31.8092 120.622 32.0589 120.394 32.3467C120.165 32.626 120.051 32.9222 120.051 33.2354Z" fill="black"/>
<path d="M148 35C154.222 42.8373 157.333 52.242 158.513 61M158.513 61C160.444 57.7281 161.222 56.9444 162 55.3769M158.513 61C156.556 59.2956 155.778 58.5118 153.444 56.1607" stroke="black" stroke-linecap="round" stroke-linejoin="round"/>
</svg>
