<?xml version="1.0" encoding="utf-8"?>
<!-- Generator: Adobe Illustrator 23.0.3, SVG Export Plug-In . SVG Version: 6.00 Build 0)  -->
<svg version="1.1" xmlns="http://www.w3.org/2000/svg" xmlns:xlink="http://www.w3.org/1999/xlink" x="0px" y="0px"
	 viewBox="0 0 1920 1080" style="enable-background:new 0 0 1920 1080;" xml:space="preserve">
<style type="text/css">
	.st0{fill:#FFFFFF;}
	.st1{opacity:0.2;}
	.st2{fill:#7B92A6;stroke:#7B92A6;stroke-miterlimit:10;}
	.st3{fill:#4F6F8C;}
	.st4{opacity:0.2;stroke:#000000;stroke-miterlimit:10;}
	.st5{fill:#7B92A6;}
	.st6{fill:#192E40;}
	.st7{fill:#031626;}
</style>
<g id="Layer_1">
</g>
<g id="Layer_8">
	<path class="st0" d="M651.5,546.5c39-18,47-22,67-31s31-9,45-17s26-12,43-20s31-8,47-12s25-13,45-10s23,13,39,22s12,11,32,14
		s19,8,34,9s20-7,42,9s28,23,46,49s11,45,7,78s1,52-75,96s-72,51-184,52s-149,26-206-24s-45-66-44-124S651.5,546.5,651.5,546.5z"/>
	<path class="st1" d="M669,546c9-7,14.92-14.26,20.46-17.13c5.54-2.87,35.85-16.64,44.19-19.25C742,507,755,501,763,498s11-3,14,0
		s15-1,0,9s-21,10-17,14s11,3,2,8s-11-6-11,4s-9,11,0,13s12-1,20,4s-10,9,13,9s24,1,28,0s2,2,14-3s15-9,20-11s9,2,8-5s10-12,0-12
		s-11,8-8,0s2-8,10-9s4-1,19-1s6-5,18,0s14,6,16,10s-4,2,0,9s3,6,8,11s6,7,6,11s-3,3-3,12s-10,9,3,10s10,1,17,0s7-3,13-6s-2-3,10-6
		s12-8,17-8s9-4,12-5s5-5,13-6s-4-13,12-10s18,2,19,10s1,18-4,28s-27,19-41,37s-32,26-60,33s-59,18-74,0s-15-9-23-24
		s-7.07-17.71-14.04-23.36C813,595,816,595,808,591s-3-6-11-5s2,1-19,1s-19,0-32,0s-20,0-24,0s-3-1-17,0s-21,9-29-1S669,546,669,546
		z"/>
</g>
<g id="Layer_9">
	<path class="st2" d="M869.5,639.5c40-13,62-11,73-23s34-36,47-49s29-18,28-27s-6-26,0-33s35-2,42-13s-5-10,15-19s1-11,39-20
		s54-21,62-21s25,7,38,0c0,0,18-12,22-10c1.62,0.81,3.89,1.78,6.68,2.79c4.11,1.48,9.36,3.02,15.32,4.21c10,2,18,4,37,9s39,11,44,13
		s59,18,74,19s19,1,28-1s16-7,31-8s14-3,29-6s14-1,29-8s15-6,22-13s1-4,19-14s59-15,83,10c0,0,28,137,0,184s-83,97-147,143
		s-156,126-206,146s-127,25-219,14s-88,18-170-58s-91-71-84-120S869.5,639.5,869.5,639.5z"/>
	<path class="st1" d="M1262.5,448.5c8,7,33,34,43,39s18,2,29,8s3-2,19,12s7,15,30,16s22-15,34,0s11,13,21,23s18,8,15,21s6,22-12,15
		s-5-12-24-15s-22-23-32,0S1368,582,1362,585s-12,11-8,16s12,5,0,10s-16-5-35,6s-12,14-34,16s-26-9-43,3s-17,13-34,15s-10,6-21,4
		s-18-6-22,0s-3,7,0,9s1,6-3,10s-11-4-4,4s5,3-9,11s-14,8-14,8s-7,2-10,9s-16,12,0,7s11-7,24-11s17-14,38-13s9.93-1.1,25.97-2.55
		C1229,685,1242,687,1296,677s111-41,120-41s40-22,45-31s63-92,63-92s18-33,11-33s-25,5-32,8s-8-3-20,8s-9,15-22,11s-9-8-19-4
		s5,2-13,4s-13-2-22,0s-11,11-23,4s-24-10-8-15s-1-1,24-8s41.31-15.28,32.65-15.14c-8.65,0.14-38.82-2.91-49.24-6.39
		s-45.63-14.12-56.52-16.8c-10.9-2.67-49.58-14.52-59.74-16.1C1257,432,1241,423,1236,424s3,13,10,17S1262.5,448.5,1262.5,448.5z"/>
	<path class="st1" d="M1191,612c19-3,23,13,19,0s-8-21-9-24s-12-5-4-11s12-10,27-10s4,0,30,0s34-5,42-6s1-4,15-2s22-6,27,2
		s11,12,11,6s-5-11-10-10s-2-6-20-12s-27-10-33-12s-11-3-23-9s-10-8-17-8s-24-4-20,0s9,2,20,9s7,6,16,8s5,5,14,7s16-2,17,4s11,7-6,9
		s-24,0-34,0s-20-2-23-1s-1,5-9,1s-8-4-8-4s-6-12-11-9s-7,2-15,5s-9,1-14,7s-1,2-5,7s-2,4-8,7s-14,6-18,11s-15,2,0,9s32,8,32,8
		s7-1,7,7S1191,612,1191,612z"/>
	<path class="st1" d="M1191,514c-15,6-18,5-25,10s-9-3-21,9s-4,7-11,12s-7,9-12,14s-11,5-14,8s-19,1-5-6s17-10,22-16s3-6,15-12
		s10-9,21-14s10,0,11-5s-7-6,6-7s4-3,13,0S1191,514,1191,514z"/>
	<path class="st1" d="M1103,576c0,5.66-5,14-13,18s-19,7-25,15s-8,8-12,15s-10,7-9,17s-5,5-4,14s-11,15,5,15s30,2,35,0s-1-3,23,0
		s28-10,24,1s-21,12-30,17s-22,4-20,9s18,7,25,11s7.95-1.8,17.47,4.6C1129,719,1146,718,1128,724s-31-2-18,6s5.3,4.98,8.15,9.99
		C1121,745,1123,758,1118,768s-2,21-27,27s-50,4-64-22s-21-51-34-60s-19-12-48-23s-47-12-52-20s-17-13-8-21s15.74-17.38,26.37-20.19
		C922,626,936,617,941,624s-7,10,9,12s13-12,28,0s19,17,27,19s6,6,16,0s7-13,10-19s-2-5,8-12s4-4,18-16s12-9,20-18s10-11,13-14
		S1103,566,1103,576z"/>
</g>
<g id="Layer_10">
	<path class="st3" d="M1921,245.5c0,0-7-1-19.01-6s-19.01-7-30.02-13s-16.01-5-21.01-12c-5-7-1-7-9.01-10s-12.01-1-15.01-5
		s2.06-2.5-1.94-4.5c-4-2-7-3-14.07-2.5c-22.96,1.62-32.02,6-42.03,8s-5,3-20.01,1s-15.01-5-22.01,5c-7,10-31.02,53-44.03,61
		s-17.01,17-22.01,25c-5,8-22.01,28-25.02,32s-9.01,8-14.01,17c-5,9-14.01,26-17.01,31s-12.01,10-15.01,21c-3,11-17.01,15-20.01,23
		s-15.01,22-16.01,26c-1,4-19.01,30-26.02,38c-7,8-3,0-10.01,13c-7,13-26.02,38-30.02,44c-4,6-10.01,12-16.01,20
		c-6,8-8.01,18-14.01,26c-6,8-25.02,17-33.02,21s-118.07,51-151.09,57c-33.02,6-26.02,8-46.03,16s-92.06,75-98.06,83
		s-13.01,52-11.01,68c0,0,0,82,59.04,112s143.09,49,263.16,84c120.07,35,264.16,56,264.16,56H1921V245.5z"/>
	<path class="st4" d="M1803.5,193.5c-1.97,0.33-8.5,17.5-8.5,23.5s-8,12-3,14s28,1,22,7s-35-1-37,0s-46,42-46,48
		c0,0,16.5,34.5,15.5,39.5s-4,7-6,11s-2,8,1,6s6-7,8-5s8,34,11,35s3-7,5-8s46,1,49,3s12,10,8,12s-28-4-26,0s8,16,5,19s-21,0-20,3
		s7,11,4,11s-35-5-36,0s3,18,0,20s-76,33-78,36s-8,4-11,5s7,3,8,7s-6,12-6,15s0,8,1,10s3,9,0,10s-2,6-7,7s-62-7-66-6s-5,2-4,6
		s5,7,6,9s0,5-3,8s-5,7,1,10s13,6,13,9s-4,8-4,8s17,8,20,8s23,3,28,3s13,0,21,0s13,1,12-3s-1-5-4-10s-11-11-7-16s3-9,14-9s7,3,14-3
		s11-4,16-9s3-5,6-9s5-9,4-11s-3-7-8-7s-4,1-11,2s-6-2-8-6s2-4-4-7s-11,2-9-5s2-13,9-14s13,2,17,1s23-7,22-8s-11-1-5-4s41-12,41-12
		s-5-3,0-5s18-8,21-6s6,2,3,9s-7,24-4,29s9,56,13,59s19,12,41,12s27,2,25,6s-14,7-13,11s-2,9,2,10s9-1,7,5s2,10-11,12s-92,8-91,12
		s-1,7,9,7s28,5,32,5s24,2,25,4s7,9,4,25s38,32,22,62s-19,40-22,45s-37,36-37,39s23,4,25,4s-14,9-23,9s-20,1-24,4s-10,7-21,8
		s-27,2-32,4s-1,4-12,0s-24-1-16-7s21-1,19-7s1-10-8-9s-13-2-20,3s-10,7-21,9s-40,6-46,7s-20,7-28,6s-19-4-29-5s-24-3-31-3
		s-11,1-24,0s-25-3-27-3s-11,1-11,1s-6,1-4,5s9,0,4,5s-7,3-10,3s6,3,10,6s17,9,23,12s15,9,22,11s2,3,21,4s11-2,37,4s33,10,58,11
		s29,1,49-4s27-5,48-9s32-4,40-8s3-2,25-9s22-7,35-12s15-17,18-7s6,9-1,19s-9,15-14,18s-6,0-4,6s2,6-4,10s-6,0-6,4s7,4-4,7
		s-8-1-11,3s-4,5-8,7s-7-8-4,0s55,21,69,21s11-2,18,10s15,15,28,15s21,0,21,0l1-696c0,0-28.29-13.05-34.65-12.02
		c-6.35,1.02-14.35,10.02-10.35,16.02s10,15,10,20s2,16-3,21s-12,9-15,11s-10,3-13,7s-9,6-10,9s-7,6-12,4s-6,1-10-6s-9-11-4-16
		s1-8,7-10s12,2,6-7s-16-6-11-11s-2-5,12-6s10-1,19-3s8,7,9-2s-4-12,3-12s6,1,7-5s3-12-6-13s-7-2-15-6s-19-3-14-6s12.18-1.07,13-6
		c0,0-0.1-1.45-2.05-4.73c-1.95-3.27-11.87-6.27-17.95-6.27c-3,0-3-4-2.88-5.38C1826.67,195.49,1821.5,190.5,1803.5,193.5z"/>
</g>
<g id="Layer_11">
</g>
<g id="Layer_2">
	<path class="st5" d="M1,231.5c23.98-1,21.99-4,29.98,0s28.98,9,33.98,11c5,2,13.99,4,15.99,6c2,2,10.99,6,14.99,6
		c4,0,8.99-3,10.99,0c2,3,12.99,9,17.99,9c3.4,0,16.04,1.85,24.72,3.03c4.09,0.56,7.3,0.97,8.26,0.97c3,0,18.99,4,21.99,6
		c3,2,4-3,6,0c1.24,1.86,5.95,5.27,10.06,7.82c2.51,1.56,4.79,2.8,5.92,3.18c3,1,28.98,4,37.97,14s12.99,10,14.99,14
		c2,4,5,14,7.99,16c3,2,12.99,7,12.99,11s11.99,21,13.99,21c2,0,8.99,13,10.99,14c2,1,7,7,7,10s14.99,20,16.99,22
		c2,2,11.99,8,12.99,10s7.99,15,11.99,15s7,2,17.99,0s20.99-5,27.98-8s10.99-6,16.99-9s8.99-6,19.99-8s13.99-5,26.98-7
		c12.99-2,30.98-7,32.98-8c2-1,5-4,11.99-2c7,2,10.99,2,15.99,4c5,2,10.99,2,13.99,5c3,3,13.99,9,22.98,12c8.99,3,30.98,20,42.97,40
		s36.98,30,41.97,34c5,4,10.99,30,16.99,35c6,5,14.99,7,18.99,11s5,15,10.99,25c6,10,11.99,23,15.99,25c4,2,12.99,14,17.99,16
		c5,2,21.99,20,25.98,21c4,1,0,119,0,119l-125.92,282l-128.91,62H1V231.5z"/>
	<path class="st1" d="M100,326c-10-2-15,2-15-8s5-9-5-19s-9-18-20-22s-18-8-15-14s16-3,6-10s-10,1-22-11s-15-13-15-13H1L0,836.63
		c0,0,321-22.63,341-39.63s-18-41-18-41s-24.5-19.5-26.5-25.5s-12-1-18-5s-11-6-7-10s8-4,6-8s-1-8-7-10s-4-2-8-7s0-6-9-5s-13,0-17-1
		s-1-3-9-3s-13,0-8-4s22-6,30-5s11,2,20,0s1-2,17-6s16-4,32-7s17-6,24-5s10,2,13-3s6-6,5-12s-4-6,0-11s6,0,5-8s2-8-3-10s-7,5-5-2
		s3-6,2-8s-12-3-7-7s1-3,13-4s27-1,32-1s7-5,13,0s9,7,14,10s3,8,13,8s14,0,18,0s-2,2,21-1s19-4,26-5s10-3,11-8s4-8-9-8s-23,1-32,0
		s-3,7-9-1s-3-6-9-11s-6-4-12-10s-11-10-14-8s-6,5-9,3s-3,0-6-7s0-5-7-10s-13-8-15-3s-2,9-6,6s-2-7-9-8s-25,6-8-3s5-2,20-9
		s12-3,20-11s-1-10,11-11s10-5,22,2s12,8,18,11s11,6,23,12s9,5,18,9s5,5,17,10s9,10,18,8s1-5,16-9s12,2,18-4s13-5,7-11s-14-3-9-8
		s11-10,2-10s-9-2-16,2s-14,13-20,7s-4-9-11-12s4-9-20-7s-11,3-20-7s4-8-10-10s-13-4-26-4s-13,3-18,0s-8,3-5-6s-14-6,0-15
		s24-13,13-12s-12-3-22,2s-7,4-19,6s-13,7-19,0s-3-8-10-9s-5-7-15-3s-10,4-16,7s-8,1-14,5s-18,5-10,0s16-4,8-5s-13,4-17,5s-4,3-11,5
		s-6,1-14,4s-10,4-13,7s0,2-6,5s-12,2-19,4s-12,4-18,5s-8,1-16,1s-3,0-15,0s-8,4-17,0s-1-6-13-6s-7,2-16,2s-13,1-8-5s-2-9,9-9
		s19,3,22,0s-7-3-5-6s5-7,7-7s-4-6-4-6s3-3,1-6s-11-5-11-8s5-7-3-10s-16-1-9-6s7-7,13-8s10-5,14-1s-9,6,4,4s4,4,13-2s15-1,14-9
		s-1-13-6-13s-8,2-8-4s-1-12-3-13s2-7-8-2s-11,8-16,6s0-4-9-4s-12,0-12-3s-5-14,2-9s0,2,7,5s3,12,7,3s4-12,4-12s2,2-1-6s-6-11-3-15
		s-3-7,4-12s5-5,13-10s11-9,11-9s5-11-7-6s-20,7-23,7s-3-12-8-2s-1,6-5,10s-12,8-12,8s-3,0-8,2S100,326,100,326z"/>
	<path class="st1" d="M650.48,549.3C646,541,649,538,643,533s-3,0-10-7s-3-4-10-10s-9-7-13-6s-5-7-9,0s-4,9-4,11s-6,2-6,7s-3,8,0,9
		s7,1,13,3s5,2,7,6s-2,6,5,7s8-5,11,0s13,5,16,4s4,4,7,1S650.48,549.3,650.48,549.3z"/>
	<path class="st1" d="M557,574c-4,0-10-4-13,0s-5,1-5,8s-6,7,2,11s13,6,16,8s7,5,12,4s4-7,10,0s8,8,9,12s-4,16,2,7
		s3.93-12.52,5.96-14.26C598,608,599,608,604,600s4-8,9-12s5-4,5-10s15-2-3-6s-5,2-18-4s-9-8-13-6s-4-2-9,5s-3,4-5,7
		S557,574,557,574z"/>
</g>
<g id="Layer_7">
	<path class="st6" d="M488.5,686.5c122-39,216-69,238-79s30-4,46-5s43-3,62-1s19,9,27,11s19,10,33,15s49,19,54,23s31,32,38,36
		s33,20,44,29s26,32,31,44s11,19,17,24s-6,25,0,29s22,21,39,32s67,60,68,74s12,28-68,56s-112,33-205,28s-199,1-278,0s-122,5-204-15
		s-120-14-130-48s-15-57,0-102s10-63,48-90S488.5,686.5,488.5,686.5z"/>
	<path class="st1" d="M861,802c27-6,24-9,47-10s27-5,49,0s29,0,42,10s16,8,27,15s20,10,16,21s15,15-25,19s-68,1-90,0s-40,3-52-13
		S861,802,861,802z"/>
	<path class="st1" d="M852,774c7-4,24-16,43-12s17,6,25,6s7,0,14,0s13,0,11-6s6-5-7-7s-31,1-21-7s15-10,15-10s-32-1-12-9
		s21-16,21-16l-29-7c-18-7-25-16-31-15s-6,4-9,9s-2,9,2,13s-1,13-8,11s-16-3-23-11s-32,0-15-16s25-20,28-22s17-5,18-9s20-4,3-17
		s-16-6-24-13s-18-13-25-17s-7-6-23-4s-12-2-25-1s-8,6-16,0s-8-3-17-7s-10-4-20,0s-230.42,77.18-245,82s-75.56,28.44-83,32
		s-87,39-73,56c20.47,24.86,416-59,420-57S852,774,852,774z"/>
</g>
<g id="Layer_13">
	<path class="st6" d="M959.5,882.5c16-19,39-44,52-56s-4-12,28-27s22-5,39-18s20-14,29-26s-3-8,15-18s15-8,34-14s25-9,52-8
		s17-7,52,0s19,4,59,11s41,6,72,10s44,5,58,6s7-5,27,6s17,2,44,19s19,6,34,23s3,11,29,29s46,14,49,40s-14,66-16,71s-23,38-92,60
		s-121,32-193,29s-61,6-154-15s-76-7-131-37s-42-15-61-37S959.5,882.5,959.5,882.5z"/>
	<path class="st1" d="M1207,852c-59-12-76-5.78-86-15.89c-10-10.11-13-8.11-12-16.11s-5-7,9-12s16,7,19-6s2-34,7-28s2,15,8,16
		s13,7,14,0s2-16,2-16s2-15,8-12s11,8,11,8s16,9,20-1s9-24,0-24s-16,0-16,0s-22,2-4-4s25-10,34-11s8-5,16-8s14,3,27,0
		s33.25,0.2,44.62,2.6c11.38,2.4,63.27,9.53,71.32,10.46c8.05,0.93,34.68,4.51,38.86,4.72c4.19,0.21,32.13,2.62,38.66,2.42
		c6.53-0.2,30.89,14.6,45.21,15.7c14.32,1.1,17.3,11.1,28.81,16.1s21.51,15,3.51,22s-91,8-129,28S1207,852,1207,852z"/>
</g>
<g id="Layer_3">
	<path class="st7" d="M0,819.57c14.08-4.91,51.91-18.67,63.35-17.69c11.44,0.98,27.28,1.97,38.72,0s25.52-8.84,41.35-12.78
		c15.84-3.93,64.23-13.76,80.07-10.81c15.84,2.95,77.43,5.9,87.11-0.98c9.68-6.88,47.51-11.79,51.03-11.79
		c3.52,0,46.63-25.55,52.79-29.48c6.16-3.93,45.75-26.53,52.79-33.41c7.04-6.88,36.08-34.4,47.51-37.34
		c11.44-2.95,44.87-17.69,49.27-19.66c4.4-1.97,57.19-16.71,63.35-16.71c6.16,0,26.4-6.88,33.44-3.93s28.16,7.86,31.68,10.81
		c3.52,2.95,14.96,11.79,18.48,12.78c3.52,0.98,2.64,2.95,8.8,6.88c6.16,3.93,45.75,31.45,52.79,40.29s10.56,14.74,16.72,19.65
		c6.16,4.91,61.59,51.1,69.51,55.03c7.92,3.93,52.79,47.17,58.95,53.07c6.16,5.9,26.4,42.26,27.28,48.15S643.2,1080,643.2,1080H0
		V819.57z"/>
	<path class="st1" d="M757,883c-27-13-31-11-28-24s1-15-12-22s-19-4-24-17s-26-16-11-27s27-6,5-11s-24.06-10.5-35.53-6.75
		C640,779,636,784,628,786s-13,5-17-4s-17-18,0-26s30-11,52-13s34,1,44-4s16-1,32-9s21-5,18-15s-14-15-14-22s-6-12-24-16s-17,0-34,0
		s-25,1-34-2s-6-8-21-5s-3,17-33,3s-16-17-30-15s-17.11-1.42-25.56-0.21S530,656,515,665s-38,27.14-42.5,32.57
		c-4.5,5.43-19.93,16.18-35.21,24.8c-15.29,8.63-60.6,38.34-70.44,40.98s-28.14,3.57-42.49,8.61c-14.35,5.04-18.29,9.26-33.32,9.65
		s-42.92-0.5-57.98-2.05c-15.06-1.56-47.3-0.46-68.68,4.99S124,794,121,802s14,29,22,26s49-14,70-8s36,5,48,0s-9,9,42-9s99-32,88-9
		s-27,33-36,35s-40,7-31,15s-6,23,24,14s42-18,51-14s23,4,9,14s-44,9-45,17s6,11,26,12s32,3,50,7s10,9,48,12S757,883,757,883z"/>
	<path class="st1" d="M282,981c23-10,34.75-22.24,18.38-29.12C284,945,280,952,269,937s-1-15-16-23s-9-6-36-13s-40-4-48-16
		s-9-17-16-19s-13-9-32-7s-24,8-34,0s-4-10-18-10s-23,9-32,0s-6.44-17.74-18.22-12.37S0,842.11,0,848.56S1,1079,1,1080
		s205.56,0,209.78,0.5C215,1081,282,981,282,981z"/>
</g>
<g id="Layer_12">
	<g>
		<path class="st7" d="M1921,812.5c0,0-3.79-6-21.82-6s-35.1-10-42.69,0c-7.59,10-29.41,25-53.12,32c-23.72,7-17.08,4-37.94,10
			s-45.53,7-57.87,10s-28.46,4-37.94,8s-28.46,17-36.05,28s-13.28,34,0,56s60.71,21,106.25,46s126.17,35,147.98,36s33.2,0,33.2,0
			V812.5z"/>
		<path class="st7" d="M1190.5,844.5c29-19,44-16,58-28s23-13,26-18s-6-8,10-10s21,2,41-7s36-7,65-13s11-8,47-6s36,1,78,7
			s50,13,71,12s8-5,41,4s43,16,69,27s20,6,49,26s57,31,66,33s29,0,21,35s-81,64-111,75s-88,34-184,15s-102-21-177-41s-82-12-116-42
			S1190.5,844.5,1190.5,844.5z"/>
	</g>
	<path class="st1" d="M1258,856c34-3,39,2,51-4s27.79-3.85,17.9-10.42C1317,835,1303,839,1317,832s7-4,20-8s20-1,12-7s-22,2-11-7
		s1-7,14-8s15-3,21,0s-3,2,6,3s10-1,16-5s-9,4,6-2s15-8,33-12s16-7,30-8s11,1,29-4s32.23-2.85,43.62-0.93
		c11.38,1.93,20.94,5.54,29.66,6.73c8.72,1.19,17.4,2.63,24.56,1.41c7.16-1.22,7.39-2.45,13.77-1.33
		c6.39,1.11,30.89,7.19,36.64,9.65c5.75,2.46,27.55,9.28,38.15,15.37c10.6,6.09,36.82,15.1,42.21,18.1s25.94,16.97,32.17,20.98
		s5.45,4.01,13.34,8.01s24.39,13.46,34.14,16.23c9.75,2.77,23.13,4.31,25.94,7.54S1838,885,1846,901s24,30,17,33s29,21-43,0
		s-59-30-146-34s-107-9-176-12s-32-6-113-5s-111,11-124-4S1258,856,1258,856z"/>
	<path class="st1" d="M1881,911c7.29-3.45,11-15,3-17s-11-3-13-4s-10,2-13-3s-4,1-3-4s3-12,6-12s3-10-3-12s-7,6-6-2s4-10,4-10
		s3-3,8-5s7-3,6-7s-7-3,0-7s9-6,12-11s-0.67-12.21,5.67-11.61c6.33,0.61,21.64,0.89,25.49,2.75S1921,805,1921,813s1,107.07,0,109.04
		s0,13.96-11,16.96S1826,937,1881,911z"/>
</g>
<g id="Layer_6">
	<path d="M0.5,1066.5c17-1,43-6,66-11s37-9,60-24s38-24,48-25s27-8,38-13s29-21,39-23s37-19,44-18s37-14,46-18s55-18,63-19
		s39-9,52-10s49-9,55-10s8-2,16,0s7,0,23-1s19-4,31-4s24-1,31,0s47-4,55-7s24-9,33-11s13-12,17-11s27-4,34-6s13-10,18-7s52-9,58-12
		s1-8,15-10s65-5,78-5s42,5,50,5s24-2,42,3s17,0,31-1s50-2,58-2s49-1,60-2s29-7,37-3s28,6,46,9s61,23,73,25s26,9,34,10s17,4,28,4
		s33-10,38-10s74-4,90-3s67,4,76,7s89,9,100,12s66,16,81,19s27,3,48,10s28,7,39,10s30,8,41,8s28,2,28,2l-1,156H0.5V1066.5z"/>
</g>
</svg>
